<svg width="320" height="170" viewBox="0 0 320 170" fill="none" xmlns="http://www.w3.org/2000/svg">
<g clip-path="url(#clip0)">
<path fill-rule="evenodd" clip-rule="evenodd" d="M88.7963 37.9192C87.7805 35.8285 87.3377 33.4849 88.1154 31.2058C90.3562 24.6393 99.418 28.6873 100.366 32.5679C101.313 36.4484 98.8359 44.9619 96.301 44.9186C95.2901 44.9013 93.4273 43.7613 91.6949 41.9803L90.6134 51.3294L83.0002 49.255L88.7963 37.9192Z" fill="#D4A181"/>
<path fill-rule="evenodd" clip-rule="evenodd" d="M91.6176 38.1618C90.2074 39.6912 88.5545 40.6829 87.2588 40.3317C84.7976 39.6646 83.9113 35.9299 84.84 32.4244C84.8726 32.3013 84.9075 32.1796 84.9445 32.0595C81.8721 33.1241 78.9412 36.0696 75.4964 35.1359C70.8097 33.8657 71.4296 23.9947 77.9776 25.7694C82.4308 26.9763 84.4508 28.2133 86.0865 29.6762C86.7344 28.7371 87.5338 28.0166 88.3897 27.5941C88.6061 27.4531 88.9094 27.3442 89.2835 27.2685C89.5144 27.2138 89.747 27.1813 89.9796 27.1724C91.2279 27.0664 92.9544 27.2209 94.8132 27.6564C95.1603 27.7377 95.4991 27.8258 95.8274 27.9195C96.2884 26.2012 98.066 25.1904 99.8029 25.6612C101.543 26.1329 102.584 27.9131 102.127 29.6374C101.685 31.305 100.005 32.3096 98.3207 31.9473C97.2936 31.9803 96.0164 31.8627 94.6388 31.5858C94.6405 32.1112 94.5645 32.6869 94.398 33.3156C94.2509 33.8708 94.0331 34.4428 93.7608 35.0098C93.5588 34.5844 93.226 34.2524 92.8275 34.1444C91.7128 33.8422 90.6962 34.5406 90.4406 35.5053C90.1163 36.7296 90.595 37.8087 91.6176 38.1618Z" fill="#191847"/>
<path fill-rule="evenodd" clip-rule="evenodd" d="M77.7751 78.1044L101.945 118.513L120.066 152.675H123.969L93.6077 78.1044L77.7751 78.1044Z" fill="#BA8B72"/>
<path fill-rule="evenodd" clip-rule="evenodd" d="M117.68 151.098C117.316 152.069 117.134 152.796 117.134 153.278C117.134 153.865 117.232 154.721 117.427 155.846C118.108 155.846 124.223 155.846 135.774 155.846C136.25 154.27 135.975 153.419 134.948 153.293C133.921 153.168 133.067 153.054 132.388 152.953L123.861 149.152C123.697 149.078 123.504 149.152 123.431 149.316C123.43 149.319 123.429 149.322 123.428 149.325L122.88 150.654C121.929 151.098 121.156 151.32 120.561 151.32C120.078 151.32 119.411 151.125 118.56 150.735L118.56 150.735C118.234 150.585 117.847 150.728 117.698 151.055C117.691 151.069 117.685 151.083 117.68 151.098Z" fill="#E4E4E4"/>
<path fill-rule="evenodd" clip-rule="evenodd" d="M115.033 147.204L122.56 144.927C119.263 135.069 115.221 124.22 110.435 112.38C105.649 100.541 100.509 89.1157 95.0148 78.1044H73.7559C79.864 92.0332 86.3394 104.689 93.1822 116.073C100.025 127.456 107.309 137.833 115.033 147.204Z" fill="#E8F3F4"/>
<path fill-rule="evenodd" clip-rule="evenodd" d="M76.1868 78.1044C73.9056 92.3042 69.5057 110.446 69.0905 111.006C68.8137 111.379 58.8481 114.719 39.1938 121.024L40.037 124.466C63.4746 121.084 75.8243 118.46 77.0859 116.595C78.9784 113.796 88.4277 91.6891 92.0875 78.1044H76.1868Z" fill="#D4A181"/>
<path fill-rule="evenodd" clip-rule="evenodd" d="M46.1025 118.049L47.5876 123.592C65.1176 125.13 75.8586 124.019 79.8107 120.259C83.7627 116.5 88.2669 102.448 93.3231 78.1044H73.0515C69.8479 98.0387 68.057 108.424 67.6785 109.261C67.3001 110.098 60.1081 113.027 46.1025 118.049Z" fill="#E8F3F4"/>
<path fill-rule="evenodd" clip-rule="evenodd" d="M40.189 119.597C39.163 119.411 38.4108 119.361 37.9324 119.446C37.3504 119.55 36.518 119.798 35.435 120.19C35.5514 120.859 36.5975 126.874 38.5733 138.234C40.2185 138.423 41.0156 138.001 40.9646 136.969C40.9135 135.936 40.8801 135.077 40.8644 134.391L43.1771 125.33C43.2216 125.156 43.1155 124.98 42.9403 124.937C42.9373 124.936 42.9342 124.936 42.9312 124.935L41.5184 124.632C40.9156 123.775 40.5633 123.055 40.4616 122.47C40.379 121.995 40.4584 121.304 40.6999 120.398L40.6999 120.398C40.7926 120.05 40.5843 119.696 40.2346 119.607C40.2196 119.603 40.2044 119.599 40.189 119.597Z" fill="#E4E4E4"/>
<path fill-rule="evenodd" clip-rule="evenodd" d="M106.506 75.6514L115.444 84.9135C118.091 86.1498 120.249 87.4856 121.919 88.9209C122.29 89.3961 122.682 90.2942 120.881 89.8299C119.081 89.3655 117.167 88.9572 116.808 89.528C116.449 90.0988 117.425 91.0322 116.771 91.7722C116.336 92.2655 114.975 90.5907 112.689 86.7479L103.28 80.7814L106.506 75.6514ZM60.7344 64.2909L66.2082 66.3114C57.4067 78.0179 52.708 84.1995 52.1121 84.8563C50.7713 86.3342 51.3091 89.5238 51.4334 91.178C49.0078 91.3413 50.4758 88.0012 47.3991 88.2535C44.5909 88.4838 42.0315 89.8215 39.869 87.1154C39.6031 86.7827 39.5142 85.862 40.6421 85.5783C43.4521 84.8715 47.6732 83.381 48.4323 82.6609C49.4676 81.679 53.5683 75.5557 60.7344 64.2909Z" fill="#D4A181"/>
<path fill-rule="evenodd" clip-rule="evenodd" d="M108.808 76.7579C110.144 76.9002 111.542 77.3745 112.992 78.1654C113.706 78.5545 113.971 79.4428 113.585 80.1494C113.361 80.5599 112.967 80.8187 112.535 80.8874C112.793 81.1536 113.053 81.419 113.316 81.6838L109.817 86.468C99.8627 79.124 90.3323 73.2244 87.2135 63.4848C86.1668 60.216 88.4589 50.1597 88.9506 46.44L92.6336 45.655C95.7194 56.3578 100.569 66.9642 108.808 76.7579Z" fill="#48B4C7"/>
<path fill-rule="evenodd" clip-rule="evenodd" d="M70.9557 78.6676C80.882 81.583 88.8459 83.009 94.8475 82.9456C95.5911 82.9377 96.0945 79.8508 95.9068 78.9495C92.984 64.9142 91.2303 54.7088 92.8108 45.6067C91.771 45.9306 90.0889 45.7059 87.7643 44.9324C79.7266 53.1649 74.9118 63.3999 70.9557 78.6676Z" fill="#191847"/>
<path fill-rule="evenodd" clip-rule="evenodd" d="M68.8092 79.965C68.5212 79.5823 68.4256 79.0688 68.5998 78.5887L68.9316 77.6743C69.1564 77.0546 69.7609 76.6823 70.3917 76.7201C70.583 76.2598 70.7589 75.8002 70.918 75.3411C72.2618 71.463 71.8314 67.3475 72.5516 63.5106C66.6125 66.9692 60.6527 73.7103 54.6723 83.7339L48.8998 80.8687C49.2804 80.0545 49.6676 79.2522 50.0612 78.4619C49.4281 77.9404 48.923 75.9792 49.566 75.7813C50.2301 75.5768 50.9142 75.4717 51.6169 75.4636C60.0885 59.7887 71.3244 49.2273 85.3247 43.7795L86.4448 43.98L88.9865 44.435C85.45 58.3967 94.9743 91.965 85.22 117.431C75.2948 117.839 62.7956 108.804 48.5996 111.694C50.9397 101.154 63.0075 90.4401 68.8092 79.965L68.8092 79.965Z" fill="#48B4C7"/>
<path fill-rule="evenodd" clip-rule="evenodd" d="M86.6163 44.2384L84.0689 49.0161L86.7595 53.4202L83.2099 55.8685L88.3755 69.6211L81.5719 55.6013L85.0719 53.1185L82.681 49.2242L86.6163 44.2384Z" fill="black" fill-opacity="0.1"/>
<path fill-rule="evenodd" clip-rule="evenodd" d="M85.3068 74.0522C84.5927 73.9247 84.1137 73.2483 84.2368 72.5413C84.3599 71.8343 85.0386 71.3646 85.7526 71.4921C86.4667 71.6195 86.9458 72.296 86.8226 73.003C86.6995 73.7099 86.0208 74.1797 85.3068 74.0522ZM85.6411 81.7012C84.927 81.5737 84.448 80.8973 84.5711 80.1903C84.6942 79.4834 85.3729 79.0136 86.0869 79.1411C86.801 79.2685 87.2801 79.945 87.1569 80.652C87.0338 81.3589 86.3551 81.8287 85.6411 81.7012ZM84.6824 89.1194C83.9684 88.9919 83.4893 88.3155 83.6124 87.6085C83.7356 86.9015 84.4142 86.4318 85.1283 86.5592C85.8424 86.6867 86.3214 87.3632 86.1983 88.0702C86.0752 88.7771 85.3965 89.2469 84.6824 89.1194Z" fill="black" fill-opacity="0.4"/>
<path d="M250.5 57.5374C250.5 63.6559 245.777 68.5747 240 68.5747C234.223 68.5747 229.5 63.6559 229.5 57.5374C229.5 51.4189 234.223 46.5 240 46.5C245.777 46.5 250.5 51.4189 250.5 57.5374Z" fill="white" fill-opacity="0.3" stroke="#48B4C7"/>
<g clip-path="url(#clip1)">
<path d="M238.403 64.7093C237.425 64.7093 236.502 64.3906 235.734 63.7877C235.591 63.6752 235.453 63.5522 235.324 63.4225C234.428 62.5189 233.977 61.3154 234.055 60.0337C234.113 59.065 234.496 58.1311 235.132 57.4041C235.975 56.4413 237.136 55.911 238.404 55.911C238.621 55.911 238.841 55.9276 239.057 55.9603L239.394 56.0112V59.0551L238.876 58.8806C238.725 58.8297 238.569 58.804 238.41 58.804C238.009 58.804 237.634 58.9642 237.353 59.255C237.074 59.5444 236.923 59.927 236.929 60.333C236.937 60.8564 237.207 61.3307 237.652 61.6024C237.857 61.7273 238.09 61.8004 238.327 61.8138C238.514 61.8243 238.698 61.7994 238.876 61.7396C239.483 61.5351 239.89 60.9606 239.89 60.3102L239.893 57.1535V50.9891H242.744L242.747 51.3873C242.749 51.5677 242.767 51.748 242.801 51.9227C242.935 52.6098 243.312 53.2221 243.864 53.6466C244.354 54.0236 244.938 54.2227 245.554 54.2227C245.568 54.2227 245.568 54.2227 245.7 54.2321L246.066 54.2584V56.7237V57.1257L245.935 57.1254H245.673C245.671 57.1254 245.669 57.1254 245.667 57.1254H245.541C245.54 57.1254 245.539 57.1254 245.539 57.1254C244.78 57.1254 244.068 56.9778 243.363 56.6741C243.153 56.5836 242.948 56.4801 242.751 56.3646L242.76 60.3255C242.755 61.4971 242.301 62.596 241.482 63.4222C240.818 64.0924 239.979 64.5206 239.057 64.6599C238.842 64.6926 238.622 64.7093 238.403 64.7093V64.7093ZM238.403 56.7149C237.364 56.7149 236.411 57.1498 235.719 57.9395C235.201 58.5325 234.889 59.2938 234.841 60.083C234.778 61.1294 235.146 62.1123 235.878 62.8503C235.984 62.957 236.097 63.058 236.214 63.1505C236.843 63.6443 237.6 63.9053 238.403 63.9053C238.584 63.9053 238.764 63.8917 238.942 63.8649C239.697 63.7507 240.384 63.3999 240.929 62.8506C241.598 62.1759 241.969 61.279 241.972 60.325L241.96 54.7943L242.596 55.2952C242.925 55.5538 243.286 55.7687 243.67 55.934C244.194 56.1599 244.723 56.2853 245.278 56.3151V55.0167C244.592 54.9642 243.943 54.7153 243.39 54.2889C242.683 53.7455 242.2 52.9609 242.028 52.08C242.01 51.9855 241.995 51.8898 241.984 51.7933H240.681V57.1538L240.678 60.3105C240.678 61.3082 240.053 62.1893 239.123 62.5028C238.851 62.5942 238.569 62.6322 238.283 62.6164C237.919 62.596 237.561 62.4838 237.247 62.2922C236.566 61.8765 236.153 61.1485 236.141 60.3448C236.132 59.722 236.363 59.1347 236.792 58.6906C237.221 58.2453 237.796 58.0001 238.409 58.0001C238.475 58.0001 238.54 58.003 238.605 58.0086V56.7205C238.538 56.7167 238.471 56.7149 238.403 56.7149V56.7149Z" fill="#CFE5E9"/>
</g>
<path d="M169.937 71.5C169.937 79.2584 163.993 85.5 156.719 85.5C149.444 85.5 143.5 79.2584 143.5 71.5C143.5 63.7416 149.444 57.5 156.719 57.5C163.993 57.5 169.937 63.7416 169.937 71.5Z" fill="white" fill-opacity="0.3" stroke="#48B4C7"/>
<g clip-path="url(#clip2)">
<path d="M164.558 67.0165C163.633 67.06 163.654 67.0565 163.549 67.0654L164.097 65.4695C164.097 65.4695 162.387 66.1112 161.954 66.226C160.816 65.1822 159.125 65.136 157.915 65.8946C156.925 66.5159 156.393 67.5828 156.571 68.8299C154.643 68.5569 153.019 67.6246 151.737 66.0528L151.332 65.5558L151.029 66.1237C150.646 66.8412 150.519 67.6616 150.67 68.4338C150.733 68.7505 150.839 69.0527 150.986 69.3356L150.638 69.198L150.596 69.7912C150.555 70.3937 150.751 71.097 151.122 71.6725C151.227 71.8345 151.362 72.0125 151.532 72.188L151.352 72.1599L151.572 72.8395C151.86 73.7325 152.459 74.4234 153.236 74.8074C152.46 75.1436 151.833 75.358 150.802 75.704L149.859 76.0203L150.73 76.5062C151.062 76.6915 152.236 77.3103 153.395 77.4959C155.972 77.9083 158.873 77.5725 160.827 75.7772C162.472 74.2651 163.012 72.1142 162.9 69.8758C162.883 69.537 162.974 69.2136 163.156 68.9654C163.521 68.4683 164.556 67.0199 164.558 67.0165V67.0165ZM162.467 68.4389C162.165 68.851 162.013 69.3773 162.04 69.9207C162.153 72.1785 161.551 73.9295 160.251 75.1247C158.732 76.521 156.281 77.069 153.528 76.6283C153.03 76.5485 152.514 76.3699 152.088 76.1915C152.952 75.8881 153.619 75.6177 154.697 75.0972L156.201 74.3706L154.54 74.2621C153.745 74.2102 153.082 73.8167 152.675 73.1779C152.891 73.1651 153.1 73.1294 153.307 73.0703L154.891 72.6201L153.294 72.221C152.518 72.027 152.076 71.5531 151.841 71.1896C151.687 70.9508 151.587 70.7061 151.526 70.4805C151.686 70.5244 151.873 70.5556 152.174 70.5861L153.653 70.7353L152.481 69.8028C151.637 69.1311 151.299 68.1218 151.547 67.1516C154.181 69.9396 157.274 69.73 157.585 69.8037C157.516 69.1245 157.515 69.1229 157.497 69.0583C157.098 67.6201 157.972 66.8899 158.366 66.6427C159.189 66.1264 160.495 66.0486 161.4 66.8991C161.596 67.0827 161.86 67.1549 162.108 67.0922C162.33 67.0359 162.512 66.9763 162.69 66.9114L162.319 67.9937L162.793 67.9941C162.703 68.1165 162.596 68.2631 162.467 68.4389Z" fill="#CFE5E9"/>
</g>
<path d="M105.881 68.1861L105.563 73.4264L106.641 73.4919L106.765 71.4456L112.675 71.8043L112.744 70.6564L106.835 70.2977L106.959 68.2515L105.881 68.1861Z" fill="#48B4C7"/>
<path d="M108.203 64.2906C108.084 65.021 108.256 65.5859 108.696 66.0528L107.937 66.1115L107.817 66.8518L113.146 67.7196L113.325 66.624L110.492 66.1628C109.525 66.0053 109.074 65.476 109.222 64.5679L109.317 63.9856L108.28 63.8169L108.203 64.2906Z" fill="#48B4C7"/>
<path d="M110.01 57.5484L110.631 57.8534C110.01 58.1913 109.539 58.7776 109.327 59.5492C108.902 61.1021 109.752 62.579 111.315 63.0068C112.877 63.4345 114.371 62.5993 114.796 61.0464C115.005 60.2845 114.895 59.5494 114.552 58.9474L115.208 59.0129L115.443 58.1545L110.234 56.7286L110.01 57.5484ZM113.788 60.6771C113.518 61.6609 112.587 62.1836 111.613 61.9169C110.639 61.6502 110.104 60.7261 110.373 59.7423C110.643 58.7585 111.562 58.2428 112.545 58.5122C113.529 58.7815 114.057 59.6933 113.788 60.6771Z" fill="#48B4C7"/>
<path d="M116.891 55.3737C117.394 54.1427 117.022 52.8344 115.965 52.089L115.541 53.1257C116.043 53.6439 116.179 54.3154 115.91 54.9725C115.546 55.8611 114.544 56.2508 113.619 55.8724C112.693 55.4939 112.257 54.5267 112.624 53.6289C112.889 52.981 113.468 52.5694 114.148 52.5449L114.564 51.5268C113.303 51.3351 112.15 51.9874 111.643 53.2277C111.033 54.7179 111.701 56.3089 113.191 56.9183C114.681 57.5277 116.282 56.864 116.891 55.3737Z" fill="#48B4C7"/>
<path d="M118.501 46.2815C117.13 45.5163 115.476 45.8529 114.667 47.3024C113.897 48.682 114.382 50.3157 115.788 51.1004C117.203 51.89 118.848 51.4456 119.618 50.0659C120.208 49.0094 120.079 47.8038 119.293 46.8727L118.723 47.8943C119.018 48.3912 119.027 48.9915 118.71 49.559C118.281 50.3274 117.503 50.6143 116.666 50.3077L118.801 46.4832C118.706 46.4072 118.606 46.34 118.501 46.2815ZM115.549 47.7947C115.954 47.0699 116.67 46.7712 117.484 46.9963L115.895 49.8428C115.284 49.2957 115.145 48.5194 115.549 47.7947Z" fill="#48B4C7"/>
<path d="M122.662 45.5228C123.435 44.4523 123.392 43.3489 122.541 42.7346C121.462 41.9564 120.667 42.7512 120.013 43.4014C119.543 43.8642 119.148 44.2576 118.759 43.9767C118.443 43.7485 118.446 43.2824 118.803 42.7877C119.184 42.2606 119.645 42.1 120.07 42.3822L120.684 41.5307C119.829 40.9384 118.79 41.1997 118.058 42.2134C117.321 43.2352 117.379 44.3003 118.166 44.8678C119.179 45.5992 119.962 44.8566 120.618 44.2204C121.093 43.7495 121.522 43.3435 121.944 43.6478C122.309 43.9111 122.242 44.4304 121.891 44.917C121.511 45.4441 120.987 45.6578 120.507 45.3486L119.875 46.2245C120.801 46.8555 121.896 46.5852 122.662 45.5228Z" fill="#48B4C7"/>
<path d="M125.997 33.6325C125.419 34.1705 125.153 34.8685 125.235 35.5436L124.556 35.137L123.992 35.6614L127.67 39.6153L128.483 38.8593L126.514 36.7432C125.867 36.0476 125.843 35.1411 126.466 34.5622C127.059 34.0105 127.728 34.0983 128.395 34.8159L130.452 37.0271L131.265 36.2711L129.051 33.8915C128.146 32.9177 126.927 32.7675 125.997 33.6325Z" fill="#48B4C7"/>
<path d="M134.248 34.3909C135.454 33.5151 135.666 32.1742 134.808 30.993L132.974 28.4689L132.076 29.1213L133.822 31.5241C134.369 32.2765 134.305 33.0396 133.625 33.5334C132.946 34.0271 132.198 33.8657 131.646 33.1052L129.9 30.7025L129.002 31.3549L130.836 33.879C131.694 35.0602 133.043 35.2667 134.248 34.3909Z" fill="#48B4C7"/>
<path d="M139.911 24.6021C139.285 24.9377 138.878 25.5757 138.809 26.2711C138.257 25.8977 137.575 25.8545 136.932 26.1996C136.359 26.5068 135.964 27.0818 135.839 27.7162L135.341 27.1891L134.653 27.5577L137.206 32.3166L138.184 31.792L136.79 29.1922C136.355 28.3815 136.532 27.5487 137.167 27.2084C137.757 26.8918 138.324 27.144 138.735 27.9107L140.228 30.6955L141.18 30.1851L139.786 27.5854C139.351 26.7746 139.529 25.9418 140.163 25.6015C140.754 25.2849 141.32 25.5371 141.731 26.3038L143.225 29.0886L144.203 28.564L142.582 25.5413C142.005 24.4661 140.915 24.0633 139.911 24.6021Z" fill="#48B4C7"/>
<path d="M144.805 20.682L143.69 21.0969L143.639 22.7377L144.445 22.4378L144.805 20.682ZM147.93 24.694C147.383 23.2225 145.905 22.4065 144.35 22.9853C142.869 23.5363 142.179 25.0947 142.74 26.6036C143.305 28.1219 144.846 28.8504 146.327 28.2994C147.461 27.8775 148.145 26.8762 148.15 25.6578L147.054 26.0658C146.956 26.6355 146.573 27.098 145.964 27.3247C145.139 27.6316 144.361 27.3452 143.923 26.5692L148.028 25.0419C148.005 24.9224 147.972 24.8065 147.93 24.694ZM144.702 23.9319C145.48 23.6425 146.219 23.8797 146.692 24.5784L143.637 25.7152C143.527 24.9027 143.924 24.2214 144.702 23.9319Z" fill="#48B4C7"/>
<path d="M151.023 21.1979C150.306 21.3812 149.857 21.7645 149.606 22.3552L149.248 21.6828L148.522 21.8687L149.86 27.1003L150.935 26.8253L150.224 24.0448C149.981 23.0953 150.286 22.4704 151.177 22.2424L151.749 22.0962L151.488 21.079L151.023 21.1979Z" fill="#48B4C7"/>
<path d="M153.271 20.006L154.395 19.8191L154.207 18.6847L153.082 18.8716L153.271 20.006ZM154.312 26.1484L155.407 25.9664L154.522 20.6395L153.427 20.8215L154.312 26.1484Z" fill="#48B4C7"/>
<path d="M162.424 19.9612L162.257 20.6433C161.736 20.1756 161.038 19.9197 160.27 19.9689C158.653 20.0723 157.553 21.3552 157.657 22.9819C157.761 24.5986 159.015 25.7308 160.632 25.6273C161.331 25.5826 161.934 25.3034 162.377 24.8643L162.533 27.3092L163.641 27.2383L163.173 19.9233L162.424 19.9612ZM160.644 24.5643C159.636 24.6288 158.839 23.9183 158.775 22.9104C158.71 21.8925 159.41 21.0861 160.417 21.0216C161.435 20.9564 162.232 21.667 162.298 22.6849C162.362 23.6928 161.662 24.4992 160.644 24.5643Z" fill="#48B4C7"/>
<path d="M166.628 25.7599C168.115 25.8448 169.129 24.9411 169.212 23.4835L169.39 20.3686L168.281 20.3053L168.112 23.2705C168.059 24.199 167.527 24.7495 166.688 24.7017C165.85 24.6538 165.373 24.0557 165.427 23.1172L165.596 20.152L164.488 20.0888L164.31 23.2037C164.227 24.6613 165.14 25.675 166.628 25.7599Z" fill="#48B4C7"/>
<path d="M175.809 24.3299C176.087 22.7847 175.231 21.3302 173.597 21.0364C172.042 20.7567 170.655 21.7467 170.37 23.3313C170.083 24.9257 171.039 26.3371 172.594 26.6168C173.785 26.831 174.883 26.3173 175.508 25.2714L174.356 25.0643C173.982 25.5051 173.418 25.7083 172.778 25.5932C171.912 25.4375 171.387 24.7945 171.405 23.9036L175.716 24.6789C175.757 24.5644 175.788 24.448 175.809 24.3299ZM173.419 22.0304C174.235 22.1773 174.751 22.7577 174.803 23.6002L171.594 23.0231C171.913 22.2676 172.602 21.8835 173.419 22.0304Z" fill="#48B4C7"/>
<path d="M177.88 28.0186C179.144 28.4009 180.173 28.002 180.477 26.9971C180.863 25.7241 179.852 25.2303 179.025 24.8231C178.434 24.5296 177.934 24.2841 178.073 23.8247C178.186 23.4514 178.628 23.3031 179.212 23.4797C179.834 23.668 180.136 24.0519 180.007 24.5458L181.012 24.8499C181.294 23.8487 180.709 22.9508 179.513 22.5887C178.307 22.2238 177.318 22.6246 177.037 23.5531C176.675 24.7495 177.632 25.2479 178.447 25.6617C179.047 25.9582 179.57 26.2315 179.42 26.7292C179.289 27.1599 178.777 27.2659 178.202 27.0922C177.58 26.9039 177.208 26.4777 177.344 25.9235L176.31 25.6106C176.015 26.6913 176.626 27.6391 177.88 28.0186Z" fill="#48B4C7"/>
<path d="M198.248 132.005L196.945 129.778L190.902 133.311L191.478 134.295L193.524 133.099L194.25 134.342C194.942 135.524 196.311 135.905 197.451 135.239C198.599 134.568 198.934 133.179 198.248 132.005ZM195.166 133.748L194.465 132.548L196.58 131.312L197.281 132.512C197.66 133.159 197.473 133.871 196.86 134.229C196.256 134.582 195.545 134.396 195.166 133.748Z" fill="#48B4C7"/>
<path d="M203.559 140.613C203.012 140.144 202.359 139.953 201.749 140.036L203.408 138.099L202.565 137.377L197.796 142.944L198.639 143.666L200.519 141.471C201.137 140.75 202.043 140.63 202.681 141.177C203.303 141.71 203.284 142.378 202.646 143.123L200.682 145.416L201.524 146.138L203.639 143.67C204.543 142.615 204.516 141.432 203.559 140.613Z" fill="#48B4C7"/>
<path d="M210.162 144.101L211.198 144.577L211.678 143.532L210.642 143.056L210.162 144.101ZM207.58 149.77L208.588 150.234L210.843 145.327L209.834 144.863L207.58 149.77Z" fill="#48B4C7"/>
<path d="M216.816 152.914C218.117 153.133 219.088 152.607 219.262 151.572C219.483 150.26 218.418 149.898 217.546 149.6C216.923 149.383 216.396 149.203 216.475 148.73C216.54 148.345 216.959 148.142 217.561 148.243C218.202 148.351 218.55 148.694 218.485 149.2L219.521 149.374C219.673 148.345 218.979 147.529 217.747 147.321C216.504 147.112 215.574 147.635 215.413 148.592C215.206 149.825 216.218 150.198 217.079 150.505C217.712 150.723 218.265 150.927 218.179 151.44C218.104 151.884 217.609 152.054 217.018 151.955C216.377 151.847 215.953 151.471 216.018 150.904L214.953 150.725C214.797 151.834 215.524 152.697 216.816 152.914Z" fill="#48B4C7"/>
<path d="M227.98 147.447C227.269 147.556 226.698 147.928 226.363 148.445L225.975 145.924L224.878 146.093L225.994 153.338L227.091 153.169L226.651 150.313C226.506 149.374 227.006 148.609 227.836 148.481C228.646 148.356 229.141 148.806 229.29 149.775L229.749 152.76L230.846 152.591L230.352 149.378C230.14 148.005 229.225 147.255 227.98 147.447Z" fill="#48B4C7"/>
<path d="M234.928 144.71L235.964 144.234L235.484 143.189L234.448 143.665L234.928 144.71ZM237.547 150.363L238.556 149.9L236.302 144.993L235.293 145.456L237.547 150.363Z" fill="#48B4C7"/>
<path d="M243.079 140.424C242.479 140.938 242.185 141.624 242.239 142.302L241.577 141.868L240.992 142.369L244.506 146.47L245.349 145.748L243.468 143.553C242.85 142.832 242.864 141.925 243.509 141.372C244.124 140.845 244.789 140.96 245.427 141.704L247.392 143.998L248.234 143.276L246.12 140.808C245.255 139.798 244.043 139.598 243.079 140.424Z" fill="#48B4C7"/>
<path d="M250.394 131.371L250.913 131.871C250.225 132.036 249.601 132.471 249.202 133.153C248.44 134.456 248.873 136.053 250.177 136.815C251.489 137.582 253.084 137.171 253.846 135.868C254.2 135.264 254.305 134.607 254.189 133.995L254.405 134.121C255.285 134.635 255.472 135.544 255.003 136.347C254.66 136.934 254.052 137.32 253.436 137.203L252.881 138.153C254.036 138.516 255.152 138.033 255.854 136.833C256.697 135.391 256.305 133.981 254.82 133.113L250.763 130.741L250.394 131.371ZM253.018 135.244C252.533 136.073 251.567 136.319 250.747 135.84C249.935 135.365 249.676 134.403 250.16 133.574C250.65 132.737 251.602 132.494 252.422 132.974C253.251 133.458 253.502 134.416 253.018 135.244Z" fill="#48B4C7"/>
<path d="M242.676 117C242.676 128.343 233.886 137.5 223.088 137.5C212.291 137.5 203.5 128.343 203.5 117C203.5 105.657 212.291 96.5 223.088 96.5C233.886 96.5 242.676 105.657 242.676 117Z" fill="white" fill-opacity="0.3" stroke="#48B4C7"/>
<g clip-path="url(#clip3)">
<path d="M228.256 105H217.92C214.556 105 211.819 107.793 211.819 111.226V121.774C211.819 125.207 214.556 128 217.92 128H228.256C231.62 128 234.357 125.207 234.357 121.774V111.226C234.357 107.793 231.62 105 228.256 105V105ZM233.036 121.774C233.036 124.464 230.892 126.652 228.256 126.652H217.92C215.284 126.652 213.14 124.464 213.14 121.774V111.226C213.14 108.536 215.284 106.348 217.92 106.348H228.256C230.892 106.348 233.036 108.536 233.036 111.226V121.774Z" fill="#CFE5E9"/>
<path d="M223.088 110.211C219.69 110.211 216.926 113.032 216.926 116.5C216.926 119.968 219.69 122.789 223.088 122.789C226.486 122.789 229.251 119.968 229.251 116.5C229.251 113.032 226.486 110.211 223.088 110.211V110.211ZM223.088 121.44C220.419 121.44 218.247 119.224 218.247 116.5C218.247 113.776 220.419 111.559 223.088 111.559C225.758 111.559 227.929 113.776 227.929 116.5C227.929 119.224 225.758 121.44 223.088 121.44V121.44Z" fill="#CFE5E9"/>
<path d="M229.398 107.978C228.394 107.978 227.577 108.811 227.577 109.836C227.577 110.861 228.394 111.694 229.398 111.694C230.402 111.694 231.219 110.861 231.219 109.836C231.219 108.811 230.402 107.978 229.398 107.978ZM229.398 110.346C229.122 110.346 228.898 110.117 228.898 109.836C228.898 109.555 229.122 109.326 229.398 109.326C229.673 109.326 229.898 109.555 229.898 109.836C229.898 110.117 229.673 110.346 229.398 110.346Z" fill="#CFE5E9"/>
</g>
<path d="M267.065 51.8289L268.233 51.2812L265.599 49.4791C266.233 48.8285 266.426 47.8984 266.023 47.0383C265.475 45.8703 264.175 45.4528 262.953 46.026L260.49 47.1808L263.462 53.5186L264.494 53.0346L263.395 50.6896L264.599 50.125L267.065 51.8289ZM261.981 47.6746L263.348 47.0335C264.036 46.7109 264.683 46.9374 264.959 47.526C265.24 48.1235 264.996 48.7571 264.307 49.0797L262.94 49.7208L261.981 47.6746ZM272.67 46.241C272.003 44.8195 270.464 44.1276 268.961 44.8323C267.53 45.5031 266.971 47.1129 267.654 48.5706C268.342 50.0374 269.938 50.6368 271.368 49.966C272.464 49.4523 273.063 48.3982 272.968 47.1835L271.909 47.6802C271.859 48.256 271.515 48.7484 270.927 49.0244C270.13 49.398 269.33 49.1765 268.83 48.4392L272.795 46.5797C272.763 46.4625 272.721 46.3496 272.67 46.241ZM269.39 45.7468C270.141 45.3944 270.897 45.57 271.426 46.2276L268.475 47.6116C268.298 46.8109 268.638 46.0992 269.39 45.7468ZM275.782 41.7776L276.053 46.0791L272.884 43.1362L271.825 43.6329L276.182 47.5541L277.096 47.1253L276.814 41.2937L275.782 41.7776ZM283.306 41.2533C282.64 39.8318 281.101 39.1399 279.598 39.8447C278.167 40.5155 277.608 42.1253 278.291 43.583C278.979 45.0497 280.574 45.6491 282.005 44.9783C283.1 44.4646 283.7 43.4105 283.605 42.1958L282.546 42.6925C282.495 43.2684 282.152 43.7608 281.563 44.0367C280.767 44.4103 279.967 44.1889 279.466 43.4515L283.432 41.592C283.399 41.4749 283.357 41.362 283.306 41.2533ZM280.026 40.7592C280.778 40.4068 281.534 40.5824 282.063 41.2399L279.112 42.6239C278.935 41.8232 279.275 41.1115 280.026 40.7592ZM285.748 36.9716C285.033 37.307 284.566 37.8903 284.438 38.5581L283.916 37.9634L283.219 38.2903L285.511 43.1794L286.516 42.7082L285.289 40.0916C284.886 39.2314 285.141 38.361 285.91 38.0002C286.644 37.6563 287.254 37.9445 287.67 38.8318L288.952 41.5661L289.957 41.0949L288.577 38.1523C288.012 36.9481 286.898 36.4325 285.748 36.9716ZM293.021 33.6941L293.164 34.4C292.504 34.1463 291.743 34.1495 291.028 34.4849C289.661 35.126 289.112 36.6868 289.753 38.054C290.398 39.4302 291.945 39.997 293.312 39.356C293.946 39.0588 294.405 38.5783 294.657 38.0075L294.763 38.2339C295.196 39.1574 294.834 40.0117 293.992 40.4065C293.377 40.6952 292.657 40.6681 292.217 40.2231L291.221 40.6901C291.966 41.6438 293.159 41.8797 294.418 41.2896C295.93 40.5806 296.407 39.1968 295.677 37.6395L293.682 33.3841L293.021 33.6941ZM292.983 38.3725C292.114 38.78 291.179 38.4344 290.776 37.5742C290.377 36.7232 290.709 35.7831 291.578 35.3756C292.456 34.9638 293.378 35.3046 293.782 36.1647C294.189 37.0339 293.853 37.9649 292.983 38.3725ZM300.919 32.9945C300.253 31.573 298.714 30.8811 297.211 31.5858C295.78 32.2566 295.221 33.8664 295.904 35.3241C296.592 36.7909 298.187 37.3903 299.618 36.7195C300.713 36.2058 301.312 35.1517 301.218 33.937L300.158 34.4337C300.108 35.0095 299.765 35.5019 299.176 35.7779C298.379 36.1515 297.58 35.93 297.079 35.1927L301.045 33.3332C301.012 33.216 300.97 33.1031 300.919 32.9945ZM297.639 32.5003C298.391 32.1479 299.147 32.3235 299.676 32.9811L296.724 34.3651C296.548 33.5644 296.888 32.8527 297.639 32.5003ZM305.683 27.6128C304.977 27.944 304.489 28.5043 304.258 29.165L303.783 28.6476L303.113 28.9617L306.229 35.6074L307.234 35.1362L306.194 32.9179C306.794 33.0896 307.457 33.0437 308.091 32.7465C309.548 32.063 310.108 30.4531 309.42 28.9864C308.732 27.5196 307.141 26.9293 305.683 27.6128ZM307.559 31.825C306.636 32.258 305.634 31.8883 305.201 30.9648C304.772 30.0503 305.128 29.0438 306.052 28.6108C306.975 28.1777 307.968 28.5517 308.397 29.4661C308.83 30.3896 308.483 31.3919 307.559 31.825ZM313.962 29.9935C315.456 29.293 316.056 27.6752 315.364 26.1994C314.676 24.7327 313.048 24.1593 311.555 24.8598C310.052 25.5646 309.447 27.1733 310.139 28.6491C310.831 30.1249 312.459 30.6982 313.962 29.9935ZM313.512 29.0337C312.579 29.471 311.604 29.111 311.163 28.1693C310.725 27.2368 311.072 26.2568 312.005 25.8196C312.928 25.3865 313.903 25.7466 314.34 26.6792C314.782 27.6208 314.435 28.6007 313.512 29.0337ZM317.629 22.1218C316.959 22.436 316.59 22.8964 316.453 23.5237L315.976 22.9301L315.297 23.2485L317.59 28.1377L318.595 27.6665L317.376 25.068C316.96 24.1807 317.142 23.5098 317.975 23.1192L318.51 22.8687L318.064 21.918L317.629 22.1218ZM321.39 20.2591C320.674 20.5945 320.208 21.1777 320.079 21.8455L319.557 21.2508L318.86 21.5777L321.153 26.4669L322.158 25.9956L320.931 23.379C320.528 22.5189 320.782 21.6485 321.552 21.2876C322.285 20.9437 322.895 21.232 323.311 22.1193L324.593 24.8536L325.598 24.3823L324.219 21.4398C323.654 20.2356 322.54 19.7199 321.39 20.2591Z" fill="#CFE5E9"/>
<path d="M196.299 55.2198C199.291 54.5646 202.402 55.1107 204.946 56.738C207.49 58.3653 209.259 60.9406 209.864 63.8973" stroke="#CFE5E9" stroke-linecap="round" stroke-linejoin="round"/>
<path d="M194.524 46.5493C199.844 45.3844 205.374 46.3553 209.897 49.2483C214.42 52.1413 217.565 56.7195 218.641 61.9758" stroke="#CFE5E9" stroke-linecap="round" stroke-linejoin="round"/>
<path d="M199.834 66.0935C200.526 65.9418 200.974 65.2644 200.834 64.5803C200.694 63.8962 200.019 63.4645 199.327 63.6161C198.635 63.7677 198.187 64.4452 198.327 65.1293C198.467 65.8134 199.142 66.2451 199.834 66.0935Z" stroke="#CFE5E9" stroke-linecap="round" stroke-linejoin="round"/>
<path d="M143.137 139.883C144.489 137.89 146.56 136.527 148.897 136.093C151.233 135.659 153.643 136.189 155.596 137.569" stroke="#48B4C7" stroke-linecap="round" stroke-linejoin="round"/>
<path d="M137.41 135.839C139.813 132.296 143.496 129.872 147.649 129.1C151.803 128.329 156.087 129.272 159.559 131.724" stroke="#48B4C7" stroke-linecap="round" stroke-linejoin="round"/>
<path d="M151.067 144.248C151.379 143.787 151.267 143.154 150.815 142.835C150.363 142.516 149.743 142.631 149.43 143.092C149.118 143.554 149.231 144.186 149.682 144.505C150.134 144.824 150.754 144.709 151.067 144.248Z" stroke="#48B4C7" stroke-linecap="round" stroke-linejoin="round"/>
<path d="M250.828 93.7834C250.852 91.9924 251.582 90.2977 252.856 89.072C254.129 87.8464 255.844 87.1902 257.621 87.2479" stroke="#48B4C7" stroke-linecap="round" stroke-linejoin="round"/>
<path d="M245.616 93.6144C245.659 90.4304 246.955 87.4175 249.22 85.2385C251.484 83.0596 254.532 81.8931 257.692 81.9956" stroke="#48B4C7" stroke-linecap="round" stroke-linejoin="round"/>
<path d="M257.54 93.2506C257.546 92.8362 257.217 92.4895 256.806 92.4761C256.395 92.4628 256.057 92.7879 256.051 93.2023C256.046 93.6167 256.374 93.9635 256.786 93.9768C257.197 93.9901 257.535 93.665 257.54 93.2506Z" stroke="#48B4C7" stroke-linecap="round" stroke-linejoin="round"/>
<path d="M352.213 152.258L348.616 149.364L346.829 149.383L326.376 51.0103L321.826 47.3497L283.282 95.3066L285.933 97.4401L322.724 51.6659L323.523 52.3092L329.129 79.2703L326.117 79.3038L326.752 82.3558L329.763 82.3221L332.302 94.5311L329.29 94.5643L329.924 97.6162L332.936 97.5826L335.474 109.792L332.463 109.825L333.098 112.877L336.109 112.844L338.647 125.052L335.636 125.086L336.27 128.138L339.282 128.104L341.959 140.984L341.135 140.321L332.883 140.413L329.939 144.076L330.455 146.558L324.397 146.625L325.644 152.626L328.76 152.592L328.146 149.642L331.089 149.61L331.572 151.933L336.041 155.679L340.412 155.587L344.837 177.109L348.5 180.056L354.982 179.984L357.405 176.969L352.213 152.258ZM336.727 152.601L334.434 150.679L334.205 149.576L338.913 149.524L338.278 146.472L333.57 146.524L333.317 145.307L334.808 143.452L340.479 143.388L342.733 145.202L343.845 150.553L342.294 152.484L336.727 152.601ZM353.057 176.948L349.156 176.991L347.693 175.814L343.522 155.523L344.229 155.508L346.692 152.444L347.96 152.43L349.364 153.56L354.025 175.744L353.057 176.948Z" fill="#48B4C7"/>
<path d="M281.566 97.6182L284.217 99.7518L282.463 101.935L279.811 99.8009L281.566 97.6182Z" fill="#48B4C7"/>
<path d="M269.802 124.259L268.443 123.166L267.814 120.142L272.188 114.7L279.335 114.62L277.879 107.619L280.675 104.14L278.022 102.005L275.226 105.484L268.287 105.561L269.7 112.359L264.434 118.911L265.588 124.465L269.145 127.327L276.609 127.244L275.974 124.19L269.802 124.259ZM274.948 108.548L275.583 111.601L272.674 111.634L272.039 108.58L274.948 108.548Z" fill="#48B4C7"/>
</g>
<defs>
<clipPath id="clip0">
<rect width="320" height="170" fill="white"/>
</clipPath>
<clipPath id="clip1">
<rect width="13.4444" height="13.7201" fill="white" transform="translate(233.278 50.9891)"/>
</clipPath>
<clipPath id="clip2">
<rect width="14.6986" height="15" fill="white" transform="translate(149.859 64)"/>
</clipPath>
<clipPath id="clip3">
<rect width="22.5379" height="23" fill="white" transform="translate(211.819 105)"/>
</clipPath>
</defs>
</svg>
