<svg width="320" height="494" viewBox="0 0 320 494" fill="none" xmlns="http://www.w3.org/2000/svg">
<path fill-rule="evenodd" clip-rule="evenodd" d="M120.521 250.865C124.093 257.41 130.574 272.895 128.87 276.07L114.077 280.2C114.068 280.172 114.06 280.143 114.051 280.115C108.395 280.975 102.809 277.025 101.204 270.783L98.2408 259.258C96.5185 252.56 100.032 245.759 106.089 244.068L107.109 243.783C112.542 242.267 118.175 245.375 120.521 250.865Z" fill="#191847"/>
<path fill-rule="evenodd" clip-rule="evenodd" d="M106.4 267.045C103.272 264.677 100.729 261.416 99.9267 257.189C97.6162 245.011 113.488 243.4 117.997 248.613C122.506 253.827 126.093 269.242 122.55 271.388C121.138 272.243 117.621 272.095 113.757 270.835L119.964 286.333L107.722 289.751L106.4 267.045Z" fill="#B28B67"/>
<path fill-rule="evenodd" clip-rule="evenodd" d="M109.19 264.1C111.461 270.583 113.185 278.229 111.967 280.499L97.1749 284.629C92.315 269.164 101.843 273.018 98.0433 258.241C98.4032 257.57 98.7371 256.913 99.0847 256.329L98.9565 255.899C100.04 249.437 102.551 245.655 106.489 244.556C112.395 242.907 115.034 245.399 117.279 247.513C117.24 252.309 112.804 254.257 109.426 258.182C108.833 257.887 108.152 257.802 107.482 257.989C105.932 258.421 105.03 260.149 105.467 261.847C105.904 263.545 107.514 264.571 109.063 264.138C109.106 264.126 109.148 264.113 109.19 264.1Z" fill="#191847"/>
<path fill-rule="evenodd" clip-rule="evenodd" d="M83.3848 406.685C95.9887 410.604 106.863 412.564 116.007 412.564C125.152 412.564 133.646 409.546 141.489 403.51C129.155 399.487 118.998 397.476 111.016 397.476C103.035 397.476 93.8247 400.546 83.3848 406.685Z" fill="#403F63"/>
<path fill-rule="evenodd" clip-rule="evenodd" d="M126.918 418.213C126.797 418.01 126.694 417.789 126.613 417.55C124.928 412.596 97.943 359.159 95.2546 349.39H125.636C127.68 356.818 136.88 403.432 138.175 412.732C142.26 427.403 150.671 474.914 151.744 478.205C152.874 481.668 146.518 485.275 144.825 481.018C142.13 474.245 135.709 455.504 132.85 444.06C130.17 433.332 127.987 423.681 126.918 418.213Z" fill="#997659"/>
<path fill-rule="evenodd" clip-rule="evenodd" d="M102.062 424.737C89.725 428.204 44.5984 434.471 41.5016 435.454C38.316 436.465 35.5228 429.165 39.4604 427.584C45.7258 425.067 62.9898 419.254 73.457 416.881C81.8762 414.973 89.5589 413.416 94.7168 412.504C94.2798 396.396 92.2823 357.739 93.5916 349.39H120.473C119.218 357.396 108.605 415.814 106.632 421.662C106.006 423.749 104.138 424.672 102.062 424.737Z" fill="#B28B67"/>
<path fill-rule="evenodd" clip-rule="evenodd" d="M39.7063 425.588C38.059 425.246 36.8518 425.15 36.0846 425.301C35.1516 425.485 33.8174 425.926 32.0822 426.626C32.2731 427.834 33.9883 438.691 37.228 459.196C39.8688 459.549 41.1451 458.794 41.0569 456.931C40.9687 455.068 40.9099 453.518 40.8804 452.28L44.5356 435.952C44.6059 435.637 44.4347 435.319 44.1532 435.241C44.1484 435.239 44.1436 435.238 44.1387 435.237L41.87 434.68C40.8976 433.131 40.328 431.828 40.1613 430.773C40.0258 429.915 40.149 428.67 40.5309 427.037L40.5309 427.037C40.6774 426.41 40.341 425.77 39.7795 425.606C39.7553 425.599 39.7309 425.593 39.7063 425.588Z" fill="#E4E4E4"/>
<path fill-rule="evenodd" clip-rule="evenodd" d="M142.896 480.524C142.308 482.276 142.015 483.586 142.015 484.455C142.015 485.513 142.172 487.056 142.488 489.084C143.587 489.084 153.465 489.084 172.121 489.084C172.891 486.243 172.447 484.709 170.788 484.483C169.128 484.256 167.75 484.052 166.653 483.869L152.88 477.016C152.615 476.884 152.304 477.017 152.186 477.313C152.184 477.318 152.182 477.323 152.18 477.328L151.295 479.725C149.759 480.525 148.511 480.925 147.55 480.925C146.77 480.925 145.693 480.573 144.318 479.87L144.318 479.87C143.791 479.6 143.167 479.858 142.925 480.447C142.915 480.472 142.905 480.498 142.896 480.524Z" fill="#E4E4E4"/>
<path fill-rule="evenodd" clip-rule="evenodd" d="M93.6784 349.39C105.524 345.622 116.733 345.622 127.303 349.39C130.981 368.045 139.918 375.449 141.489 404.051C123.626 413.919 101.559 397.013 83.1705 406.636C77.9166 393.176 85.2721 360.759 93.6784 349.39Z" fill="#FEFEFF"/>
<path fill-rule="evenodd" clip-rule="evenodd" d="M131.924 303.738L148.079 289.527C150.408 285.045 152.84 281.45 155.377 278.741C156.196 278.168 157.706 277.635 156.737 280.752C155.767 283.868 154.875 287.198 155.764 287.94C156.652 288.682 158.289 287.116 159.418 288.413C160.171 289.277 157.28 291.393 150.745 294.759L139.906 310.407L131.924 303.738ZM161.673 307.757L168.767 301.501C169.086 296.628 170.015 294.035 171.553 293.722C172.635 292.895 171.569 299.173 173.73 298.249C175.89 297.324 180.611 291.806 181.711 292.548C183.338 293.646 182.796 298.036 181.677 300.376C179.587 304.748 177.538 306.489 172.213 309.253C169.429 310.699 166.561 313.098 163.608 316.45L161.673 307.757Z" fill="#997659"/>
<path fill-rule="evenodd" clip-rule="evenodd" d="M122.746 302.919C129.039 301.687 137.197 298.67 145.103 290.723L150.096 298.765C145.058 306.694 137.301 313.873 129.653 315.035C123.626 315.95 119.205 308.493 122.746 302.919Z" fill="#403F63"/>
<path fill-rule="evenodd" clip-rule="evenodd" d="M133.594 315.295C140.6 315.911 151.456 311.671 166.163 302.576C171.584 310.8 174.469 316.842 174.819 320.704C162.624 330.996 151.629 336.606 142.123 338.59C143.487 344.797 143.806 350.883 142.412 356.754C139.546 368.824 109.916 363.578 100.889 367.34C91.4529 347.338 101.352 336.686 99.0782 323.195C96.5886 308.421 103.466 283.714 105.044 283.424L119.433 280.78C122.136 291.915 128.236 303.614 133.594 315.295Z" fill="#403F63"/>
<path d="M292.5 262.189C292.5 275.207 283.087 285.661 271.59 285.661C260.094 285.661 250.68 275.207 250.68 262.189C250.68 249.171 260.094 238.717 271.59 238.717C283.087 238.717 292.5 249.171 292.5 262.189Z" fill="white" fill-opacity="0.3" stroke="#C4C4C4"/>
<g clip-path="url(#clip0)">
<path d="M277.098 248.49H266.082C262.496 248.49 259.58 251.679 259.58 255.598V267.639C259.58 271.558 262.496 274.746 266.082 274.746H277.098C280.684 274.746 283.6 271.558 283.6 267.639V255.598C283.6 251.679 280.684 248.49 277.098 248.49V248.49ZM282.192 267.639C282.192 270.709 279.907 273.207 277.098 273.207H266.082C263.273 273.207 260.988 270.709 260.988 267.639V255.598C260.988 252.527 263.273 250.03 266.082 250.03H277.098C279.907 250.03 282.192 252.527 282.192 255.598V267.639Z" fill="#AF67B8"/>
<path d="M271.59 254.439C267.968 254.439 265.022 257.66 265.022 261.618C265.022 265.577 267.968 268.797 271.59 268.797C275.212 268.797 278.158 265.577 278.158 261.618C278.158 257.66 275.212 254.439 271.59 254.439V254.439ZM271.59 267.258C268.745 267.258 266.43 264.728 266.43 261.618C266.43 258.509 268.745 255.978 271.59 255.978C274.435 255.978 276.75 258.509 276.75 261.618C276.75 264.728 274.435 267.258 271.59 267.258V267.258Z" fill="#AF67B8"/>
<path d="M278.315 251.89C277.245 251.89 276.374 252.841 276.374 254.011C276.374 255.181 277.245 256.132 278.315 256.132C279.385 256.132 280.256 255.181 280.256 254.011C280.256 252.841 279.385 251.89 278.315 251.89ZM278.315 254.593C278.022 254.593 277.783 254.332 277.783 254.011C277.783 253.69 278.022 253.429 278.315 253.429C278.609 253.429 278.848 253.69 278.848 254.011C278.848 254.332 278.609 254.593 278.315 254.593Z" fill="#AF67B8"/>
</g>
<path d="M244.795 133.73C244.795 148.272 234.313 159.959 221.501 159.959C208.69 159.959 198.207 148.272 198.207 133.73C198.207 119.187 208.69 107.5 221.501 107.5C234.313 107.5 244.795 119.187 244.795 133.73Z" fill="white" fill-opacity="0.3" stroke="#C4C4C4"/>
<g clip-path="url(#clip1)">
<path d="M218.047 150.346C215.93 150.346 213.934 149.607 212.274 148.21C211.963 147.95 211.665 147.665 211.387 147.364C209.449 145.271 208.474 142.483 208.641 139.513C208.768 137.269 209.595 135.105 210.971 133.421C212.794 131.19 215.307 129.962 218.048 129.962C218.519 129.962 218.994 130 219.462 130.076L220.189 130.194V137.246L219.07 136.842C218.744 136.724 218.404 136.664 218.061 136.664C217.195 136.664 216.383 137.035 215.776 137.709C215.171 138.38 214.846 139.266 214.858 140.207C214.875 141.419 215.459 142.518 216.422 143.148C216.865 143.437 217.369 143.606 217.881 143.637C218.286 143.662 218.685 143.604 219.069 143.465C220.382 142.992 221.264 141.661 221.264 140.154L221.269 132.84V118.559H227.436L227.443 119.481C227.446 119.899 227.486 120.317 227.559 120.722C227.849 122.314 228.666 123.732 229.859 124.716C230.919 125.589 232.183 126.05 233.514 126.05C233.546 126.05 233.546 126.05 233.83 126.072L234.622 126.133V131.845V132.776L234.338 132.775H233.772C233.768 132.775 233.763 132.775 233.758 132.775H233.486C233.485 132.775 233.483 132.775 233.481 132.775C231.839 132.775 230.301 132.433 228.776 131.73C228.321 131.52 227.879 131.28 227.452 131.013L227.471 140.189C227.461 142.904 226.479 145.45 224.708 147.364C223.27 148.916 221.456 149.908 219.461 150.231C218.996 150.307 218.52 150.346 218.047 150.346V150.346ZM218.047 131.824C215.799 131.824 213.737 132.832 212.242 134.661C211.119 136.035 210.445 137.799 210.341 139.627C210.205 142.052 211.001 144.329 212.584 146.039C212.813 146.286 213.058 146.52 213.312 146.734C214.672 147.878 216.31 148.483 218.047 148.483C218.437 148.483 218.828 148.451 219.212 148.389C220.846 148.125 222.332 147.312 223.51 146.039C224.957 144.476 225.759 142.398 225.767 140.188L225.741 127.375L227.117 128.535C227.828 129.134 228.609 129.632 229.439 130.015C230.573 130.538 231.717 130.829 232.918 130.898V127.89C231.433 127.768 230.031 127.192 228.833 126.204C227.305 124.945 226.259 123.127 225.888 121.086C225.848 120.867 225.816 120.645 225.792 120.422H222.973V132.841L222.967 140.155C222.967 142.466 221.615 144.507 219.603 145.234C219.016 145.445 218.406 145.533 217.788 145.497C217 145.45 216.226 145.19 215.546 144.746C214.073 143.783 213.179 142.096 213.154 140.234C213.135 138.791 213.634 137.43 214.561 136.402C215.491 135.37 216.733 134.802 218.06 134.802C218.202 134.802 218.343 134.809 218.484 134.822V131.837C218.339 131.829 218.193 131.824 218.047 131.824V131.824Z" fill="#B166B8"/>
</g>
<path d="M53.1222 188.634C53.1222 199.989 45.004 209.084 35.1159 209.084C25.2277 209.084 17.1095 199.989 17.1095 188.634C17.1095 177.28 25.2277 168.184 35.1159 168.184C45.004 168.184 53.1222 177.28 53.1222 188.634Z" fill="white" fill-opacity="0.3" stroke="#C4C4C4"/>
<g clip-path="url(#clip2)">
<path d="M45.6908 182.156C44.4435 182.219 44.4707 182.214 44.3297 182.227L45.0684 179.921C45.0684 179.921 42.7627 180.848 42.1781 181.014C40.643 179.506 38.3611 179.439 36.7297 180.535C35.3938 181.433 34.6767 182.974 34.9159 184.776C32.3159 184.382 30.1252 183.035 28.3957 180.764L27.8487 180.046L27.4399 180.866C26.9233 181.903 26.7518 183.088 26.9567 184.204C27.0408 184.661 27.1838 185.098 27.3818 185.507L26.9126 185.308L26.8569 186.165C26.8005 187.036 27.0657 188.052 27.5664 188.883C27.7074 189.117 27.8889 189.374 28.119 189.628L27.8765 189.587L28.1724 190.569C28.5613 191.86 29.3692 192.858 30.4175 193.413C29.3705 193.898 28.5247 194.208 27.1345 194.708L25.8625 195.165L27.0374 195.867C27.4853 196.135 29.0681 197.029 30.632 197.297C34.1084 197.893 38.0224 197.408 40.6573 194.814C42.8767 192.629 43.605 189.521 43.4537 186.287C43.4309 185.798 43.5535 185.33 43.7992 184.972C44.2913 184.254 45.6878 182.161 45.6908 182.156V182.156ZM42.8702 184.211C42.4622 184.807 42.2578 185.567 42.2945 186.352C42.4471 189.614 41.635 192.144 39.8807 193.871C37.8313 195.889 34.5258 196.68 30.8119 196.044C30.1393 195.928 29.4442 195.67 28.8689 195.412C30.0345 194.974 30.9346 194.583 32.3882 193.831L34.4174 192.782L32.177 192.625C31.1039 192.55 30.2103 191.981 29.661 191.058C29.9526 191.04 30.2339 190.988 30.5139 190.903L32.6507 190.252L30.496 189.676C29.449 189.395 28.8522 188.711 28.5359 188.186C28.3282 187.84 28.1925 187.487 28.1111 187.161C28.3272 187.224 28.579 187.27 28.9852 187.313L30.9795 187.529L29.3994 186.182C28.2609 185.211 27.8046 183.753 28.1391 182.351C31.6923 186.379 35.8643 186.077 36.2842 186.183C36.1918 185.202 36.1894 185.199 36.1651 185.106C35.6274 183.028 36.806 181.973 37.3375 181.616C38.4479 180.87 40.2105 180.758 41.4313 181.986C41.6949 182.252 42.0515 182.356 42.3852 182.265C42.6848 182.184 42.9306 182.098 43.1713 182.004L42.6702 183.568L43.3098 183.568C43.1891 183.745 43.0443 183.957 42.8702 184.211Z" fill="#B166B8"/>
</g>
<path d="M114.526 155.307C117.414 153.792 120.735 153.594 123.757 154.756C126.779 155.918 129.256 158.344 130.641 161.501" stroke="#48B4C7" stroke-linecap="round" stroke-linejoin="round"/>
<path d="M110.463 146.047C115.598 143.355 121.502 143.003 126.874 145.069C132.247 147.134 136.649 151.448 139.112 157.06" stroke="#48B4C7" stroke-linecap="round" stroke-linejoin="round"/>
<path d="M120.96 166.576C121.628 166.226 121.91 165.35 121.589 164.619C121.269 163.889 120.467 163.581 119.799 163.931C119.131 164.281 118.849 165.158 119.169 165.888C119.49 166.619 120.291 166.927 120.96 166.576Z" stroke="#48B4C7" stroke-linecap="round" stroke-linejoin="round"/>
<path d="M225.247 350.3C227.07 347.42 229.865 345.45 233.017 344.823C236.169 344.196 239.419 344.963 242.054 346.956" stroke="#48B4C7" stroke-linecap="round" stroke-linejoin="round"/>
<path d="M217.522 344.457C220.762 339.338 225.731 335.835 231.334 334.72C236.937 333.605 242.716 334.969 247.4 338.511" stroke="#48B4C7" stroke-linecap="round" stroke-linejoin="round"/>
<path d="M235.944 356.606C236.366 355.94 236.214 355.026 235.604 354.565C234.995 354.104 234.159 354.27 233.737 354.937C233.315 355.603 233.467 356.517 234.077 356.978C234.686 357.439 235.522 357.272 235.944 356.606Z" stroke="#48B4C7" stroke-linecap="round" stroke-linejoin="round"/>
<path d="M28.3358 344.734C31.0403 342.857 34.3162 342.231 37.4428 342.994C40.5695 343.757 43.2908 345.846 45.008 348.802" stroke="url(#paint0_linear)" stroke-linecap="round" stroke-linejoin="round"/>
<path d="M23.2997 336.065C28.1076 332.728 33.9314 331.615 39.4899 332.972C45.0484 334.328 49.8862 338.042 52.9392 343.298" stroke="url(#paint1_linear)" stroke-linecap="round" stroke-linejoin="round"/>
<path d="M35.9439 355.093C36.5696 354.659 36.7548 353.752 36.3574 353.068C35.9601 352.385 35.1307 352.182 34.505 352.616C33.8792 353.051 33.6941 353.957 34.0914 354.641C34.4887 355.325 35.3181 355.528 35.9439 355.093Z" stroke="url(#paint2_linear)" stroke-linecap="round" stroke-linejoin="round"/>
<rect x="0.442203" y="0.561091" width="78.419" height="49.6439" rx="2.5" transform="matrix(0.991779 0.127964 -0.107373 0.994219 145.781 230.979)" stroke="#C4C4C4"/>
<rect x="0.442203" y="0.561091" width="67.8298" height="36.5745" rx="2.5" transform="matrix(0.991779 0.127964 -0.107373 0.994219 150.331 238.154)" stroke="#C4C4C4"/>
<rect width="112.51" height="12.8832" rx="3" transform="matrix(0.991779 0.127964 -0.107373 0.994219 125.383 271.415)" fill="#C4C4C4"/>
<rect width="27.7967" height="6.5347" transform="matrix(0.991779 0.127964 -0.107373 0.994219 167.061 279.899)" fill="#48B4C7"/>
<path d="M172.639 266.773L183.235 251.8L189.862 269.196L172.639 266.773Z" stroke="url(#paint3_linear)"/>
<path d="M181.839 260.644L182.949 260.795L183.553 255.68L182.443 255.53L181.839 260.644ZM181.559 262.675L182.768 262.838L182.917 261.577L181.708 261.413L181.559 262.675Z" fill="white"/>
<path d="M181.839 260.644L180.848 260.51L180.731 261.503L181.722 261.637L181.839 260.644ZM182.949 260.795L182.832 261.788L183.823 261.922L183.94 260.929L182.949 260.795ZM183.553 255.68L184.544 255.814L184.661 254.821L183.67 254.687L183.553 255.68ZM182.443 255.53L182.561 254.537L181.57 254.402L181.452 255.395L182.443 255.53ZM181.559 262.675L180.568 262.54L180.451 263.533L181.442 263.668L181.559 262.675ZM182.768 262.838L182.651 263.832L183.642 263.966L183.759 262.973L182.768 262.838ZM182.917 261.577L183.908 261.711L184.025 260.718L183.034 260.584L182.917 261.577ZM181.708 261.413L181.825 260.42L180.834 260.286L180.717 261.279L181.708 261.413ZM181.722 261.637L182.832 261.788L183.066 259.801L181.956 259.651L181.722 261.637ZM183.94 260.929L184.544 255.814L182.562 255.546L181.958 260.66L183.94 260.929ZM183.67 254.687L182.561 254.537L182.326 256.523L183.436 256.673L183.67 254.687ZM181.452 255.395L180.848 260.51L182.83 260.778L183.434 255.664L181.452 255.395ZM181.442 263.668L182.651 263.832L182.885 261.845L181.676 261.682L181.442 263.668ZM183.759 262.973L183.908 261.711L181.926 261.443L181.777 262.704L183.759 262.973ZM183.034 260.584L181.825 260.42L181.591 262.406L182.8 262.57L183.034 260.584ZM180.717 261.279L180.568 262.54L182.55 262.809L182.699 261.548L180.717 261.279Z" fill="url(#paint4_linear)"/>
<rect x="1" y="96" width="319" height="398" fill="white" fill-opacity="0.8"/>
<path fill-rule="evenodd" clip-rule="evenodd" d="M57.7928 1.0871C68.5823 3.39255 75.7035 13.6641 85.85 18.0092C96.1798 22.4327 109.297 19.719 117.985 26.8632C126.674 34.0083 132.292 45.4956 132.961 56.7505C133.627 67.9396 125.547 77.5081 121.622 88.002C118.494 96.3665 115.445 104.451 112.035 112.704C108.223 121.931 106.436 132.074 100.198 139.856C93.3344 148.417 84.3167 155.022 74.3919 159.659C63.3743 164.806 50.2138 173.779 39.3696 168.274C27.2607 162.126 30.1358 142.28 20.7625 132.431C13.5019 124.801 -1.76414 127.954 -7.44741 119.078C-13.0591 110.314 -7.68313 98.5828 -7.58093 88.165C-7.48837 78.73 -7.50876 69.5907 -6.86957 60.1772C-6.08504 48.6231 -8.971 36.1138 -3.35954 25.9952C2.29119 15.8057 13.0958 9.14835 23.8609 4.76361C34.5189 0.42246 46.5429 -1.31674 57.7928 1.0871Z" fill="#ECFCFF"/>
<defs>
<linearGradient id="paint0_linear" x1="33.4344" y1="341.195" x2="40.7603" y2="351.75" gradientUnits="userSpaceOnUse">
<stop stop-color="#48B4C7"/>
<stop offset="1" stop-color="#8B078D" stop-opacity="0.62"/>
</linearGradient>
<linearGradient id="paint1_linear" x1="32.3638" y1="329.774" x2="45.3877" y2="348.539" gradientUnits="userSpaceOnUse">
<stop stop-color="#48B4C7"/>
<stop offset="1" stop-color="#8B078D" stop-opacity="0.62"/>
</linearGradient>
<linearGradient id="paint2_linear" x1="34.505" y1="352.616" x2="36.1329" y2="354.962" gradientUnits="userSpaceOnUse">
<stop stop-color="#48B4C7"/>
<stop offset="1" stop-color="#8B078D" stop-opacity="0.62"/>
</linearGradient>
<linearGradient id="paint3_linear" x1="183.364" y1="250.745" x2="180.046" y2="274.333" gradientUnits="userSpaceOnUse">
<stop stop-color="#15137A"/>
<stop offset="1" stop-color="#8B078D" stop-opacity="0.62"/>
</linearGradient>
<linearGradient id="paint4_linear" x1="183.219" y1="253.819" x2="180.7" y2="272.41" gradientUnits="userSpaceOnUse">
<stop stop-color="#15137A"/>
<stop offset="1" stop-color="#8B078D" stop-opacity="0.62"/>
</linearGradient>
<clipPath id="clip0">
<rect width="24.0209" height="26.2554" fill="white" transform="translate(259.58 248.49)"/>
</clipPath>
<clipPath id="clip1">
<rect width="29.0814" height="31.7867" fill="white" transform="translate(206.961 118.559)"/>
</clipPath>
<clipPath id="clip2">
<rect width="19.8282" height="21.6727" fill="white" transform="translate(25.8625 177.798)"/>
</clipPath>
</defs>
</svg>
