<svg width="269" height="196" viewBox="0 0 269 196" fill="none" xmlns="http://www.w3.org/2000/svg">
<path fill-rule="evenodd" clip-rule="evenodd" d="M98.9056 55.204C96.2621 53.4568 94.1057 51.0028 93.4099 47.756C91.4052 38.4013 104.751 36.7321 108.57 40.6428C112.39 44.5534 115.485 56.3771 112.515 58.1309C111.331 58.8304 108.371 58.8097 105.114 57.9387L110.414 69.756L100.131 72.7257L98.9056 55.204Z" fill="#B28B67"/>
<path fill-rule="evenodd" clip-rule="evenodd" d="M110.141 42.4402C109.866 41.8698 109.425 41.2755 109.06 40.766C108.59 40.1092 108.008 39.5628 107.397 39.0657C106.247 38.1297 104.968 37.3541 103.639 36.7875C101.212 35.7525 98.4443 35.5505 96.072 36.5608C94.8743 37.0709 93.8058 37.8925 93.0077 38.977C92.2866 39.9568 91.6979 41.2627 90.5196 41.6846C89.2374 42.1436 87.7076 41.3368 86.4548 40.9274C85.0423 40.466 83.6173 40.244 82.1716 40.4153C79.7498 40.7023 77.8036 42.1107 76.7581 44.4676C75.6456 46.9757 75.268 50.2917 77.1538 52.6445C77.5043 53.0819 77.8916 53.4241 78.3741 53.6611C78.8165 53.8785 79.4497 54.0628 79.7387 54.5307C80.0459 55.0281 79.7966 55.8563 79.7628 56.3949C79.7144 57.1667 79.7207 57.9602 80.0134 58.6993C80.4941 59.9131 81.6229 60.8783 82.6883 61.4596C83.7725 62.0511 84.9484 62.2303 86.1204 62.1309C86.903 62.0646 87.6828 61.9275 88.4189 61.6549C88.7843 61.5197 89.0838 61.3208 89.4217 61.1338C89.7503 60.952 89.9739 60.9887 90.3281 61.0954C91.9734 61.5913 93.5644 61.5075 95.1268 60.9119C96.4454 60.4091 97.9082 59.6319 98.743 58.3878C99.6701 57.0061 99.2363 55.5954 98.5108 54.1638C98.8596 54.2269 99.7309 54.0767 99.0523 53.6196C98.7835 53.4385 98.3778 53.4504 98.0808 53.384C97.735 53.3068 97.3708 53.183 97.0619 52.9833C95.8147 52.1768 96.1273 49.712 97.1997 49.011C98.793 47.9695 99.8985 50.3289 101.331 50.608C102.155 50.7685 102.76 50.0491 103.15 49.3806C103.671 48.4851 103.899 47.4326 104.055 46.3834C104.184 45.5193 104.285 44.6515 104.422 43.7892C104.485 43.3866 104.771 42.2179 104.366 41.9003C105.546 41.2889 107.091 41.4065 108.367 41.7774C108.894 41.9308 109.324 42.1436 109.705 42.573C109.787 42.665 109.99 42.9502 110.133 42.923C110.399 42.8723 110.21 42.5835 110.141 42.4402Z" fill="#191847"/>
<path fill-rule="evenodd" clip-rule="evenodd" d="M161.807 90.1829C163.446 86.2509 170.05 84.8836 171.907 87.4107C177.465 94.972 196.811 135.654 198.109 138.17C199.408 140.686 195.991 144.122 193.675 141.45C189.99 137.198 177.806 122.057 173.137 114.333C171.21 111.144 169.409 108.083 167.83 105.331C169.027 114.53 170.326 128.006 171.727 145.76L166.233 146.912C161.622 133.898 158.736 124.44 157.572 118.536C155.581 108.428 154.163 99.5604 153.891 96.269C153.463 91.0915 158.2 89.5166 161.807 90.1829Z" fill="#B28B67"/>
<path fill-rule="evenodd" clip-rule="evenodd" d="M162.174 140.789L151.649 96.971C151.022 89.0434 165.32 88.6022 166.492 92.6049C169.151 101.692 172.925 134.676 173.718 137.384L162.174 140.789Z" fill="#1F28CF"/>
<path fill-rule="evenodd" clip-rule="evenodd" d="M164.19 145.165C163.844 146.536 163.708 147.548 163.781 148.202C163.87 148.996 164.133 150.141 164.568 151.636C165.49 151.532 173.774 150.604 189.42 148.851C189.827 146.644 189.325 145.533 187.914 145.519C186.504 145.505 185.331 145.48 184.395 145.446L172.267 141.591C172.034 141.517 171.784 141.646 171.71 141.879C171.709 141.883 171.708 141.887 171.707 141.891L171.166 143.775C169.945 144.521 168.932 144.938 168.127 145.029C167.472 145.102 166.539 144.939 165.327 144.539L165.327 144.539C164.862 144.386 164.361 144.639 164.207 145.104C164.201 145.124 164.195 145.144 164.19 145.165Z" fill="#E4E4E4"/>
<path fill-rule="evenodd" clip-rule="evenodd" d="M191.437 140.304C191.823 141.664 192.211 142.609 192.601 143.138C193.076 143.781 193.875 144.642 195 145.718C195.746 145.168 202.456 140.222 215.13 130.881C214.378 128.766 213.388 128.055 212.16 128.748C210.931 129.441 209.903 130.006 209.076 130.445L196.645 133.17C196.406 133.222 196.254 133.459 196.307 133.698C196.308 133.702 196.309 133.706 196.31 133.71L196.783 135.612C196.099 136.868 195.43 137.736 194.778 138.217C194.248 138.608 193.358 138.933 192.109 139.193L192.109 139.193C191.63 139.293 191.322 139.763 191.422 140.242C191.426 140.263 191.431 140.283 191.437 140.304Z" fill="#E4E4E4"/>
<path fill-rule="evenodd" clip-rule="evenodd" d="M174.789 89.2498C181.777 98.7318 193.576 124.168 195.112 126.258L185.429 133.407C172.301 112.626 165.453 102.281 164.884 102.373C164.03 102.51 141.346 123.533 133.926 129.002C123.226 136.888 113.827 133.403 104.255 121.169L125.451 105.547C130.107 102.828 155.964 90.7771 165.474 86.1762C169.546 84.2065 172.864 86.6378 174.789 89.2498Z" fill="#2B44FF"/>
<path fill-rule="evenodd" clip-rule="evenodd" d="M142.808 84.6975L160.427 75.4935C163.391 72.0962 166.298 69.4717 169.149 67.6202C170.015 67.2789 171.524 67.0952 170.071 69.5742C168.619 72.0532 167.202 74.727 167.905 75.5175C168.607 76.308 170.415 75.2686 171.246 76.5741C171.801 77.4445 168.723 78.7275 162.011 80.4232L149.124 91.8015L142.808 84.6975ZM86.144 109.96L96.4347 106.296C94.3029 135.715 93.2112 151.109 93.1595 152.479C93.0433 155.562 96.8182 158.833 98.5945 160.681C95.9098 163.267 94.3397 157.84 90.9789 161.173C87.9113 164.216 86.2272 168.332 81.0226 167.239C80.3827 167.105 79.3709 166.095 80.4145 164.646C83.0145 161.034 86.4975 155.097 86.6784 153.49C86.925 151.3 86.7469 136.79 86.144 109.96Z" fill="#997659"/>
<path fill-rule="evenodd" clip-rule="evenodd" d="M102.55 67.2237L110.789 64.8605C119.231 82.075 134.105 89.5101 156.891 76.9687L168.42 98.8997C146.884 109.958 123.816 108.052 110.934 85.0298C107.599 79.0701 104.393 72.7728 102.55 67.2237Z" fill="#48B4C7"/>
<path fill-rule="evenodd" clip-rule="evenodd" d="M97.737 66.3149L110.934 64.7143C118.49 85.683 129.989 96.6546 138.97 110.837L106.045 122.7C107.5 128.195 109.188 133.773 111.066 139.45L86.4126 148.332C81.2892 116.595 84.7948 89.3499 96.9295 66.5974L97.7279 66.3097L97.737 66.3149Z" fill="#48B4C7"/>
<path fill-rule="evenodd" clip-rule="evenodd" d="M100.461 90.9141C104.32 104.286 108.412 114.078 112.737 120.289L106.045 122.7C103.161 111.816 101.19 101.261 100.461 90.9141L100.461 90.9141Z" fill="#469DAB"/>
<path d="M1.00007 71.7223C0.991278 75.0953 1.77934 78.4226 3.30007 81.4334C5.10318 85.0411 7.87514 88.0757 11.3055 90.1971C14.7358 92.3184 18.689 93.4429 22.7223 93.4444C26.0953 93.4532 29.4226 92.6652 32.4334 91.1445L47 96L42.1445 81.4334C43.6652 78.4226 44.4532 75.0953 44.4444 71.7223C44.4429 67.689 43.3184 63.7358 41.1971 60.3055C39.0757 56.8751 36.0411 54.1032 32.4334 52.3001C29.4226 50.7793 26.0953 49.9913 22.7223 50.0001H21.4445C16.1178 50.2939 11.0867 52.5422 7.31448 56.3145C3.54224 60.0867 1.29394 65.1178 1.00007 70.4445V71.7223Z" stroke="#E8F3F4" stroke-width="2" stroke-linecap="round" stroke-linejoin="round"/>
<path d="M268 93.9445C268.007 96.7309 267.356 99.4796 266.1 101.967C264.61 104.947 262.321 107.454 259.487 109.206C256.653 110.959 253.387 111.888 250.056 111.889C247.269 111.896 244.52 111.245 242.033 109.989L230 114L234.011 101.967C232.755 99.4796 232.104 96.7309 232.111 93.9445C232.112 90.6126 233.041 87.347 234.794 84.5132C236.546 81.6795 239.053 79.3896 242.033 77.9001C244.52 76.6438 247.269 75.9928 250.056 76.0001H251.111C255.511 76.2428 259.667 78.1001 262.784 81.2163C265.9 84.3325 267.757 88.4886 268 92.8889V93.9445Z" stroke="#E8F3F4" stroke-width="2" stroke-linecap="round" stroke-linejoin="round"/>
<path d="M190 18C190.007 20.6398 189.39 23.2438 188.2 25.6C186.789 28.4235 184.619 30.7984 181.935 32.4586C179.25 34.1188 176.156 34.9988 173 35C170.36 35.0069 167.756 34.3901 165.4 33.2L154 37L157.8 25.6C156.61 23.2438 155.993 20.6398 156 18C156.001 14.8435 156.881 11.7497 158.541 9.06514C160.202 6.38055 162.576 4.21119 165.4 2.80005C167.756 1.60992 170.36 0.993174 173 1.00006H174C178.169 1.23004 182.106 2.98958 185.058 5.94177C188.01 8.89396 189.77 12.8313 190 17V18Z" stroke="#E8F3F4" stroke-width="2" stroke-linecap="round" stroke-linejoin="round"/>
<path d="M167.396 20H169.142V18.092H167.396V20ZM171.615 20H173.361V18.092H171.615V20ZM175.833 20H177.579V18.092H175.833V20Z" fill="#48B4C7"/>
<path d="M245.396 95H247.142V93.092H245.396V95ZM249.615 95H251.361V93.092H249.615V95ZM253.833 95H255.579V93.092H253.833V95Z" fill="#48B4C7"/>
<path d="M18.3959 73H20.1419V71.092H18.3959V73ZM22.6146 73H24.3606V71.092H22.6146V73ZM26.8334 73H28.5794V71.092H26.8334V73Z" fill="#48B4C7"/>
</svg>
