<svg width="207" height="96" viewBox="0 0 207 96" fill="none" xmlns="http://www.w3.org/2000/svg">
<rect x="0.502363" y="0.499994" width="144.716" height="85.9201" rx="2.5" transform="matrix(1 4.3741e-09 0.00472631 0.999989 29.1408 5.60058e-06)" stroke="#48B4C7"/>
<rect x="1.00473" y="0.999989" width="124.287" height="62.4891" rx="2" transform="matrix(1 4.3741e-09 0.00472631 0.999989 38.906 11.2153)" stroke="#48B4C7" stroke-width="2"/>
<rect x="0.502363" y="0.499994" width="205.431" height="21.1114" rx="2.5" transform="matrix(1 7.3971e-09 0.00472631 0.999989 0.343645 73.2195)" fill="#48B4C7" stroke="#48B4C7"/>
<rect width="51.0006" height="7.72302" transform="matrix(1 4.3741e-09 0.00472631 0.999989 78.1028 82)" fill="#E8F3F4"/>
<path d="M152.5 59.8859C152.5 64.5384 148.898 68.2717 144.5 68.2717C140.102 68.2717 136.5 64.5384 136.5 59.8859C136.5 55.2333 140.102 51.5 144.5 51.5C148.898 51.5 152.5 55.2333 152.5 59.8859Z" fill="white" fill-opacity="0.3" stroke="#E8F3F4"/>
<g clip-path="url(#clip0)">
<path d="M146.687 54.8082H142.313C140.89 54.8082 139.732 55.99 139.732 57.4426V61.906C139.732 63.3586 140.89 64.5403 142.313 64.5403H146.687C148.11 64.5403 149.268 63.3586 149.268 61.906V57.4426C149.268 55.99 148.11 54.8082 146.687 54.8082V54.8082ZM148.709 61.906C148.709 63.044 147.802 63.9698 146.687 63.9698H142.313C141.198 63.9698 140.291 63.044 140.291 61.906V57.4426C140.291 56.3046 141.198 55.3788 142.313 55.3788H146.687C147.802 55.3788 148.709 56.3046 148.709 57.4426V61.906Z" fill="#48B4C7"/>
<path d="M144.5 57.0133C143.062 57.0133 141.892 58.207 141.892 59.6744C141.892 61.1417 143.062 62.3354 144.5 62.3354C145.938 62.3354 147.108 61.1417 147.108 59.6744C147.108 58.207 145.938 57.0133 144.5 57.0133ZM144.5 61.7649C143.37 61.7649 142.451 60.8271 142.451 59.6744C142.451 58.5217 143.37 57.5838 144.5 57.5838C145.63 57.5838 146.548 58.5217 146.548 59.6744C146.548 60.8271 145.63 61.7649 144.5 61.7649Z" fill="#48B4C7"/>
<path d="M147.17 56.0681C146.745 56.0681 146.399 56.4209 146.399 56.8544C146.399 57.288 146.745 57.6408 147.17 57.6408C147.595 57.6408 147.941 57.288 147.941 56.8544C147.941 56.4208 147.595 56.0681 147.17 56.0681ZM147.17 57.0702C147.053 57.0702 146.958 56.9734 146.958 56.8544C146.958 56.7354 147.053 56.6387 147.17 56.6387C147.287 56.6387 147.381 56.7354 147.381 56.8544C147.381 56.9734 147.287 57.0702 147.17 57.0702Z" fill="#48B4C7"/>
</g>
<path d="M71.5 50.5862C71.5 57.284 66.3291 62.6724 60 62.6724C53.6709 62.6724 48.5 57.284 48.5 50.5862C48.5 43.8884 53.6709 38.5 60 38.5C66.3291 38.5 71.5 43.8884 71.5 50.5862Z" fill="white" fill-opacity="0.3" stroke="#E8F3F4"/>
<g clip-path="url(#clip1)">
<path d="M58.258 58.4101C57.1904 58.4101 56.1835 58.0626 55.3462 57.4048C55.1898 57.282 55.0394 57.1479 54.899 57.0064C53.9216 56.0206 53.4298 54.7078 53.5143 53.3095C53.5782 52.2528 53.9952 51.234 54.6893 50.4409C55.6086 49.3905 56.8759 48.812 58.2583 48.812C58.4958 48.812 58.7355 48.8301 58.9716 48.8658L59.3383 48.9213V52.2419L58.7736 52.0516C58.6092 51.9961 58.4382 51.968 58.2652 51.968C57.828 51.968 57.4187 52.1428 57.1125 52.46C56.8077 52.7757 56.6435 53.1932 56.6498 53.6361C56.6582 54.207 56.9529 54.7244 57.4382 55.0209C57.6616 55.1571 57.916 55.2369 58.1744 55.2515C58.3783 55.2629 58.5797 55.2357 58.7734 55.1705C59.4354 54.9475 59.8802 54.3207 59.8802 53.6112L59.8831 50.1676V43.4427H62.9929L62.9966 43.8772C62.9983 44.0739 63.0181 44.2706 63.0553 44.4612C63.2014 45.2108 63.6134 45.8788 64.2152 46.3418C64.7495 46.7531 65.3871 46.9703 66.0586 46.9703C66.0743 46.9703 66.0743 46.9703 66.2178 46.9806L66.6174 47.0092V49.6987V50.1372L66.4742 50.1369H66.1886C66.1863 50.1369 66.184 50.1369 66.1815 50.1369H66.0442C66.0437 50.1369 66.0428 50.1369 66.042 50.1369C65.2138 50.1369 64.4378 49.9758 63.6686 49.6446C63.4395 49.5458 63.2163 49.4329 63.0009 49.3069L63.0107 53.6279C63.0055 54.906 62.5105 56.1048 61.617 57.0061C60.892 57.7372 59.9771 58.2043 58.971 58.3564C58.7364 58.392 58.4966 58.4101 58.258 58.4101ZM58.258 49.689C57.1239 49.689 56.0841 50.1635 55.3301 51.025C54.7641 51.6719 54.4238 52.5024 54.3716 53.3633C54.3029 54.5049 54.7045 55.5772 55.5029 56.3822C55.6183 56.4986 55.7418 56.6088 55.8701 56.7097C56.5559 57.2484 57.3817 57.5332 58.258 57.5332C58.4545 57.5332 58.6519 57.5182 58.8453 57.489C59.6694 57.3645 60.4191 56.9818 61.0132 56.3825C61.7431 55.6464 62.1473 54.668 62.1516 53.6273L62.1381 47.5939L62.8322 48.1402C63.1905 48.4223 63.5847 48.6568 64.0032 48.8372C64.5753 49.0836 65.1519 49.2204 65.7578 49.2528V47.8365C65.009 47.7792 64.3017 47.5076 63.6976 47.0425C62.927 46.4497 62.3996 45.5937 62.2123 44.6328C62.1922 44.5296 62.1759 44.4253 62.1639 44.32H60.7422V50.1678L60.7393 53.6115C60.7393 54.6999 60.0576 55.6611 59.0426 56.0031C58.7467 56.1028 58.4388 56.1443 58.1271 56.127C57.7301 56.1048 57.3394 55.9823 56.9967 55.7733C56.254 55.3199 55.8028 54.5256 55.7902 53.6489C55.7804 52.9696 56.0322 52.3288 56.4997 51.8444C56.9687 51.3585 57.5954 51.091 58.2646 51.091C58.3362 51.091 58.4073 51.0942 58.4783 51.1004V49.6951C58.405 49.6911 58.3314 49.689 58.258 49.689Z" fill="#48B4C7"/>
</g>
<path d="M139.5 29.5695C139.5 35.1572 135.221 39.639 130 39.639C124.779 39.639 120.5 35.1572 120.5 29.5695C120.5 23.9818 124.779 19.5 130 19.5C135.221 19.5 139.5 23.9818 139.5 29.5695Z" fill="white" fill-opacity="0.3" stroke="#E8F3F4"/>
<g clip-path="url(#clip2)">
<path d="M135.714 26.3013C135.04 26.333 135.055 26.3305 134.979 26.337L135.378 25.1737C135.378 25.1737 134.132 25.6414 133.816 25.7251C132.987 24.9642 131.754 24.9306 130.872 25.4835C130.15 25.9364 129.763 26.7141 129.892 27.6231C128.487 27.4242 127.303 26.7446 126.369 25.5989L126.073 25.2366L125.852 25.6505C125.573 26.1735 125.48 26.7716 125.591 27.3344C125.637 27.5653 125.714 27.7855 125.821 27.9918L125.567 27.8915L125.537 28.3239C125.507 28.7631 125.65 29.2758 125.921 29.6952C125.997 29.8133 126.095 29.943 126.219 30.071L126.088 30.0505L126.248 30.5459C126.458 31.1968 126.895 31.7004 127.461 31.9804C126.896 32.2254 126.439 32.3817 125.687 32.6339L125 32.8645L125.635 33.2187C125.877 33.3537 126.732 33.8048 127.577 33.9401C129.456 34.2407 131.571 33.9959 132.994 32.6873C134.194 31.5851 134.587 30.0172 134.505 28.3856C134.493 28.1386 134.559 27.9028 134.692 27.7219C134.958 27.3596 135.713 26.3038 135.714 26.3013ZM134.19 27.3382C133.97 27.6386 133.859 28.0222 133.879 28.4183C133.962 30.0641 133.523 31.3404 132.575 32.2116C131.467 33.2294 129.681 33.6289 127.674 33.3077C127.311 33.2495 126.935 33.1193 126.624 32.9893C127.254 32.7681 127.741 32.571 128.526 32.1916L129.623 31.662L128.412 31.5829C127.832 31.545 127.349 31.2582 127.052 30.7926C127.21 30.7832 127.362 30.7572 127.513 30.7142L128.668 30.386L127.504 30.095C126.938 29.9536 126.615 29.6082 126.445 29.3432C126.332 29.1691 126.259 28.9908 126.215 28.8264C126.332 28.8583 126.468 28.8811 126.687 28.9033L127.765 29.0121L126.911 28.3324C126.296 27.8427 126.049 27.107 126.23 26.3998C128.15 28.432 130.404 28.2793 130.631 28.333C130.581 27.8379 130.58 27.8368 130.567 27.7896C130.276 26.7413 130.913 26.209 131.201 26.0288C131.801 25.6525 132.753 25.5958 133.413 26.2158C133.555 26.3496 133.748 26.4022 133.928 26.3565C134.09 26.3154 134.223 26.272 134.353 26.2247L134.082 27.0137L134.428 27.0139C134.362 27.1032 134.284 27.21 134.19 27.3382Z" fill="#48B4C7"/>
</g>
<line x1="50.5" y1="12" x2="50.5" y2="73" stroke="#48B4C7"/>
<line x1="61.5" y1="12" x2="61.5" y2="73" stroke="#48B4C7"/>
<line x1="72.5" y1="12" x2="72.5" y2="73" stroke="#48B4C7"/>
<line x1="83.5" y1="12" x2="83.5" y2="73" stroke="#48B4C7"/>
<line x1="93.5" y1="12" x2="93.5" y2="73" stroke="#48B4C7"/>
<line x1="103.5" y1="12" x2="103.5" y2="73" stroke="#48B4C7"/>
<line x1="113.5" y1="12" x2="113.5" y2="73" stroke="#48B4C7"/>
<line x1="123.5" y1="12" x2="123.5" y2="73" stroke="#48B4C7"/>
<line x1="133.5" y1="12" x2="133.5" y2="73" stroke="#48B4C7"/>
<line x1="143.5" y1="12" x2="143.5" y2="73" stroke="#48B4C7"/>
<line x1="153.5" y1="12" x2="153.5" y2="73" stroke="#48B4C7"/>
<defs>
<clipPath id="clip0">
<rect width="9.53658" height="9.73213" fill="white" transform="translate(139.732 54.8082)"/>
</clipPath>
<clipPath id="clip1">
<rect width="14.6667" height="14.9674" fill="white" transform="translate(52.6666 43.4427)"/>
</clipPath>
<clipPath id="clip2">
<rect width="10.7143" height="10.934" fill="white" transform="translate(125 24.1025)"/>
</clipPath>
</defs>
</svg>
