<svg width="243" height="197" viewBox="0 0 243 197" fill="none" xmlns="http://www.w3.org/2000/svg">
<path fill-rule="evenodd" clip-rule="evenodd" d="M186.313 56.7536C188.804 55.2529 190.876 53.0851 191.639 50.1343C193.837 41.6322 181.662 39.5885 178.009 43.0282C174.356 46.4679 171.063 57.1924 173.719 58.915C174.778 59.6019 177.493 59.6967 180.514 59.023L175.2 69.657L184.516 72.7756L186.313 56.7536Z" fill="#CD9D81"/>
<path fill-rule="evenodd" clip-rule="evenodd" d="M186.402 58.8632C189.313 54.0528 193.831 51.6219 194.101 49.1266C194.281 47.463 193.699 46.1965 192.357 45.3271C192.626 41.9998 190.614 39.8726 186.32 38.9455C179.879 37.5548 175.225 38.865 174.963 45.088C176.467 45.5917 178.466 45.6557 180.666 47.4289C181.364 47.9915 181.626 49.0997 181.454 50.7535L182.589 51.1335C184.302 49.676 185.613 49.3685 186.522 50.211C187.431 51.0536 187.281 52.3109 186.072 53.9829L185.195 58.459L186.402 58.8632Z" fill="#191847"/>
<path fill-rule="evenodd" clip-rule="evenodd" d="M89.4757 146.288C100.257 139.504 107.755 134.309 111.969 130.703C119.183 124.528 125.273 118.924 127.347 116.698C132.294 111.392 123.861 105.309 120.753 107.516C116.048 110.856 104.505 122.459 86.1229 142.324L89.4757 146.288Z" fill="#CD9D81"/>
<path fill-rule="evenodd" clip-rule="evenodd" d="M106.068 148.82L132.313 117.736C137.547 112.22 124.274 102.999 121.017 105.291C113.623 110.495 92.4233 133.691 90.2203 135.242L106.068 148.82Z" fill="#2F3676"/>
<path fill-rule="evenodd" clip-rule="evenodd" d="M146.409 154.329C144.989 149.353 139.455 132.359 135.845 124.886C134.807 122.738 133.786 120.668 132.813 118.732C129.921 112.978 118.871 117.323 121.884 122.691C129.386 136.059 140.689 154.499 141.609 156.114C142.897 158.377 147.301 157.456 146.409 154.329Z" fill="#CD9D81"/>
<path fill-rule="evenodd" clip-rule="evenodd" d="M146.372 152.284C147.064 153.391 147.471 154.241 147.592 154.836C147.739 155.559 147.833 156.639 147.874 158.076C147.035 158.247 139.493 159.78 125.249 162.676C124.266 160.852 124.392 159.733 125.627 159.321C126.862 158.908 127.886 158.554 128.699 158.259L138.261 151.433C138.445 151.302 138.701 151.345 138.832 151.529C138.835 151.532 138.837 151.535 138.839 151.538L139.848 153.041C141.132 153.349 142.141 153.429 142.874 153.28C143.47 153.159 144.243 152.751 145.195 152.057L145.195 152.057C145.56 151.79 146.072 151.87 146.339 152.235C146.351 152.251 146.361 152.267 146.372 152.284Z" fill="#E4E4E4"/>
<path fill-rule="evenodd" clip-rule="evenodd" d="M93.2351 145.993C93.2813 147.298 93.2081 148.238 93.0154 148.813C92.7811 149.513 92.3225 150.496 91.6398 151.761C90.8277 151.489 83.5299 149.046 69.7462 144.431C69.807 142.36 70.4753 141.455 71.7513 141.715C73.0273 141.975 74.0909 142.181 74.9421 142.331L86.6366 141.201C86.8617 141.18 87.0617 141.345 87.0835 141.57C87.0838 141.573 87.0841 141.577 87.0844 141.581L87.2073 143.387C88.1649 144.296 88.9983 144.869 89.7078 145.107C90.2842 145.3 91.1582 145.334 92.3297 145.208L92.3297 145.208C92.7793 145.16 93.1828 145.485 93.231 145.935C93.2331 145.954 93.2344 145.974 93.2351 145.993Z" fill="#E4E4E4"/>
<path fill-rule="evenodd" clip-rule="evenodd" d="M136.838 121.242C149.322 123.276 157.693 124.612 161.951 125.249C174.087 127.065 179.493 122.017 182.022 107.9L160.907 100.832C157.843 100.703 144.497 101.785 120.869 104.078C116.556 104.676 115.433 110.32 115.511 112.329C115.515 112.411 118.173 125.182 123.487 150.643L144.443 145.421L136.372 122.528C136.25 121.65 136.406 121.222 136.838 121.242Z" fill="#5C63AB"/>
<path fill-rule="evenodd" clip-rule="evenodd" d="M145.588 90.0524L130.162 94.9998C126.5 94.7817 123.317 94.9699 120.613 95.5643C119.918 95.8711 118.946 96.638 121.21 97.2072C123.474 97.7763 125.83 98.4769 125.883 99.3317C125.935 100.187 124.298 100.64 124.574 101.862C124.757 102.676 127.265 101.627 132.096 98.7147L146.06 97.7349L145.588 90.0524ZM193.023 106.281L184.901 103.597C184.497 121.443 184.329 130.927 184.397 132.05C184.55 134.577 181.514 137.33 180.091 138.88C182.342 140.951 183.529 136.47 186.348 139.141C188.922 141.58 190.38 144.925 194.629 143.931C195.152 143.809 195.963 142.962 195.08 141.792C192.879 138.878 189.911 134.072 189.733 132.758C189.489 130.966 190.586 122.14 193.023 106.281Z" fill="#CD9D81"/>
<path fill-rule="evenodd" clip-rule="evenodd" d="M181.366 64.5261L178.202 62.8267C162.146 69.416 150.112 88.3716 131.182 94.21L133.331 99.9944C160.912 105.581 175.915 82.5681 181.366 64.5261Z" fill="#48B4C7"/>
<path fill-rule="evenodd" clip-rule="evenodd" d="M181.877 111.606C168.418 107.101 158.518 103.787 152.177 101.664C150.82 101.21 151.732 99.3356 152.259 98.4124C158.344 87.758 171.3 78.4147 176.739 62.1695L185.755 63.694C189.026 77.4621 186.779 92.3132 181.877 111.606Z" fill="#DDE3E9"/>
<path fill-rule="evenodd" clip-rule="evenodd" d="M192.702 78.4767C194.066 78.5355 195.33 78.0312 196.495 76.9637C201.518 72.362 201.429 68.8728 198.425 66.7301C195.421 64.5875 191.731 65.6947 186.4 63.9099C186.11 63.8128 185.838 63.7421 185.585 63.6977L182.852 62.953C166.428 86.4546 158.481 103.143 159.013 113.017L182.388 120.843C182.692 124.536 183.108 127.697 183.636 130.325L190.005 132.457C197.093 113.276 197.992 95.282 192.702 78.4767Z" fill="#48B4C7"/>
<path fill-rule="evenodd" clip-rule="evenodd" d="M181.782 105.746C178.987 111.651 176.298 115.715 173.714 117.938L182.388 120.843C182.034 116.535 181.832 111.502 181.782 105.746Z" fill="black" fill-opacity="0.1"/>
<path d="M46.9999 75.7223C47.0087 79.0953 46.2207 82.4226 44.6999 85.4334C42.8968 89.0411 40.1249 92.0757 36.6945 94.1971C33.2642 96.3184 29.311 97.4429 25.2777 97.4444C21.9047 97.4532 18.5774 96.6652 15.5666 95.1445L1 100L5.85555 85.4334C4.33482 82.4226 3.54676 79.0953 3.55555 75.7223C3.55711 71.689 4.68156 67.7358 6.80294 64.3055C8.92432 60.8751 11.9589 58.1032 15.5666 56.3001C18.5774 54.7793 21.9047 53.9913 25.2777 54.0001H26.5555C31.8822 54.2939 36.9133 56.5422 40.6855 60.3145C44.4578 64.0867 46.7061 69.1178 46.9999 74.4445V75.7223Z" stroke="#E8F3F4" stroke-width="2" stroke-linecap="round" stroke-linejoin="round"/>
<path d="M14.2918 77H17.7838V73.184H14.2918V77ZM22.7293 77H26.2213V73.184H22.7293V77ZM31.1668 77H34.6588V73.184H31.1668V77Z" fill="#48B4C7"/>
<path d="M101 59.7223C101.009 63.0953 100.221 66.4226 98.6999 69.4334C96.8968 73.0411 94.1249 76.0757 90.6945 78.1971C87.2642 80.3184 83.311 81.4429 79.2777 81.4444C75.9047 81.4532 72.5774 80.6652 69.5666 79.1445L55 84L59.8555 69.4334C58.3348 66.4226 57.5468 63.0953 57.5556 59.7223C57.5571 55.689 58.6816 51.7358 60.8029 48.3055C62.9243 44.8751 65.9589 42.1032 69.5666 40.3001C72.5774 38.7793 75.9047 37.9913 79.2777 38.0001H80.5555C85.8822 38.2939 90.9133 40.5422 94.6855 44.3145C98.4578 48.0867 100.706 53.1178 101 58.4445V59.7223Z" stroke="#E8F3F4" stroke-width="2" stroke-linecap="round" stroke-linejoin="round"/>
<path d="M68.2918 61H71.7838V57.184H68.2918V61ZM76.7293 61H80.2213V57.184H76.7293V61ZM85.1668 61H88.6588V57.184H85.1668V61Z" fill="#48B4C7"/>
<path d="M153 35C153.007 37.6398 152.39 40.2438 151.2 42.6C149.789 45.4235 147.619 47.7984 144.935 49.4586C142.25 51.1188 139.156 51.9988 136 52C133.36 52.0069 130.756 51.3901 128.4 50.2L117 54L120.8 42.6C119.61 40.2438 118.993 37.6398 119 35C119.001 31.8435 119.881 28.7497 121.541 26.0651C123.202 23.3805 125.576 21.2112 128.4 19.8001C130.756 18.6099 133.36 17.9932 136 18.0001H137C141.169 18.23 145.106 19.9896 148.058 22.9418C151.01 25.894 152.77 29.8313 153 34V35Z" stroke="#E8F3F4" stroke-width="2" stroke-linecap="round" stroke-linejoin="round"/>
<path d="M130.67 37.8729H127.996C127.447 37.8729 127 37.3552 127 36.7192V29.3902C127 28.7544 127.447 28.2371 127.996 28.2371H130.67C131.219 28.2371 131.666 28.7544 131.666 29.3902V36.7192C131.666 37.3552 131.219 37.8729 130.67 37.8729ZM127.996 29.077C127.943 29.077 127.84 29.199 127.84 29.3902V36.7192C127.84 36.9107 127.942 37.033 127.996 37.033H130.67C130.724 37.033 130.826 36.9104 130.826 36.7192V29.3902C130.826 29.1987 130.724 29.077 130.67 29.077H127.996Z" fill="#48B4C7"/>
<path d="M135.883 43.7625C135.041 43.7625 134.355 43.0774 134.355 42.2347C134.355 42.1779 134.359 42.1211 134.365 42.0637C134.355 42.0133 134.354 41.9621 134.365 41.9122C134.657 40.5737 134.049 39.0535 133.66 38.2668C133.626 38.1991 133.594 38.133 133.562 38.0733C133.503 38.0053 133.424 37.9594 133.334 37.9426H133.219C133.203 37.9426 133.177 37.9409 133.157 37.9384C132.519 37.9023 132.026 37.3844 132.026 36.7491V29.4303C132.026 28.7724 132.561 28.2371 133.219 28.2371H141.471C141.508 28.2371 141.543 28.2415 141.576 28.2502C142.349 28.3317 142.942 28.9823 142.942 29.7654C142.942 30.1865 142.771 30.5686 142.492 30.8452C142.804 31.1252 143 31.5308 143 31.9816C143 32.4175 142.817 32.8111 142.523 33.09C142.817 33.3683 143 33.7624 143 34.1984C143 34.6343 142.817 35.0279 142.523 35.3062C142.817 35.585 143 35.9787 143 36.4146C143 37.2573 142.315 37.9429 141.472 37.9429L137.942 37.9423C138.929 41.011 137.176 43.0688 137.097 43.16C137.095 43.1617 137.093 43.1634 137.092 43.1659C136.803 43.5399 136.354 43.7625 135.883 43.7625ZM135.212 41.9581C135.22 42.0029 135.22 42.0483 135.21 42.0931C135.2 42.1401 135.195 42.1877 135.195 42.2347C135.195 42.6141 135.504 42.9226 135.883 42.9226C136.104 42.9226 136.307 42.8182 136.439 42.6362C136.452 42.618 136.467 42.6007 136.483 42.5847C136.677 42.3453 138.113 40.4441 136.951 37.6853C136.897 37.5557 136.91 37.4076 136.988 37.2906C137.066 37.173 137.197 37.1024 137.338 37.1024H141.471C141.655 37.1024 141.828 37.0313 141.958 36.9011C142.088 36.771 142.159 36.5982 142.159 36.4146C142.159 36.0352 141.85 35.7261 141.471 35.7261C141.24 35.7261 141.051 35.538 141.051 35.3062C141.051 35.0744 141.24 34.8862 141.471 34.8862C141.85 34.8862 142.159 34.5777 142.159 34.1984C142.159 33.819 141.85 33.5099 141.471 33.5099C141.24 33.5099 141.051 33.3218 141.051 33.09C141.051 32.8582 141.24 32.67 141.471 32.67C141.85 32.67 142.159 32.3609 142.159 31.9816C142.159 31.6022 141.85 31.2937 141.471 31.2937C141.24 31.2937 141.051 31.1056 141.051 30.8738C141.051 30.6501 141.226 30.4603 141.45 30.4482C141.815 30.4292 142.102 30.1288 142.102 29.7654C142.102 29.4012 141.815 29.1016 141.45 29.0826C141.432 29.0814 141.416 29.0798 141.4 29.077H133.219C133.025 29.077 132.866 29.2354 132.866 29.4303V36.7494C132.866 36.9389 133.015 37.0932 133.206 37.1002C133.214 37.1008 133.227 37.1019 133.24 37.103H133.366C133.383 37.103 133.401 37.1041 133.419 37.1064C133.755 37.1495 134.051 37.3222 134.253 37.5935C134.266 37.6111 134.277 37.629 134.287 37.6481C134.327 37.7237 134.37 37.8068 134.413 37.8953C134.932 38.9446 135.482 40.4889 135.212 41.9581Z" fill="#48B4C7"/>
<path d="M85.9999 119.139C86.0093 122.732 85.1698 126.276 83.5499 129.483C81.6292 133.326 78.6765 136.559 75.0224 138.819C71.3684 141.078 67.1574 142.276 62.8611 142.278C59.2681 142.287 55.7237 141.448 52.5166 139.828L37 145L42.1722 129.483C40.5523 126.276 39.7128 122.732 39.7222 119.139C39.7239 114.843 40.9217 110.632 43.1814 106.978C45.4411 103.324 48.6736 100.371 52.5166 98.4501C55.7237 96.8302 59.2681 95.9907 62.8611 96.0001H64.2222C69.8962 96.3131 75.2554 98.708 79.2737 102.726C83.292 106.745 85.6869 112.104 85.9999 117.778V119.139Z" stroke="#E8F3F4" stroke-width="2" stroke-linecap="round" stroke-linejoin="round"/>
<path d="M44.3405 117.8C45.0845 117.8 45.6205 117.272 45.6205 116.528C45.6205 115.792 45.0925 115.264 44.3405 115.264C43.5885 115.264 43.0605 115.792 43.0605 116.528C43.0605 117.272 43.5885 117.8 44.3405 117.8ZM43.9325 121.032H44.6445L48.0445 115.392H47.3325L43.9325 121.032ZM44.3405 117.248C43.9325 117.248 43.6285 116.952 43.6285 116.528C43.6285 116.12 43.9325 115.816 44.3405 115.816C44.7565 115.816 45.0525 116.12 45.0525 116.528C45.0525 116.952 44.7565 117.248 44.3405 117.248ZM47.7485 121.048C48.5005 121.048 49.0285 120.528 49.0285 119.792C49.0285 119.056 48.5005 118.536 47.7485 118.536C47.0045 118.536 46.4765 119.056 46.4765 119.792C46.4765 120.528 47.0045 121.048 47.7485 121.048ZM47.7485 120.496C47.3405 120.496 47.0445 120.2 47.0445 119.792C47.0445 119.384 47.3405 119.088 47.7485 119.088C48.1645 119.088 48.4605 119.384 48.4605 119.792C48.4605 120.2 48.1645 120.496 47.7485 120.496ZM53.3053 115.56C51.1373 115.56 49.6333 116.976 49.6333 119.032C49.6333 121.056 51.0653 122.464 53.1133 122.464C53.6333 122.464 54.1613 122.344 54.6093 122.12V121.584C54.2253 121.808 53.6973 121.936 53.1773 121.936C51.3932 121.936 50.1853 120.76 50.1853 119.032C50.1853 117.288 51.4733 116.08 53.3212 116.08C55.1693 116.08 56.4413 117.272 56.4413 118.984C56.4413 119.728 56.1133 120.248 55.6333 120.248C55.2573 120.248 54.9933 119.944 54.9933 119.512V117.4H54.6333L54.5373 117.872C54.2253 117.464 53.7453 117.224 53.1773 117.224C52.1453 117.224 51.3853 118 51.3853 119.04C51.3853 120.08 52.1453 120.856 53.1773 120.856C53.7853 120.856 54.2973 120.576 54.6013 120.12C54.7613 120.512 55.1453 120.768 55.6093 120.768C56.4173 120.768 56.9773 120.032 56.9773 118.984C56.9773 116.96 55.4813 115.56 53.3053 115.56ZM53.2173 120.28C52.5133 120.28 51.9933 119.752 51.9933 119.032C51.9933 118.328 52.5133 117.792 53.2173 117.792C53.9373 117.792 54.4493 118.312 54.4493 119.032C54.4493 119.76 53.9373 120.28 53.2173 120.28ZM61.567 119.472C61.567 118.32 60.607 118.096 59.751 117.904C59.071 117.744 58.463 117.6 58.463 117.024C58.463 116.504 58.959 116.2 59.607 116.2C60.263 116.2 60.743 116.568 60.743 117.208H61.415C61.415 116.288 60.863 115.672 59.919 115.568V114.952H59.327V115.56C58.383 115.656 57.783 116.2 57.783 117.048C57.783 118.168 58.727 118.376 59.559 118.56C60.255 118.72 60.879 118.856 60.879 119.48C60.879 120.04 60.343 120.408 59.663 120.408C58.919 120.408 58.375 120.008 58.375 119.312H57.687C57.687 120.312 58.311 120.968 59.391 121.064V121.712H59.959V121.064C60.943 120.96 61.567 120.352 61.567 119.472ZM62.6506 119.464H63.3386V115.24H62.6506V119.464ZM62.6106 121H63.3866V120.152H62.6106V121ZM65.6374 117.8C66.3814 117.8 66.9174 117.272 66.9174 116.528C66.9174 115.792 66.3894 115.264 65.6374 115.264C64.8854 115.264 64.3574 115.792 64.3574 116.528C64.3574 117.272 64.8854 117.8 65.6374 117.8ZM65.2294 121.032H65.9414L69.3414 115.392H68.6294L65.2294 121.032ZM65.6374 117.248C65.2294 117.248 64.9254 116.952 64.9254 116.528C64.9254 116.12 65.2294 115.816 65.6374 115.816C66.0534 115.816 66.3494 116.12 66.3494 116.528C66.3494 116.952 66.0534 117.248 65.6374 117.248ZM69.0454 121.048C69.7974 121.048 70.3254 120.528 70.3254 119.792C70.3254 119.056 69.7974 118.536 69.0454 118.536C68.3014 118.536 67.7734 119.056 67.7734 119.792C67.7734 120.528 68.3014 121.048 69.0454 121.048ZM69.0454 120.496C68.6374 120.496 68.3414 120.2 68.3414 119.792C68.3414 119.384 68.6374 119.088 69.0454 119.088C69.4614 119.088 69.7574 119.384 69.7574 119.792C69.7574 120.2 69.4614 120.496 69.0454 120.496ZM74.6021 115.56C72.4341 115.56 70.9301 116.976 70.9301 119.032C70.9301 121.056 72.3621 122.464 74.4101 122.464C74.9301 122.464 75.4581 122.344 75.9061 122.12V121.584C75.5221 121.808 74.9941 121.936 74.4741 121.936C72.6901 121.936 71.4821 120.76 71.4821 119.032C71.4821 117.288 72.7701 116.08 74.6181 116.08C76.4661 116.08 77.7381 117.272 77.7381 118.984C77.7381 119.728 77.4101 120.248 76.9301 120.248C76.5541 120.248 76.2901 119.944 76.2901 119.512V117.4H75.9301L75.8341 117.872C75.5221 117.464 75.0421 117.224 74.4741 117.224C73.4421 117.224 72.6821 118 72.6821 119.04C72.6821 120.08 73.4421 120.856 74.4741 120.856C75.0821 120.856 75.5941 120.576 75.8981 120.12C76.0581 120.512 76.4421 120.768 76.9061 120.768C77.7141 120.768 78.2741 120.032 78.2741 118.984C78.2741 116.96 76.7781 115.56 74.6021 115.56ZM74.5141 120.28C73.8101 120.28 73.2901 119.752 73.2901 119.032C73.2901 118.328 73.8101 117.792 74.5141 117.792C75.2341 117.792 75.7461 118.312 75.7461 119.032C75.7461 119.76 75.2341 120.28 74.5141 120.28ZM82.8639 119.472C82.8639 118.32 81.9039 118.096 81.0479 117.904C80.3679 117.744 79.7599 117.6 79.7599 117.024C79.7599 116.504 80.2559 116.2 80.9039 116.2C81.5599 116.2 82.0399 116.568 82.0399 117.208H82.7119C82.7119 116.288 82.1599 115.672 81.2159 115.568V114.952H80.6239V115.56C79.6799 115.656 79.0799 116.2 79.0799 117.048C79.0799 118.168 80.0239 118.376 80.8559 118.56C81.5519 118.72 82.1759 118.856 82.1759 119.48C82.1759 120.04 81.6399 120.408 80.9599 120.408C80.2159 120.408 79.6719 120.008 79.6719 119.312H78.9839C78.9839 120.312 79.6079 120.968 80.6879 121.064V121.712H81.2559V121.064C82.2399 120.96 82.8639 120.352 82.8639 119.472Z" fill="#403F63"/>
</svg>
