<svg width="226" height="159" viewBox="0 0 226 159" fill="none" xmlns="http://www.w3.org/2000/svg">
<rect x="0.502363" y="0.499994" width="76.8359" height="45.4294" rx="2.5" transform="matrix(1 4.3741e-09 0.00472631 0.999989 15.5649 38.9437)" stroke="#48B4C7"/>
<rect x="0.502363" y="0.499994" width="66.4578" height="33.4476" rx="2.5" transform="matrix(1 4.3741e-09 0.00472631 0.999989 20.7822 44.9345)" stroke="#48B4C7"/>
<rect width="110.268" height="11.8111" rx="3" transform="matrix(1 7.3971e-09 0.00472631 0.999989 0.184814 78.0549)" fill="#48B4C7"/>
<rect width="27.2426" height="5.99089" transform="matrix(1 4.3741e-09 0.00472631 0.999989 41.7107 80.8794)" fill="#E8F3F4"/>
<rect x="0.502363" y="0.499994" width="76.8359" height="45.4294" rx="2.5" transform="matrix(1 4.3741e-09 0.00472631 0.999989 130.773 107.095)" stroke="#48B4C7"/>
<rect x="0.502363" y="0.499994" width="66.4578" height="33.4476" rx="2.5" transform="matrix(1 4.3741e-09 0.00472631 0.999989 135.991 113.086)" stroke="#48B4C7"/>
<rect width="110.268" height="11.8111" rx="3" transform="matrix(1 7.3971e-09 0.00472631 0.999989 115.393 146.206)" fill="#48B4C7"/>
<rect width="27.2426" height="5.99089" transform="matrix(1 4.3741e-09 0.00472631 0.999989 156.919 149.031)" fill="#E8F3F4"/>
<path d="M75.9167 27.9907C73.0194 30.4247 72.875 38.5136 75.0477 50.7079C75.5494 53.5235 76.1382 56.467 76.7847 59.4495C81.439 80.9221 104.661 107.948 123.398 119.422L125.086 120.455C127.727 122.072 130.493 123.476 133.358 124.654V124.654C141.641 128.06 150.51 129.812 159.465 129.812H161.454" stroke="#48B4C7"/>
<path d="M35.6243 71.494L33.1165 68.9451L42.87 59.032L45.3778 61.5809L35.6243 71.494ZM61.147 68.9372L60.3255 69.772L53.3421 62.6744L54.1636 61.8396L61.147 68.9372ZM56.7476 58.7151C57.7982 59.7828 58.2303 61.2444 58.0451 62.6367L54.1636 58.6917L50.245 62.6744L54.1266 66.6194C52.7568 66.8076 51.3186 66.3684 50.2679 65.3005C48.6297 63.6355 48.4949 61.0137 49.8615 59.1897L50.7388 58.298C51.5314 57.6843 52.4943 57.3511 53.5077 57.3511C54.7316 57.3509 55.8821 57.8354 56.7476 58.7151ZM46.4431 59.5158L44.902 57.9494L54.6553 48.0365L56.1964 49.6028L46.4431 59.5158ZM57.4127 47.6908L56.5365 46.8003L75.4981 27.5287L76.3743 28.4192L57.4127 47.6908Z" fill="#48B4C7"/>
<rect x="153.341" y="120.888" width="33.2644" height="18.6605" rx="3" fill="#E8F3F4"/>
<circle cx="160" cy="132" r="4" fill="#403F63"/>
<path d="M156.878 125.052C157.55 125.052 158.082 124.628 158.23 123.968H157.762C157.634 124.364 157.306 124.608 156.878 124.608C156.318 124.608 155.906 124.188 155.906 123.604C155.906 123.02 156.318 122.596 156.878 122.596C157.29 122.596 157.618 122.824 157.754 123.196H158.218C158.07 122.564 157.538 122.152 156.878 122.152C156.05 122.152 155.438 122.764 155.438 123.604C155.438 124.44 156.05 125.052 156.878 125.052ZM160.483 122.84L160.431 123.112C160.235 122.908 159.959 122.788 159.639 122.788C158.995 122.788 158.515 123.272 158.515 123.92C158.515 124.568 158.995 125.056 159.639 125.056C159.955 125.056 160.227 124.936 160.423 124.74L160.467 125H160.823V122.84H160.483ZM159.675 124.628C159.267 124.628 158.967 124.324 158.967 123.92C158.967 123.516 159.267 123.212 159.675 123.212C160.083 123.212 160.379 123.512 160.379 123.92C160.379 124.328 160.083 124.628 159.675 124.628ZM164.101 124.592C163.837 124.592 163.689 124.444 163.689 124.176V123.224H164.345V122.848H163.689V122.228H163.245V122.848H162.789V123.224H163.245V124.2C163.245 124.692 163.557 125.004 164.045 125.004H164.357V124.592H164.101ZM161.837 123.144L161.761 122.84H161.461V125H161.905V123.848C161.905 123.46 162.085 123.248 162.453 123.248H162.633V122.84H162.497C162.201 122.84 161.989 122.94 161.837 123.144ZM166.821 123.928C166.821 123.3 166.381 122.788 165.717 122.788C165.085 122.788 164.609 123.276 164.609 123.92C164.609 124.568 165.085 125.056 165.717 125.056C166.201 125.056 166.597 124.776 166.769 124.32H166.301C166.185 124.52 165.977 124.64 165.717 124.64C165.365 124.64 165.113 124.424 165.057 124.072H166.809C166.817 124.024 166.821 123.976 166.821 123.928ZM165.717 123.192C166.049 123.192 166.293 123.384 166.373 123.712H165.069C165.141 123.392 165.385 123.192 165.717 123.192ZM168.292 122.508H168.748V122.048H168.292V122.508ZM168.3 125H168.744V122.84H168.3V125ZM171.051 122.068V123.04C170.859 122.88 170.615 122.788 170.339 122.788C169.683 122.788 169.215 123.272 169.215 123.924C169.215 124.568 169.683 125.056 170.339 125.056C170.639 125.056 170.907 124.944 171.099 124.756L171.159 125.004H171.495V122.068H171.051ZM170.371 124.632C169.967 124.632 169.667 124.328 169.667 123.92C169.667 123.516 169.967 123.212 170.371 123.212C170.779 123.212 171.079 123.516 171.079 123.92C171.079 124.324 170.779 124.632 170.371 124.632ZM174.181 123.928C174.181 123.3 173.741 122.788 173.077 122.788C172.445 122.788 171.969 123.276 171.969 123.92C171.969 124.568 172.445 125.056 173.077 125.056C173.561 125.056 173.957 124.776 174.129 124.32H173.661C173.545 124.52 173.337 124.64 173.077 124.64C172.725 124.64 172.473 124.424 172.417 124.072H174.169C174.177 124.024 174.181 123.976 174.181 123.928ZM173.077 123.192C173.409 123.192 173.653 123.384 173.733 123.712H172.429C172.501 123.392 172.745 123.192 173.077 123.192ZM175.792 122.792C175.476 122.792 175.208 122.924 175.048 123.144L174.96 122.84H174.652V125H175.096V123.844C175.096 123.464 175.336 123.192 175.676 123.192C176 123.192 176.172 123.4 176.172 123.792V125H176.616V123.7C176.616 123.168 176.3 122.792 175.792 122.792ZM178.159 124.6C177.899 124.6 177.755 124.456 177.755 124.196V123.224H178.395V122.84H177.751V122.336H177.675L176.923 123.136V123.224H177.311V124.232C177.311 124.708 177.603 125 178.075 125H178.407V124.6H178.159ZM178.831 122.508H179.287V122.048H178.831V122.508ZM178.839 125H179.283V122.84H178.839V125ZM180.874 124.6C180.614 124.6 180.47 124.456 180.47 124.196V123.224H181.11V122.84H180.466V122.336H180.39L179.638 123.136V123.224H180.026V124.232C180.026 124.708 180.318 125 180.79 125H181.122V124.6H180.874ZM182.971 121.988H182.495L182.247 122.596H182.591L182.971 121.988ZM183.583 123.928C183.583 123.3 183.143 122.788 182.479 122.788C181.847 122.788 181.371 123.276 181.371 123.92C181.371 124.568 181.847 125.056 182.479 125.056C182.963 125.056 183.359 124.776 183.531 124.32H183.063C182.947 124.52 182.739 124.64 182.479 124.64C182.127 124.64 181.875 124.424 181.819 124.072H183.571C183.579 124.024 183.583 123.976 183.583 123.928ZM182.479 123.192C182.811 123.192 183.055 123.384 183.135 123.712H181.831C181.903 123.392 182.147 123.192 182.479 123.192Z" fill="#403F63"/>
<rect x="166" y="130" width="18" height="1" fill="#828282"/>
<rect x="166" y="132" width="11" height="1" fill="#828282"/>
<rect x="166" y="134" width="11" height="1" fill="#828282"/>
</svg>
