<svg width="289" height="190" viewBox="0 0 289 190" fill="none" xmlns="http://www.w3.org/2000/svg">
<g clip-path="url(#clip0)">
<path fill-rule="evenodd" clip-rule="evenodd" d="M54.8381 37.9452C53.8456 35.8579 53.4238 33.5127 54.2128 31.2229C56.4863 24.6253 65.4499 28.6125 66.3613 32.494C67.2726 36.3756 64.7497 44.9259 62.2341 44.9019C61.2308 44.8924 59.3905 43.7642 57.6845 41.9927L56.5407 51.3698L49 49.3492L54.8381 37.9452Z" fill="#D4A181"/>
<path fill-rule="evenodd" clip-rule="evenodd" d="M57.5746 38.1717C56.1586 39.716 54.5032 40.7212 53.2112 40.375C50.7571 39.7174 49.8913 35.9688 50.8365 32.4411C50.8698 32.3172 50.9052 32.1947 50.9428 32.0738C47.8695 33.1596 44.9279 36.135 41.4929 35.2146C36.8198 33.9624 37.4895 24.0392 44.0186 25.7887C48.4589 26.9785 50.4696 28.2111 52.0954 29.6728C52.7471 28.7257 53.549 27.9974 54.4058 27.5684C54.6226 27.4255 54.926 27.3146 55.2999 27.2366C55.5308 27.1804 55.7632 27.1465 55.9955 27.1363C57.2425 27.0233 58.9656 27.1697 60.8194 27.5977C61.1656 27.6776 61.5034 27.7643 61.8308 27.8568C62.2999 26.1275 64.08 25.1026 65.8119 25.5666C67.5472 26.0316 68.577 27.8152 68.112 29.5505C67.6624 31.2286 65.9794 32.247 64.2996 31.8916C63.2739 31.9301 61.9992 31.8186 60.6251 31.5474C60.6241 32.0754 60.5453 32.6544 60.3757 33.2871C60.226 33.8458 60.0056 34.4218 59.7308 34.9929C59.5313 34.5665 59.2007 34.2345 58.8034 34.1281C57.6919 33.8302 56.6732 34.5373 56.4131 35.5081C56.0829 36.7402 56.5554 37.8222 57.5746 38.1717Z" fill="#191847"/>
<path fill-rule="evenodd" clip-rule="evenodd" d="M43.7749 78.1044L67.9452 118.513L86.066 152.675H89.9691L59.6074 78.1044L43.7749 78.1044Z" fill="#BA8B72"/>
<path fill-rule="evenodd" clip-rule="evenodd" d="M83.6797 151.098C83.3157 152.069 83.1338 152.796 83.1338 153.278C83.1338 153.865 83.2315 154.721 83.4269 155.846C84.1074 155.846 90.2229 155.846 101.773 155.846C102.25 154.27 101.975 153.419 100.948 153.293C99.9205 153.168 99.0672 153.054 98.3878 152.953L89.8606 149.152C89.6965 149.078 89.5042 149.152 89.431 149.316C89.4298 149.319 89.4286 149.322 89.4274 149.325L88.8793 150.654C87.9284 151.098 87.1557 151.32 86.5612 151.32C86.0781 151.32 85.4111 151.125 84.56 150.735L84.56 150.735C84.2334 150.585 83.8472 150.728 83.6975 151.055C83.691 151.069 83.6851 151.083 83.6797 151.098Z" fill="#E4E4E4"/>
<path fill-rule="evenodd" clip-rule="evenodd" d="M81.0332 147.204L88.5602 144.927C85.2624 135.069 81.2205 124.22 76.4345 112.381C71.6485 100.541 66.5085 89.1157 61.0145 78.1044H39.7556C45.8637 92.0332 52.3392 104.689 59.1819 116.073C66.0247 127.456 73.3084 137.833 81.0332 147.204Z" fill="#E8F3F4"/>
<path fill-rule="evenodd" clip-rule="evenodd" d="M42.1866 78.1044C39.9053 92.3042 35.5055 110.446 35.0902 111.006C34.8134 111.379 24.8479 114.719 5.1936 121.024L6.03671 124.466C29.4744 121.084 41.824 118.461 43.0857 116.595C44.9781 113.797 54.4274 91.6891 58.0873 78.1044H42.1866Z" fill="#D4A181"/>
<path fill-rule="evenodd" clip-rule="evenodd" d="M12.1023 118.049L13.5873 123.592C31.1174 125.13 41.8584 124.019 45.8104 120.259C49.7625 116.5 54.2666 102.448 59.3229 78.1044H39.0512C35.8477 98.0388 34.0567 108.424 33.6783 109.261C33.2998 110.098 26.1079 113.027 12.1023 118.049Z" fill="#E8F3F4"/>
<path fill-rule="evenodd" clip-rule="evenodd" d="M6.15597 119.59C5.1361 119.4 4.38868 119.347 3.91372 119.431C3.33606 119.533 2.51008 119.778 1.43578 120.166C1.55394 120.836 2.61588 126.858 4.62159 138.233C6.25657 138.429 7.04676 138.01 6.99216 136.977C6.93755 135.944 6.90113 135.084 6.88289 134.397L9.14587 125.339C9.18941 125.165 9.08342 124.988 8.90913 124.945C8.90615 124.944 8.90316 124.943 8.90016 124.943L7.49557 124.634C6.89352 123.774 6.54088 123.052 6.43764 122.466C6.35377 121.991 6.43005 121.3 6.66649 120.394L6.66649 120.394C6.75722 120.046 6.54895 119.691 6.2013 119.6C6.18632 119.596 6.1712 119.593 6.15597 119.59Z" fill="#E4E4E4"/>
<path fill-rule="evenodd" clip-rule="evenodd" d="M72.5041 75.5149L81.3993 84.8201C84.0388 86.0566 86.1902 87.3952 87.8533 88.8361C88.222 89.3138 88.6099 90.2179 86.813 89.7567C85.0161 89.2954 83.1053 88.891 82.7444 89.468C82.3835 90.045 83.3549 90.9824 82.699 91.7311C82.2617 92.2303 80.9086 90.5467 78.6396 86.6805L69.2607 80.7004L72.5041 75.5149ZM26.8144 64.236L32.2758 66.2523C23.437 78.0909 18.7187 84.3425 18.1208 85.0071C16.7755 86.5026 17.3006 89.7168 17.4185 91.3844C14.9944 91.5585 16.4739 88.1847 13.3989 88.451C10.5921 88.6941 8.02982 90.0529 5.87945 87.3324C5.61507 86.9979 5.52975 86.0699 6.65775 85.7794C9.46802 85.0559 13.6913 83.5365 14.4525 82.8075C15.4906 81.8134 19.6112 75.6229 26.8144 64.236Z" fill="#D4A181"/>
<path fill-rule="evenodd" clip-rule="evenodd" d="M74.7407 76.7503C76.072 76.8877 77.4637 77.3576 78.9058 78.1446C79.6154 78.5318 79.8768 79.421 79.4895 80.1306C79.2646 80.5428 78.8704 80.8037 78.4404 80.8742C78.696 81.14 78.9545 81.405 79.2158 81.6693L75.71 86.4772C65.8161 79.1559 56.3395 73.2804 53.268 63.532C52.2371 60.2602 54.5599 50.1735 55.064 46.444L58.7378 45.643C61.7729 56.3569 66.5662 66.9673 74.7407 76.7503Z" fill="#48B4C7"/>
<path fill-rule="evenodd" clip-rule="evenodd" d="M36.9582 78.7525C46.834 81.6346 54.7609 83.0323 60.7389 82.9457C61.4795 82.9349 61.9926 79.8409 61.8091 78.9388C58.9511 64.8909 57.2431 54.6749 58.8518 45.5512C57.815 45.8797 56.1404 45.6611 53.828 44.8953C45.791 53.1727 40.9565 63.4436 36.9582 78.7525Z" fill="#191847"/>
<path fill-rule="evenodd" clip-rule="evenodd" d="M34.8132 79.9756C34.5279 79.5935 34.4346 79.0797 34.6099 78.5981L34.9437 77.6811C35.1699 77.0597 35.7731 76.6845 36.401 76.7199C36.5932 76.2583 36.7701 75.7972 36.9302 75.3368C38.2827 71.4479 37.8699 67.328 38.6014 63.4828C32.6754 66.9693 26.7164 73.7432 20.7244 83.8044L14.9882 80.9573C15.3703 80.1404 15.7588 79.3355 16.1537 78.5426C15.5253 78.0227 15.0299 76.0606 15.6708 75.8599C16.3327 75.6526 17.0143 75.5447 17.7139 75.5339C26.2075 59.8034 37.4338 49.1834 51.393 43.6737L52.5073 43.8702L55.0361 44.3161C51.4623 58.3117 60.8172 91.8925 51.0094 117.433C41.1265 117.88 28.7168 108.88 14.5725 111.828C16.9422 101.264 28.9974 90.4884 34.8132 79.9756L34.8132 79.9756Z" fill="#48B4C7"/>
<path fill-rule="evenodd" clip-rule="evenodd" d="M52.6593 44.2273L50.1105 49.0182L52.7668 53.415L49.2311 55.8787L54.3108 69.6211L47.6048 55.6176L51.0913 53.1196L48.7308 49.2317L52.6593 44.2273Z" fill="black" fill-opacity="0.1"/>
<path fill-rule="evenodd" clip-rule="evenodd" d="M51.3297 74.0499C50.6221 73.9251 50.1495 73.2503 50.2743 72.5426C50.3991 71.8349 51.0739 71.3624 51.7816 71.4872C52.4893 71.6119 52.9618 72.2868 52.837 72.9945C52.7122 73.7021 52.0374 74.1746 51.3297 74.0499ZM51.6323 81.7001C50.9246 81.5753 50.4521 80.9004 50.5769 80.1928C50.7016 79.4851 51.3765 79.0126 52.0841 79.1373C52.7918 79.2621 53.2643 79.937 53.1396 80.6446C53.0148 81.3523 52.3399 81.8248 51.6323 81.7001ZM50.6535 89.1243C49.9458 88.9995 49.4733 88.3247 49.5981 87.617C49.7228 86.9093 50.3977 86.4368 51.1053 86.5616C51.813 86.6864 52.2855 87.3612 52.1608 88.0689C52.036 88.7766 51.3611 89.2491 50.6535 89.1243Z" fill="black" fill-opacity="0.4"/>
<path d="M216.5 57.5373C216.5 63.6558 211.777 68.5747 206 68.5747C200.223 68.5747 195.5 63.6558 195.5 57.5373C195.5 51.4188 200.223 46.4999 206 46.4999C211.777 46.4999 216.5 51.4188 216.5 57.5373Z" fill="white" fill-opacity="0.3" stroke="#48B4C7"/>
<g clip-path="url(#clip1)">
<path d="M204.403 64.7092C203.425 64.7092 202.502 64.3906 201.734 63.7876C201.591 63.6751 201.453 63.5521 201.324 63.4224C200.428 62.5188 199.977 61.3153 200.055 60.0336C200.113 59.0649 200.496 58.131 201.132 57.404C201.975 56.4412 203.136 55.9109 204.404 55.9109C204.621 55.9109 204.841 55.9275 205.057 55.9602L205.394 56.0111V59.055L204.876 58.8806C204.725 58.8296 204.569 58.8039 204.41 58.8039C204.009 58.8039 203.634 58.9642 203.353 59.2549C203.074 59.5443 202.923 59.927 202.929 60.333C202.937 60.8563 203.207 61.3306 203.652 61.6023C203.857 61.7272 204.09 61.8004 204.327 61.8138C204.514 61.8242 204.698 61.7993 204.876 61.7395C205.483 61.5351 205.89 60.9605 205.89 60.3102L205.893 57.1535V50.9891H208.744L208.747 51.3873C208.749 51.5676 208.767 51.748 208.801 51.9227C208.935 52.6098 209.312 53.2221 209.864 53.6465C210.354 54.0236 210.938 54.2227 211.554 54.2227C211.568 54.2227 211.568 54.2227 211.7 54.2321L212.066 54.2583V56.7237V57.1256L211.935 57.1253H211.673C211.671 57.1253 211.669 57.1253 211.667 57.1253H211.541C211.54 57.1253 211.539 57.1253 211.539 57.1253C210.78 57.1253 210.068 56.9777 209.363 56.6741C209.153 56.5835 208.948 56.4801 208.751 56.3646L208.76 60.3255C208.755 61.497 208.301 62.596 207.482 63.4221C206.818 64.0923 205.979 64.5205 205.057 64.6599C204.842 64.6926 204.622 64.7092 204.403 64.7092V64.7092ZM204.403 56.7148C203.364 56.7148 202.411 57.1497 201.719 57.9394C201.201 58.5325 200.889 59.2938 200.841 60.0829C200.778 61.1294 201.146 62.1123 201.878 62.8503C201.984 62.9569 202.097 63.058 202.214 63.1504C202.843 63.6443 203.6 63.9053 204.403 63.9053C204.584 63.9053 204.764 63.8916 204.942 63.8648C205.697 63.7507 206.384 63.3999 206.929 62.8505C207.598 62.1758 207.969 61.2789 207.972 60.3249L207.96 54.7943L208.596 55.2951C208.925 55.5537 209.286 55.7686 209.67 55.9339C210.194 56.1598 210.723 56.2853 211.278 56.315V55.0167C210.592 54.9642 209.943 54.7152 209.39 54.2889C208.683 53.7454 208.2 52.9608 208.028 52.08C208.01 51.9854 207.995 51.8897 207.984 51.7933H206.681V57.1537L206.678 60.3104C206.678 61.3081 206.053 62.1892 205.123 62.5027C204.851 62.5941 204.569 62.6321 204.283 62.6163C203.919 62.596 203.561 62.4837 203.247 62.2921C202.566 61.8765 202.153 61.1484 202.141 60.3447C202.132 59.722 202.363 59.1346 202.792 58.6906C203.221 58.2452 203.796 58 204.409 58C204.475 58 204.54 58.0029 204.605 58.0086V56.7204C204.538 56.7167 204.471 56.7148 204.403 56.7148V56.7148Z" fill="url(#paint0_linear)"/>
</g>
<path d="M135.937 71.4999C135.937 79.2584 129.993 85.4999 122.719 85.4999C115.444 85.4999 109.5 79.2584 109.5 71.4999C109.5 63.7415 115.444 57.4999 122.719 57.4999C129.993 57.4999 135.937 63.7415 135.937 71.4999Z" fill="white" fill-opacity="0.3" stroke="#48B4C7"/>
<g clip-path="url(#clip2)">
<path d="M130.558 67.0165C129.633 67.06 129.654 67.0564 129.549 67.0653L130.097 65.4695C130.097 65.4695 128.387 66.1111 127.954 66.2259C126.816 65.1821 125.125 65.136 123.915 65.8945C122.925 66.5158 122.393 67.5827 122.571 68.8298C120.643 68.5569 119.019 67.6245 117.737 66.0528L117.332 65.5558L117.029 66.1236C116.646 66.8412 116.519 67.6616 116.67 68.4337C116.733 68.7505 116.839 69.0526 116.986 69.3355L116.638 69.1979L116.596 69.7911C116.555 70.3936 116.751 71.097 117.122 71.6724C117.227 71.8344 117.362 72.0124 117.532 72.1879L117.352 72.1598L117.572 72.8395C117.86 73.7324 118.459 74.4233 119.236 74.8074C118.46 75.1435 117.833 75.358 116.802 75.7039L115.859 76.0202L116.73 76.5061C117.062 76.6914 118.236 77.3102 119.395 77.4958C121.972 77.9083 124.873 77.5724 126.827 75.7772C128.472 74.265 129.012 72.1141 128.9 69.8758C128.883 69.5369 128.974 69.2135 129.156 68.9653C129.521 68.4683 130.556 67.0198 130.558 67.0165V67.0165ZM128.467 68.4389C128.165 68.851 128.013 69.3773 128.04 69.9206C128.153 72.1784 127.551 73.9294 126.251 75.1246C124.732 76.5209 122.281 77.069 119.528 76.6283C119.03 76.5485 118.514 76.3698 118.088 76.1914C118.952 75.888 119.619 75.6176 120.697 75.0971L122.201 74.3706L120.54 74.2621C119.745 74.2101 119.082 73.8167 118.675 73.1779C118.891 73.165 119.1 73.1293 119.307 73.0703L120.891 72.6201L119.294 72.2209C118.518 72.0269 118.076 71.553 117.841 71.1896C117.687 70.9507 117.587 70.7061 117.526 70.4805C117.686 70.5243 117.873 70.5556 118.174 70.586L119.653 70.7352L118.481 69.8028C117.637 69.131 117.299 68.1217 117.547 67.1515C120.181 69.9395 123.274 69.73 123.585 69.8037C123.516 69.1245 123.515 69.1229 123.497 69.0582C123.098 67.62 123.972 66.8898 124.366 66.6426C125.189 66.1264 126.495 66.0485 127.4 66.8991C127.596 67.0826 127.86 67.1548 128.108 67.0921C128.33 67.0358 128.512 66.9762 128.69 66.9113L128.319 67.9937L128.793 67.994C128.703 68.1165 128.596 68.2631 128.467 68.4389Z" fill="url(#paint1_linear)"/>
</g>
<path d="M71.8813 68.186L71.5632 73.4263L72.6413 73.4917L72.7655 71.4455L78.6746 71.8041L78.7442 70.6563L72.8351 70.2976L72.9593 68.2514L71.8813 68.186Z" fill="#48B4C7"/>
<path d="M74.2032 64.2906C74.0843 65.0209 74.2558 65.5858 74.6965 66.0527L73.9372 66.1115L73.8166 66.8517L79.1465 67.7195L79.3248 66.6239L76.4921 66.1627C75.5249 66.0052 75.0741 65.4759 75.2219 64.5679L75.3167 63.9855L74.2804 63.8168L74.2032 64.2906Z" fill="#48B4C7"/>
<path d="M76.0099 57.5484L76.6314 57.8533C76.0101 58.1913 75.5386 58.7775 75.3273 59.5492C74.9022 61.102 75.7524 62.5789 77.3149 63.0067C78.8774 63.4345 80.3709 62.5992 80.7961 61.0464C81.0047 60.2844 80.8949 59.5493 80.5517 58.9473L81.2076 59.0129L81.4427 58.1544L76.2343 56.7285L76.0099 57.5484ZM79.7878 60.677C79.5185 61.6608 78.5874 62.1835 77.6133 61.9168C76.6391 61.6501 76.1041 60.726 76.3735 59.7422C76.6428 58.7584 77.5616 58.2428 78.5454 58.5121C79.5292 58.7814 80.0572 59.6932 79.7878 60.677Z" fill="#48B4C7"/>
<path d="M82.8909 55.3737C83.3943 54.1426 83.0218 52.8343 81.9653 52.089L81.5414 53.1257C82.0425 53.6439 82.1785 54.3153 81.9098 54.9725C81.5464 55.8611 80.5444 56.2508 79.6188 55.8723C78.6932 55.4938 78.2568 54.5267 78.6239 53.6288C78.8888 52.9809 79.4677 52.5694 80.1475 52.5449L80.5639 51.5267C79.3026 51.3351 78.1499 51.9873 77.6428 53.2276C77.0334 54.7179 77.7009 56.3089 79.1911 56.9182C80.6813 57.5276 82.2816 56.8639 82.8909 55.3737Z" fill="#48B4C7"/>
<path d="M84.5011 46.2814C83.1302 45.5162 81.4764 45.8528 80.6673 47.3023C79.8972 48.6819 80.3825 50.3157 81.7883 51.1004C83.2028 51.89 84.8481 51.4455 85.6182 50.0659C86.208 49.0093 86.0793 47.8037 85.2934 46.8726L84.7232 47.8942C85.0184 48.3911 85.0269 48.9914 84.7101 49.559C84.2812 50.3274 83.5026 50.6143 82.666 50.3076L84.8008 46.4831C84.7058 46.4071 84.6058 46.3399 84.5011 46.2814ZM81.5492 47.7946C81.9537 47.0699 82.6702 46.7712 83.4837 46.9962L81.8947 49.8428C81.2839 49.2957 81.1447 48.5193 81.5492 47.7946Z" fill="#48B4C7"/>
<path d="M88.6624 45.5227C89.4348 44.4522 89.3924 43.3488 88.5409 42.7345C87.4623 41.9563 86.6669 42.7511 86.0128 43.4013C85.5432 43.8641 85.1484 44.2574 84.7592 43.9766C84.4429 43.7484 84.4463 43.2823 84.8032 42.7876C85.1835 42.2604 85.6446 42.0999 86.0699 42.3821L86.6843 41.5306C85.8292 40.9383 84.7898 41.1995 84.0585 42.2132C83.3212 43.2351 83.3789 44.3002 84.1656 44.8677C85.1793 45.5991 85.9617 44.8565 86.618 44.2203C87.0934 43.7494 87.522 43.3434 87.9437 43.6477C88.3086 43.9109 88.2422 44.4303 87.8911 44.9168C87.5108 45.444 86.9867 45.6577 86.5069 45.3485L85.8749 46.2243C86.8008 46.8553 87.896 46.585 88.6624 45.5227Z" fill="#48B4C7"/>
<path d="M91.9971 33.6324C91.4186 34.1705 91.1528 34.8684 91.2346 35.5436L90.5558 35.1369L89.992 35.6614L93.67 39.6152L94.4827 38.8592L92.5143 36.7432C91.8673 36.0476 91.8435 35.141 92.4658 34.5621C93.0589 34.0104 93.7279 34.0983 94.3954 34.8158L96.4523 37.0271L97.265 36.2711L95.0515 33.8914C94.1456 32.9176 92.927 32.7674 91.9971 33.6324Z" fill="#48B4C7"/>
<path d="M100.248 34.3909C101.454 33.5151 101.666 32.1742 100.808 30.993L98.9742 28.4689L98.0762 29.1213L99.8219 31.5241C100.369 32.2765 100.305 33.0396 99.6254 33.5334C98.9458 34.0271 98.1982 33.8657 97.6456 33.1052L95.8999 30.7025L95.0019 31.3549L96.8358 33.879C97.694 35.0602 99.043 35.2667 100.248 34.3909Z" fill="#48B4C7"/>
<path d="M105.911 24.6021C105.285 24.9376 104.878 25.5756 104.809 26.2711C104.257 25.8976 103.575 25.8545 102.932 26.1995C102.359 26.5067 101.964 27.0817 101.839 27.7161L101.341 27.189L100.653 27.5577L103.206 32.3165L104.184 31.7919L102.79 29.1922C102.355 28.3814 102.532 27.5487 103.167 27.2084C103.757 26.8917 104.324 27.1439 104.735 27.9106L106.228 30.6955L107.18 30.185L105.786 27.5853C105.351 26.7745 105.529 25.9418 106.163 25.6015C106.754 25.2848 107.32 25.5371 107.731 26.3038L109.225 29.0886L110.203 28.564L108.582 25.5412C108.005 24.4661 106.915 24.0633 105.911 24.6021Z" fill="#48B4C7"/>
<path d="M110.805 20.6818L109.69 21.0968L109.639 22.7376L110.445 22.4377L110.805 20.6818ZM113.93 24.6939C113.383 23.2224 111.905 22.4063 110.35 22.9852C108.869 23.5362 108.179 25.0946 108.74 26.6035C109.305 28.1218 110.846 28.8503 112.327 28.2993C113.461 27.8774 114.145 26.8761 114.15 25.6577L113.054 26.0657C112.956 26.6354 112.573 27.0979 111.964 27.3246C111.139 27.6315 110.361 27.345 109.923 26.5691L114.028 25.0417C114.005 24.9223 113.972 24.8063 113.93 24.6939ZM110.702 23.9318C111.48 23.6424 112.219 23.8795 112.692 24.5783L109.637 25.7151C109.527 24.9026 109.924 24.2212 110.702 23.9318Z" fill="#48B4C7"/>
<path d="M117.023 21.1978C116.306 21.3812 115.857 21.7644 115.606 22.3551L115.248 21.6828L114.522 21.8686L115.86 27.1002L116.935 26.8252L116.224 24.0447C115.981 23.0953 116.286 22.4703 117.177 22.2423L117.749 22.0962L117.488 21.0789L117.023 21.1978Z" fill="#48B4C7"/>
<path d="M119.271 20.006L120.395 19.8191L120.207 18.6846L119.082 18.8715L119.271 20.006ZM120.312 26.1484L121.407 25.9664L120.522 20.6395L119.427 20.8215L120.312 26.1484Z" fill="#48B4C7"/>
<path d="M128.424 19.9612L128.257 20.6433C127.736 20.1756 127.038 19.9197 126.27 19.9689C124.653 20.0723 123.553 21.3552 123.657 22.9819C123.761 24.5986 125.015 25.7308 126.632 25.6273C127.331 25.5826 127.934 25.3034 128.377 24.8643L128.533 27.3092L129.641 27.2383L129.173 19.9233L128.424 19.9612ZM126.644 24.5643C125.636 24.6288 124.839 23.9183 124.775 22.9104C124.71 21.8925 125.41 21.0861 126.417 21.0216C127.435 20.9564 128.232 21.667 128.298 22.6849C128.362 23.6928 127.662 24.4992 126.644 24.5643Z" fill="#48B4C7"/>
<path d="M132.628 25.7599C134.115 25.8448 135.129 24.9411 135.212 23.4835L135.39 20.3686L134.281 20.3053L134.112 23.2705C134.059 24.199 133.527 24.7495 132.688 24.7017C131.85 24.6538 131.373 24.0557 131.427 23.1172L131.596 20.152L130.488 20.0888L130.31 23.2037C130.227 24.6613 131.14 25.675 132.628 25.7599Z" fill="#48B4C7"/>
<path d="M141.809 24.3299C142.087 22.7847 141.231 21.3301 139.597 21.0363C138.042 20.7566 136.655 21.7467 136.37 23.3312C136.083 24.9257 137.039 26.3371 138.594 26.6167C139.785 26.8309 140.883 26.3172 141.508 25.2714L140.356 25.0643C139.982 25.505 139.418 25.7082 138.778 25.5932C137.912 25.4374 137.387 24.7944 137.405 23.9035L141.716 24.6789C141.757 24.5643 141.788 24.448 141.809 24.3299ZM139.419 22.0303C140.235 22.1773 140.751 22.7577 140.803 23.6001L137.594 23.023C137.913 22.2675 138.602 21.8834 139.419 22.0303Z" fill="#48B4C7"/>
<path d="M143.88 28.0184C145.144 28.4008 146.173 28.0019 146.477 26.9969C146.863 25.7239 145.852 25.2301 145.025 24.823C144.434 24.5294 143.934 24.284 144.073 23.8246C144.186 23.4513 144.628 23.3029 145.212 23.4796C145.834 23.6679 146.136 24.0517 146.007 24.5457L147.012 24.8498C147.294 23.8486 146.709 22.9507 145.513 22.5886C144.307 22.2236 143.318 22.6245 143.037 23.5529C142.675 24.7493 143.632 25.2478 144.447 25.6616C145.047 25.9581 145.57 26.2314 145.42 26.7291C145.289 27.1598 144.777 27.2658 144.202 27.092C143.58 26.9038 143.208 26.4776 143.344 25.9233L142.31 25.6105C142.015 26.6912 142.626 27.639 143.88 28.0184Z" fill="#48B4C7"/>
<path d="M164.248 132.005L162.945 129.778L156.902 133.31L157.478 134.295L159.524 133.099L160.25 134.342C160.942 135.524 162.311 135.905 163.451 135.239C164.599 134.568 164.934 133.179 164.248 132.005ZM161.166 133.748L160.465 132.548L162.58 131.312L163.281 132.512C163.66 133.159 163.473 133.871 162.86 134.229C162.256 134.582 161.545 134.396 161.166 133.748Z" fill="#48B4C7"/>
<path d="M169.559 140.613C169.012 140.144 168.359 139.953 167.749 140.036L169.408 138.099L168.565 137.377L163.796 142.944L164.639 143.666L166.519 141.471C167.137 140.75 168.043 140.63 168.681 141.177C169.303 141.71 169.284 142.378 168.646 143.123L166.682 145.416L167.524 146.138L169.639 143.67C170.543 142.615 170.516 141.432 169.559 140.613Z" fill="#48B4C7"/>
<path d="M176.162 144.101L177.198 144.577L177.678 143.532L176.642 143.056L176.162 144.101ZM173.58 149.77L174.588 150.234L176.843 145.327L175.834 144.863L173.58 149.77Z" fill="#48B4C7"/>
<path d="M182.816 152.914C184.117 153.133 185.088 152.607 185.262 151.572C185.483 150.26 184.418 149.898 183.546 149.6C182.923 149.383 182.396 149.203 182.475 148.73C182.54 148.345 182.959 148.142 183.561 148.243C184.202 148.351 184.55 148.694 184.485 149.2L185.521 149.374C185.673 148.345 184.979 147.529 183.747 147.321C182.504 147.112 181.574 147.635 181.413 148.592C181.206 149.824 182.218 150.198 183.079 150.505C183.712 150.723 184.265 150.927 184.179 151.44C184.104 151.884 183.609 152.054 183.018 151.955C182.377 151.847 181.953 151.471 182.018 150.904L180.953 150.725C180.797 151.834 181.524 152.697 182.816 152.914Z" fill="#48B4C7"/>
<path d="M193.98 147.447C193.269 147.556 192.698 147.928 192.363 148.445L191.975 145.924L190.878 146.093L191.994 153.338L193.091 153.169L192.651 150.313C192.506 149.374 193.006 148.609 193.836 148.481C194.646 148.356 195.141 148.806 195.29 149.775L195.749 152.759L196.846 152.591L196.352 149.378C196.14 148.005 195.225 147.255 193.98 147.447Z" fill="#48B4C7"/>
<path d="M200.928 144.71L201.964 144.234L201.484 143.189L200.448 143.665L200.928 144.71ZM203.547 150.363L204.556 149.9L202.302 144.993L201.293 145.456L203.547 150.363Z" fill="#48B4C7"/>
<path d="M209.079 140.424C208.479 140.938 208.185 141.624 208.239 142.302L207.577 141.868L206.992 142.369L210.506 146.47L211.349 145.748L209.468 143.553C208.85 142.832 208.864 141.925 209.509 141.372C210.124 140.845 210.789 140.96 211.427 141.704L213.392 143.998L214.234 143.275L212.12 140.807C211.255 139.797 210.043 139.598 209.079 140.424Z" fill="#48B4C7"/>
<path d="M216.394 131.371L216.913 131.871C216.225 132.036 215.601 132.471 215.202 133.153C214.44 134.456 214.873 136.053 216.177 136.815C217.489 137.582 219.084 137.171 219.846 135.868C220.2 135.263 220.305 134.607 220.189 133.994L220.405 134.121C221.285 134.635 221.472 135.544 221.003 136.347C220.66 136.934 220.052 137.32 219.436 137.203L218.881 138.153C220.036 138.515 221.152 138.033 221.854 136.833C222.697 135.391 222.305 133.981 220.82 133.113L216.763 130.741L216.394 131.371ZM219.018 135.244C218.533 136.073 217.567 136.319 216.747 135.84C215.935 135.365 215.676 134.403 216.16 133.574C216.65 132.736 217.602 132.494 218.422 132.974C219.251 133.458 219.502 134.416 219.018 135.244Z" fill="#48B4C7"/>
<path d="M208.676 117C208.676 128.343 199.886 137.5 189.088 137.5C178.291 137.5 169.5 128.343 169.5 117C169.5 105.657 178.291 96.4999 189.088 96.4999C199.886 96.4999 208.676 105.657 208.676 117Z" fill="white" fill-opacity="0.3" stroke="#48B4C7"/>
<g clip-path="url(#clip3)">
<path d="M194.256 105H183.92C180.556 105 177.819 107.793 177.819 111.226V121.774C177.819 125.207 180.556 128 183.92 128H194.256C197.62 128 200.357 125.207 200.357 121.774V111.226C200.357 107.793 197.62 105 194.256 105V105ZM199.036 121.774C199.036 124.464 196.892 126.652 194.256 126.652H183.92C181.284 126.652 179.14 124.464 179.14 121.774V111.226C179.14 108.536 181.284 106.348 183.92 106.348H194.256C196.892 106.348 199.036 108.536 199.036 111.226V121.774Z" fill="url(#paint2_linear)"/>
<path d="M189.088 110.211C185.69 110.211 182.926 113.032 182.926 116.5C182.926 119.968 185.69 122.789 189.088 122.789C192.486 122.789 195.251 119.968 195.251 116.5C195.251 113.032 192.486 110.211 189.088 110.211V110.211ZM189.088 121.44C186.419 121.44 184.247 119.224 184.247 116.5C184.247 113.776 186.419 111.559 189.088 111.559C191.758 111.559 193.929 113.776 193.929 116.5C193.929 119.224 191.758 121.44 189.088 121.44V121.44Z" fill="url(#paint3_linear)"/>
<path d="M195.398 107.978C194.394 107.978 193.577 108.811 193.577 109.836C193.577 110.861 194.394 111.694 195.398 111.694C196.402 111.694 197.219 110.861 197.219 109.836C197.219 108.811 196.402 107.978 195.398 107.978ZM195.398 110.346C195.122 110.346 194.898 110.117 194.898 109.836C194.898 109.555 195.122 109.326 195.398 109.326C195.673 109.326 195.898 109.555 195.898 109.836C195.898 110.117 195.673 110.346 195.398 110.346Z" fill="url(#paint4_linear)"/>
</g>
<path d="M228.87 37.9999H230.16L228.54 35.2499C229.39 34.9299 229.96 34.1699 229.96 33.2199C229.96 31.9299 228.96 30.9999 227.61 30.9999H224.89V37.9999H226.03V35.4099H227.36L228.87 37.9999ZM226.03 32.0799H227.54C228.3 32.0799 228.79 32.5599 228.79 33.2099C228.79 33.8699 228.3 34.3399 227.54 34.3399H226.03V32.0799ZM236.316 35.3199C236.316 33.7499 235.216 32.4699 233.556 32.4699C231.976 32.4699 230.786 33.6899 230.786 35.2999C230.786 36.9199 231.976 38.1399 233.556 38.1399C234.766 38.1399 235.756 37.4399 236.186 36.2999H235.016C234.726 36.7999 234.206 37.0999 233.556 37.0999C232.676 37.0999 232.046 36.5599 231.906 35.6799H236.286C236.306 35.5599 236.316 35.4399 236.316 35.3199ZM233.556 33.4799C234.386 33.4799 234.996 33.9599 235.196 34.7799H231.936C232.116 33.9799 232.726 33.4799 233.556 33.4799ZM241.029 32.5999L239.449 36.6099L237.829 32.5999H236.659L238.939 37.9999H239.949L242.169 32.5999H241.029ZM248.065 35.3199C248.065 33.7499 246.965 32.4699 245.305 32.4699C243.725 32.4699 242.535 33.6899 242.535 35.2999C242.535 36.9199 243.725 38.1399 245.305 38.1399C246.515 38.1399 247.505 37.4399 247.935 36.2999H246.765C246.475 36.7999 245.955 37.0999 245.305 37.0999C244.425 37.0999 243.795 36.5599 243.655 35.6799H248.035C248.055 35.5599 248.065 35.4399 248.065 35.3199ZM245.305 33.4799C246.135 33.4799 246.745 33.9599 246.945 34.7799H243.685C243.865 33.9799 244.475 33.4799 245.305 33.4799ZM252.093 32.4799C251.303 32.4799 250.633 32.8099 250.233 33.3599L250.013 32.5999H249.243V37.9999H250.353V35.1099C250.353 34.1599 250.953 33.4799 251.803 33.4799C252.613 33.4799 253.043 33.9999 253.043 34.9799V37.9999H254.153V34.7499C254.153 33.4199 253.363 32.4799 252.093 32.4799ZM260.069 32.5999L259.899 33.2999C259.409 32.7899 258.719 32.4699 257.929 32.4699C256.419 32.4699 255.259 33.6499 255.259 35.1599C255.259 36.6799 256.419 37.8499 257.929 37.8499C258.629 37.8499 259.249 37.6099 259.719 37.1999V37.4499C259.719 38.4699 259.029 39.0899 258.099 39.0899C257.419 39.0899 256.779 38.7599 256.569 38.1699H255.469C255.739 39.3499 256.719 40.0699 258.109 40.0699C259.779 40.0699 260.799 39.0199 260.799 37.2999V32.5999H260.069ZM258.049 36.8199C257.089 36.8199 256.389 36.1099 256.389 35.1599C256.389 34.2199 257.089 33.5099 258.049 33.5099C259.019 33.5099 259.709 34.2099 259.709 35.1599C259.709 36.1199 259.009 36.8199 258.049 36.8199ZM267.518 35.3199C267.518 33.7499 266.418 32.4699 264.758 32.4699C263.178 32.4699 261.988 33.6899 261.988 35.2999C261.988 36.9199 263.178 38.1399 264.758 38.1399C265.968 38.1399 266.958 37.4399 267.388 36.2999H266.218C265.928 36.7999 265.408 37.0999 264.758 37.0999C263.878 37.0999 263.248 36.5599 263.108 35.6799H267.488C267.508 35.5599 267.518 35.4399 267.518 35.3199ZM264.758 33.4799C265.588 33.4799 266.198 33.9599 266.398 34.7799H263.138C263.318 33.9799 263.928 33.4799 264.758 33.4799ZM274.116 32.4699C273.336 32.4699 272.656 32.7699 272.166 33.2699L271.956 32.5999H271.216V39.9399H272.326V37.4899C272.796 37.8999 273.416 38.1399 274.116 38.1399C275.726 38.1399 276.916 36.9199 276.916 35.2999C276.916 33.6799 275.726 32.4699 274.116 32.4699ZM274.026 37.0799C273.006 37.0799 272.256 36.3199 272.256 35.2999C272.256 34.2899 273.006 33.5299 274.026 33.5299C275.046 33.5299 275.786 34.2899 275.786 35.2999C275.786 36.3199 275.046 37.0799 274.026 37.0799ZM280.6 38.1399C282.25 38.1399 283.48 36.9299 283.48 35.2999C283.48 33.6799 282.25 32.4699 280.6 32.4699C278.94 32.4699 277.71 33.6699 277.71 35.2999C277.71 36.9299 278.94 38.1399 280.6 38.1399ZM280.6 37.0799C279.57 37.0799 278.84 36.3399 278.84 35.2999C278.84 34.2699 279.57 33.5299 280.6 33.5299C281.62 33.5299 282.35 34.2699 282.35 35.2999C282.35 36.3399 281.62 37.0799 280.6 37.0799ZM287.263 32.5699C286.523 32.5699 285.993 32.8299 285.603 33.3399L285.423 32.5999H284.673V37.9999H285.783V35.1299C285.783 34.1499 286.233 33.6199 287.153 33.6199H287.743V32.5699H287.263ZM291.458 32.4799C290.668 32.4799 289.998 32.8099 289.598 33.3599L289.378 32.5999H288.608V37.9999H289.718V35.1099C289.718 34.1599 290.318 33.4799 291.168 33.4799C291.978 33.4799 292.408 33.9999 292.408 34.9799V37.9999H293.518V34.7499C293.518 33.4199 292.728 32.4799 291.458 32.4799Z" fill="white" fill-opacity="0.3"/>
<path d="M162.299 55.2198C165.291 54.5646 168.402 55.1107 170.946 56.738C173.49 58.3653 175.259 60.9406 175.864 63.8973" stroke="url(#paint5_linear)" stroke-linecap="round" stroke-linejoin="round"/>
<path d="M160.524 46.5493C165.844 45.3843 171.374 46.3552 175.897 49.2482C180.42 52.1413 183.565 56.7195 184.641 61.9758" stroke="url(#paint6_linear)" stroke-linecap="round" stroke-linejoin="round"/>
<path d="M165.834 66.0935C166.526 65.9418 166.974 65.2644 166.834 64.5803C166.694 63.8962 166.019 63.4645 165.327 63.6161C164.635 63.7677 164.187 64.4452 164.327 65.1293C164.467 65.8134 165.142 66.2451 165.834 66.0935Z" stroke="url(#paint7_linear)" stroke-linecap="round" stroke-linejoin="round"/>
<path d="M109.137 139.883C110.489 137.89 112.56 136.527 114.897 136.093C117.233 135.659 119.643 136.189 121.596 137.569" stroke="#48B4C7" stroke-linecap="round" stroke-linejoin="round"/>
<path d="M103.41 135.839C105.813 132.296 109.496 129.872 113.649 129.1C117.803 128.329 122.087 129.272 125.559 131.724" stroke="#48B4C7" stroke-linecap="round" stroke-linejoin="round"/>
<path d="M117.067 144.248C117.379 143.787 117.267 143.154 116.815 142.835C116.363 142.516 115.743 142.631 115.43 143.092C115.118 143.554 115.231 144.186 115.682 144.505C116.134 144.824 116.754 144.709 117.067 144.248Z" stroke="#48B4C7" stroke-linecap="round" stroke-linejoin="round"/>
<path d="M216.828 93.7834C216.852 91.9924 217.582 90.2977 218.856 89.072C220.129 87.8464 221.844 87.1902 223.621 87.2479" stroke="#48B4C7" stroke-linecap="round" stroke-linejoin="round"/>
<path d="M211.616 93.6143C211.659 90.4302 212.955 87.4173 215.22 85.2384C217.484 83.0595 220.532 81.8929 223.692 81.9955" stroke="#48B4C7" stroke-linecap="round" stroke-linejoin="round"/>
<path d="M223.54 93.2506C223.546 92.8362 223.217 92.4895 222.806 92.4761C222.395 92.4628 222.057 92.7879 222.051 93.2023C222.046 93.6167 222.374 93.9635 222.786 93.9768C223.197 93.9901 223.535 93.665 223.54 93.2506Z" stroke="#48B4C7" stroke-linecap="round" stroke-linejoin="round"/>
<path d="M318.121 152.241L314.531 149.354L312.744 149.378L292.536 51.001L287.996 47.3497L249.331 95.4297L251.977 97.5578L288.882 51.6661L289.68 52.3078L295.218 79.27L292.207 79.3111L292.834 82.3632L295.845 82.3219L298.353 94.5315L295.342 94.5722L295.968 97.6242L298.98 97.5831L301.488 109.793L298.476 109.834L299.103 112.886L302.115 112.845L304.623 125.054L301.611 125.095L302.238 128.147L305.25 128.106L307.895 140.987L307.072 140.325L298.821 140.437L295.867 144.11L296.377 146.592L290.318 146.675L291.551 152.676L294.666 152.633L294.06 149.684L297.003 149.644L297.481 151.968L301.94 155.704L306.311 155.601L310.683 177.125L314.338 180.064L320.821 179.976L323.251 176.953L318.121 152.241ZM302.634 152.623L300.346 150.705L300.119 149.603L304.827 149.539L304.2 146.486L299.492 146.551L299.242 145.333L300.738 143.473L306.409 143.396L308.659 145.205L309.758 150.556L308.201 152.492L302.634 152.623ZM318.904 176.943L315.002 176.996L313.543 175.822L309.421 155.53L310.129 155.513L312.599 152.441L313.867 152.424L315.268 153.55L319.874 175.736L318.904 176.943Z" fill="#48B4C7"/>
<path d="M247.571 97.6181L250.217 99.7462L248.458 101.934L245.811 99.8063L247.571 97.6181Z" fill="#48B4C7"/>
<path d="M235.78 124.269L234.425 123.179L233.804 120.156L238.188 114.704L245.332 114.606L243.895 107.608L246.697 104.123L244.051 101.995L241.248 105.48L234.313 105.575L235.708 112.369L230.429 118.934L231.569 124.485L235.116 127.338L242.576 127.236L241.949 124.185L235.78 124.269ZM240.963 108.545L241.59 111.597L238.682 111.636L238.055 108.585L240.963 108.545Z" fill="#48B4C7"/>
</g>
<defs>
<linearGradient id="paint0_linear" x1="206.141" y1="54.0761" x2="205.987" y2="64.7082" gradientUnits="userSpaceOnUse">
<stop stop-color="#48B4C7" stop-opacity="0.21"/>
<stop offset="1" stop-color="#8B078D" stop-opacity="0.11"/>
</linearGradient>
<linearGradient id="paint1_linear" x1="123.312" y1="68.1392" x2="123.211" y2="77.6538" gradientUnits="userSpaceOnUse">
<stop stop-color="#48B4C7" stop-opacity="0.21"/>
<stop offset="1" stop-color="#8B078D" stop-opacity="0.11"/>
</linearGradient>
<linearGradient id="paint2_linear" x1="189.247" y1="110.175" x2="189.015" y2="127.999" gradientUnits="userSpaceOnUse">
<stop stop-color="#48B4C7" stop-opacity="0.21"/>
<stop offset="1" stop-color="#8B078D" stop-opacity="0.11"/>
</linearGradient>
<linearGradient id="paint3_linear" x1="189.175" y1="113.041" x2="189.048" y2="122.788" gradientUnits="userSpaceOnUse">
<stop stop-color="#48B4C7" stop-opacity="0.21"/>
<stop offset="1" stop-color="#8B078D" stop-opacity="0.11"/>
</linearGradient>
<linearGradient id="paint4_linear" x1="195.424" y1="108.814" x2="195.386" y2="111.694" gradientUnits="userSpaceOnUse">
<stop stop-color="#48B4C7" stop-opacity="0.21"/>
<stop offset="1" stop-color="#8B078D" stop-opacity="0.11"/>
</linearGradient>
<linearGradient id="paint5_linear" x1="168.533" y1="56.4754" x2="170.312" y2="65.1142" gradientUnits="userSpaceOnUse">
<stop stop-color="#48B4C7" stop-opacity="0.21"/>
<stop offset="1" stop-color="#8B078D" stop-opacity="0.11"/>
</linearGradient>
<linearGradient id="paint6_linear" x1="171.608" y1="48.7814" x2="174.77" y2="64.1391" gradientUnits="userSpaceOnUse">
<stop stop-color="#48B4C7" stop-opacity="0.21"/>
<stop offset="1" stop-color="#8B078D" stop-opacity="0.11"/>
</linearGradient>
<linearGradient id="paint7_linear" x1="165.459" y1="64.1696" x2="165.854" y2="66.0894" gradientUnits="userSpaceOnUse">
<stop stop-color="#48B4C7" stop-opacity="0.21"/>
<stop offset="1" stop-color="#8B078D" stop-opacity="0.11"/>
</linearGradient>
<clipPath id="clip0">
<rect width="289" height="190" fill="white"/>
</clipPath>
<clipPath id="clip1">
<rect width="13.4444" height="13.7201" fill="white" transform="translate(199.278 50.9891)"/>
</clipPath>
<clipPath id="clip2">
<rect width="14.6986" height="15" fill="white" transform="translate(115.859 63.9999)"/>
</clipPath>
<clipPath id="clip3">
<rect width="22.5379" height="23" fill="white" transform="translate(177.819 105)"/>
</clipPath>
</defs>
</svg>
