<svg width="22" height="23" viewBox="0 0 22 23" fill="none" xmlns="http://www.w3.org/2000/svg">
<g clip-path="url(#clip0)">
<path d="M21.2681 5.26901C20.8289 4.78802 20.2224 4.5038 19.5323 4.5038H16.0608V4.46008C16.0608 3.9135 15.8517 3.38878 15.4962 3.03897C15.1407 2.6673 14.6597 2.44867 14.1369 2.44867H7.86312C7.31939 2.44867 6.8384 2.6673 6.48289 3.03897C6.12738 3.41065 5.91825 3.9135 5.91825 4.46008V4.5038H2.46768C1.77757 4.5038 1.1711 4.78802 0.731939 5.26901C0.292776 5.72814 0 6.38403 0 7.08365V17.9715C0 18.693 0.271863 19.327 0.731939 19.7861C1.1711 20.2452 1.79848 20.5513 2.46768 20.5513H19.5323C20.2224 20.5513 20.8289 20.2671 21.2681 19.7861C21.7072 19.327 22 18.6711 22 17.9715V7.08365C22 6.36217 21.7281 5.72814 21.2681 5.26901ZM20.9125 17.9715H20.8916C20.8916 18.365 20.7452 18.7148 20.4943 18.9772C20.2433 19.2395 19.9087 19.3926 19.5323 19.3926H2.46768C2.09125 19.3926 1.75665 19.2395 1.5057 18.9772C1.25475 18.7148 1.10837 18.365 1.10837 17.9715V7.08365C1.10837 6.69011 1.25475 6.3403 1.5057 6.07795C1.75665 5.81559 2.09125 5.66255 2.46768 5.66255H6.5038C6.81749 5.66255 7.06844 5.40019 7.06844 5.07224V4.43821C7.06844 4.19772 7.15209 3.97909 7.29848 3.82605C7.44487 3.673 7.65399 3.58555 7.88403 3.58555H14.1369C14.3669 3.58555 14.576 3.673 14.7224 3.82605C14.8688 3.97909 14.9525 4.19772 14.9525 4.43821V5.07224C14.9525 5.40019 15.2034 5.66255 15.5171 5.66255H19.5532C19.9297 5.66255 20.2643 5.81559 20.5152 6.07795C20.7662 6.3403 20.9125 6.69011 20.9125 7.08365V17.9715Z" fill="#3FAABC"/>
<path d="M11 7.14924C9.57793 7.14924 8.28135 7.76141 7.3612 8.72338C6.42014 9.70722 5.8555 11.0409 5.8555 12.5276C5.8555 14.0143 6.44105 15.3698 7.3612 16.3317C8.30227 17.3156 9.57793 17.9059 11 17.9059C12.422 17.9059 13.7186 17.2937 14.6388 16.3317C15.5798 15.3479 16.1445 14.0143 16.1445 12.5276C16.1445 11.0409 15.5589 9.68536 14.6388 8.72338C13.7186 7.76141 12.422 7.14924 11 7.14924ZM13.8441 15.5228C13.1122 16.2662 12.1083 16.7471 11 16.7471C9.89162 16.7471 8.88782 16.2662 8.15588 15.5228C7.42394 14.7576 6.98478 13.7082 6.98478 12.5494C6.98478 11.3907 7.44485 10.3413 8.15588 9.57604C8.88782 8.81083 9.89162 8.35171 11 8.35171C12.1083 8.35171 13.1122 8.8327 13.8441 9.57604C14.576 10.3413 15.0152 11.3907 15.0152 12.5494C15.0361 13.7082 14.576 14.7576 13.8441 15.5228Z" fill="#3FAABC"/>
<path d="M18.4449 9.26996C19.0108 9.26996 19.4696 8.79032 19.4696 8.19867C19.4696 7.60701 19.0108 7.12737 18.4449 7.12737C17.8789 7.12737 17.4202 7.60701 17.4202 8.19867C17.4202 8.79032 17.8789 9.26996 18.4449 9.26996Z" fill="#3FAABC"/>
</g>
<defs>
<clipPath id="clip0">
<rect width="22" height="23" fill="white"/>
</clipPath>
</defs>
</svg>
