<svg width="134" height="92" viewBox="0 0 134 92" fill="none" xmlns="http://www.w3.org/2000/svg">
<path d="M96 36L71.25 61L60 49.6364" stroke="#54E851" stroke-width="2" stroke-linecap="round" stroke-linejoin="round"/>
<path d="M55.1904 77.142V78.304H59.0964C58.7464 79.9 57.3324 80.964 55.5404 80.964C53.3284 80.964 51.8164 79.382 51.8164 77.114C51.8164 74.86 53.3704 73.264 55.5404 73.264C57.1924 73.264 58.5924 74.202 59.0124 75.63H60.2864C59.8524 73.53 57.8644 72.06 55.5124 72.06C52.6564 72.06 50.5704 74.202 50.5704 77.114C50.5704 80.026 52.6564 82.168 55.5404 82.168C58.3684 82.168 60.3844 80.096 60.4404 77.142H55.1904ZM65.6744 82.168C67.9564 82.168 69.6784 80.488 69.6784 78.22C69.6784 75.966 67.9564 74.286 65.6744 74.286C63.3784 74.286 61.6564 75.952 61.6564 78.22C61.6564 80.488 63.3784 82.168 65.6744 82.168ZM65.6744 81.02C64.0504 81.02 62.8744 79.844 62.8744 78.22C62.8744 76.61 64.0504 75.434 65.6744 75.434C67.2844 75.434 68.4604 76.61 68.4604 78.234C68.4604 79.844 67.2844 81.02 65.6744 81.02ZM74.9029 82.168C77.1849 82.168 78.9069 80.488 78.9069 78.22C78.9069 75.966 77.1849 74.286 74.9029 74.286C72.6069 74.286 70.8849 75.952 70.8849 78.22C70.8849 80.488 72.6069 82.168 74.9029 82.168ZM74.9029 81.02C73.2789 81.02 72.1029 79.844 72.1029 78.22C72.1029 76.61 73.2789 75.434 74.9029 75.434C76.5129 75.434 77.6889 76.61 77.6889 78.234C77.6889 79.844 76.5129 81.02 74.9029 81.02ZM86.8194 71.752V75.406C86.1194 74.706 85.1394 74.286 84.0194 74.286C81.7514 74.286 80.1134 75.966 80.1134 78.234C80.1134 80.474 81.7514 82.168 84.0194 82.168C85.2094 82.168 86.2314 81.706 86.9314 80.936L87.0854 82.014H88.0094V71.752H86.8194ZM84.1034 81.02C82.5074 81.02 81.3314 79.83 81.3314 78.234C81.3314 76.624 82.5074 75.434 84.1034 75.434C85.7134 75.434 86.8894 76.638 86.8894 78.234C86.8894 79.816 85.7134 81.02 84.1034 81.02ZM90.5488 79.312H91.7528V71.92H90.5488V79.312ZM90.4788 82H91.8368V80.516H90.4788V82Z" fill="#48B4C7"/>
<path d="M70 25C75.5228 25 80 20.5228 80 15C80 9.47715 75.5228 5 70 5C64.4772 5 60 9.47715 60 15C60 20.5228 64.4772 25 70 25Z" stroke="#48B4C7" stroke-linecap="round" stroke-linejoin="round"/>
<path d="M66 17C66 17 67.5 19 70 19C72.5 19 74 17 74 17" stroke="#48B4C7" stroke-linecap="round" stroke-linejoin="round"/>
<path d="M67 12H67.01" stroke="#48B4C7" stroke-linecap="round" stroke-linejoin="round"/>
<path d="M73 12H73.01" stroke="#48B4C7" stroke-linecap="round" stroke-linejoin="round"/>
<path d="M31.5385 60.9285C35.0889 61.4595 38.3975 59.0119 38.9286 55.4616C39.4596 51.9112 37.012 48.6026 33.4617 48.0715C29.9113 47.5404 26.6027 49.9881 26.0716 53.5384C25.5405 57.0888 27.9882 60.3974 31.5385 60.9285Z" stroke="#403F63" stroke-linecap="round" stroke-linejoin="round"/>
<path d="M29.7363 55.4011C29.7363 55.4011 30.5083 56.831 32.1154 57.0714C33.7225 57.3118 34.8791 56.1703 34.8791 56.1703" stroke="#403F63" stroke-linecap="round" stroke-linejoin="round"/>
<path d="M30.8601 52.283L30.867 52.284" stroke="#403F63" stroke-linecap="round" stroke-linejoin="round"/>
<path d="M34.717 52.8599L34.724 52.861" stroke="#403F63" stroke-linecap="round" stroke-linejoin="round"/>
<path d="M123.336 75.7354C126.779 74.7216 128.749 71.1081 127.735 67.6644C126.722 64.2206 123.108 62.2508 119.664 63.2646C116.221 64.2784 114.251 67.8919 115.265 71.3356C116.278 74.7794 119.892 76.7492 123.336 75.7354Z" stroke="#48B4C7" stroke-linecap="round" stroke-linejoin="round"/>
<path d="M119.373 71.4813C119.373 71.4813 120.675 72.4531 122.234 71.9942C123.793 71.5352 124.361 70.0128 124.361 70.0128" stroke="#48B4C7" stroke-linecap="round" stroke-linejoin="round"/>
<path d="M119.079 68.1801L119.085 68.1781" stroke="#48B4C7" stroke-linecap="round" stroke-linejoin="round"/>
<path d="M122.82 67.0787L122.827 67.0767" stroke="#48B4C7" stroke-linecap="round" stroke-linejoin="round"/>
<path d="M119.099 37.9846C122.957 40.1389 127.83 38.7581 129.985 34.9006C132.139 31.0431 130.758 26.1696 126.901 24.0154C123.043 21.8611 118.17 23.2419 116.015 27.0994C113.861 30.9569 115.242 35.8304 119.099 37.9846Z" stroke="#CFE5E9" stroke-linecap="round" stroke-linejoin="round"/>
<path d="M119.426 30.8367C119.426 30.8367 119.694 32.8187 121.44 33.7938C123.186 34.769 125.014 33.9572 125.014 33.9572" stroke="#CFE5E9" stroke-linecap="round" stroke-linejoin="round"/>
<path d="M122.075 27.7344L122.082 27.7384" stroke="#CFE5E9" stroke-linecap="round" stroke-linejoin="round"/>
<path d="M126.266 30.0748L126.273 30.0788" stroke="#CFE5E9" stroke-linecap="round" stroke-linejoin="round"/>
<path d="M28.5527 84.3858C30.3676 83.4975 32.4539 83.3813 34.3527 84.0628C36.2515 84.7443 37.8073 86.1677 38.6777 88.0198" stroke="#CFE5E9" stroke-linecap="round" stroke-linejoin="round"/>
<path d="M26 78.9543C29.2264 77.3752 32.9355 77.1686 36.3111 78.3802C39.6868 79.5917 42.4525 82.1221 44 85.4147" stroke="#CFE5E9" stroke-linecap="round" stroke-linejoin="round"/>
<path d="M32.5949 90.997C33.0148 90.7914 33.192 90.2774 32.9906 89.8489C32.7892 89.4204 32.2855 89.2396 31.8656 89.4451C31.4456 89.6506 31.2685 90.1647 31.4699 90.5932C31.6713 91.0217 32.175 91.2025 32.5949 90.997Z" stroke="#CFE5E9" stroke-linecap="round" stroke-linejoin="round"/>
<path d="M11.2063 22.5246C12.0643 20.2648 13.7669 18.4454 15.9394 17.4666C18.112 16.4878 20.5765 16.4299 22.7909 17.3055" stroke="#CFE5E9" stroke-linecap="round" stroke-linejoin="round"/>
<path d="M4.71216 19.9567C6.23754 15.9393 9.26431 12.7047 13.1266 10.9647C16.9889 9.22465 21.3704 9.12163 25.3071 10.6783" stroke="#CFE5E9" stroke-linecap="round" stroke-linejoin="round"/>
<path d="M19.9151 24.8793C20.1136 24.3565 19.8592 23.7684 19.3468 23.5658C18.8345 23.3632 18.2582 23.6228 18.0597 24.1457C17.8611 24.6685 18.1155 25.2566 18.6279 25.4592C19.1403 25.6618 19.7166 25.4022 19.9151 24.8793Z" stroke="#CFE5E9" stroke-linecap="round" stroke-linejoin="round"/>
</svg>
