<svg width="18" height="15" viewBox="0 0 18 15" fill="none" xmlns="http://www.w3.org/2000/svg">
<path d="M15.7663 2.14929C15.3753 1.78493 14.9111 1.4959 14.4002 1.2987C13.8893 1.1015 13.3417 1 12.7887 1C12.2357 1 11.6881 1.1015 11.1772 1.2987C10.6663 1.4959 10.2021 1.78493 9.81116 2.14929L8.9998 2.90512L8.18843 2.14929C7.39874 1.41366 6.32768 1.00038 5.21089 1.00038C4.09409 1.00038 3.02303 1.41366 2.23334 2.14929C1.44365 2.88493 1 3.88267 1 4.92302C1 5.96336 1.44365 6.9611 2.23334 7.69674L3.0447 8.45256L8.9998 14L14.9549 8.45256L15.7663 7.69674C16.1574 7.33255 16.4677 6.90014 16.6794 6.42422C16.891 5.94829 17 5.43818 17 4.92302C17 4.40785 16.891 3.89774 16.6794 3.42182C16.4677 2.94589 16.1574 2.51348 15.7663 2.14929V2.14929Z" stroke="#9DE7F4" stroke-linecap="round" stroke-linejoin="round"/>
</svg>
