<svg width="134" height="92" viewBox="0 0 134 92" fill="none" xmlns="http://www.w3.org/2000/svg">
<path d="M28.5526 84.3858C30.3675 83.4975 32.4538 83.3813 34.3526 84.0628C36.2514 84.7443 37.8072 86.1677 38.6776 88.0198" stroke="#CFE5E9" stroke-linecap="round" stroke-linejoin="round"/>
<path d="M26 78.9543C29.2264 77.3752 32.9355 77.1686 36.3111 78.3802C39.6868 79.5917 42.4525 82.1221 44 85.4147" stroke="#CFE5E9" stroke-linecap="round" stroke-linejoin="round"/>
<path d="M32.595 90.997C33.0149 90.7914 33.1921 90.2774 32.9907 89.8489C32.7893 89.4204 32.2856 89.2396 31.8657 89.4451C31.4458 89.6506 31.2686 90.1647 31.47 90.5932C31.6714 91.0217 32.1751 91.2025 32.595 90.997Z" stroke="#CFE5E9" stroke-linecap="round" stroke-linejoin="round"/>
<path d="M37.5656 72.2H34.3036V82H37.5656C40.4496 82 42.5356 79.942 42.5356 77.1C42.5356 74.272 40.4496 72.214 37.5656 72.214V72.2ZM37.5376 80.852H35.5356V73.362H37.5376C39.7356 73.362 41.2896 74.944 41.2896 77.1C41.2896 79.27 39.7356 80.852 37.5376 80.852ZM47.8472 82.168C50.1292 82.168 51.8512 80.488 51.8512 78.22C51.8512 75.966 50.1292 74.286 47.8472 74.286C45.5512 74.286 43.8292 75.952 43.8292 78.22C43.8292 80.488 45.5512 82.168 47.8472 82.168ZM47.8472 81.02C46.2232 81.02 45.0472 79.844 45.0472 78.22C45.0472 76.61 46.2232 75.434 47.8472 75.434C49.4572 75.434 50.6332 76.61 50.6332 78.234C50.6332 79.844 49.4572 81.02 47.8472 81.02ZM62.0177 74.286C60.9817 74.286 60.0157 74.832 59.4557 75.714C59.0357 74.832 58.2097 74.286 57.1317 74.286C56.1797 74.286 55.2977 74.734 54.7097 75.49L54.5137 74.44H53.6597V82H54.8497V77.814C54.8497 76.428 55.7597 75.364 56.8657 75.364C57.9577 75.364 58.5877 76.176 58.5877 77.548V82H59.7637V77.814C59.7637 76.428 60.6737 75.364 61.7797 75.364C62.8577 75.364 63.4877 76.176 63.4877 77.548V82H64.6777V77.17C64.6777 75.476 63.6137 74.286 62.0177 74.286ZM75.3205 74.286C74.2845 74.286 73.3185 74.832 72.7585 75.714C72.3385 74.832 71.5125 74.286 70.4345 74.286C69.4825 74.286 68.6005 74.734 68.0125 75.49L67.8165 74.44H66.9625V82H68.1525V77.814C68.1525 76.428 69.0625 75.364 70.1685 75.364C71.2605 75.364 71.8905 76.176 71.8905 77.548V82H73.0665V77.814C73.0665 76.428 73.9765 75.364 75.0825 75.364C76.1605 75.364 76.7905 76.176 76.7905 77.548V82H77.9805V77.17C77.9805 75.476 76.9165 74.286 75.3205 74.286ZM86.7192 74.44L86.5652 75.602C85.8652 74.776 84.8152 74.286 83.5832 74.286C81.3432 74.286 79.6632 75.966 79.6632 78.234C79.6632 80.474 81.3432 82.168 83.5832 82.168C84.8152 82.168 85.8512 81.678 86.5512 80.866L86.6772 82H87.6572V74.44H86.7192ZM83.6672 81.02C82.0712 81.02 80.8812 79.816 80.8812 78.22C80.8812 76.638 82.0712 75.434 83.6672 75.434C85.2772 75.434 86.4392 76.624 86.4392 78.22C86.4392 79.83 85.2772 81.02 83.6672 81.02ZM96.2983 74.44L96.1163 75.616C95.4303 74.79 94.3943 74.286 93.1763 74.286C91.0763 74.286 89.4663 75.924 89.4663 78.024C89.4663 80.138 91.0763 81.762 93.1763 81.762C94.2963 81.762 95.2623 81.342 95.9343 80.642V81.104C95.9343 82.784 94.8983 83.778 93.3863 83.778C92.2943 83.778 91.3423 83.246 91.0063 82.308H89.8163C90.2223 83.904 91.5383 84.87 93.3863 84.87C95.6963 84.87 97.0963 83.386 97.0963 80.95V74.454L96.2983 74.44ZM93.3023 80.628C91.7903 80.628 90.6703 79.508 90.6703 78.024C90.6703 76.54 91.7903 75.42 93.3023 75.42C94.8143 75.42 95.9203 76.526 95.9203 78.024C95.9203 79.522 94.8283 80.628 93.3023 80.628ZM106.558 78.262C106.558 76.05 105.046 74.286 102.75 74.286C100.552 74.286 98.8999 75.98 98.8999 78.22C98.8999 80.474 100.552 82.168 102.75 82.168C104.388 82.168 105.718 81.258 106.362 79.704H105.102C104.64 80.516 103.8 81.006 102.75 81.006C101.322 81.006 100.272 80.082 100.09 78.682H106.53C106.544 78.542 106.558 78.402 106.558 78.262ZM102.75 75.406C104.094 75.406 105.116 76.246 105.368 77.59H100.118C100.356 76.274 101.378 75.406 102.75 75.406ZM108.474 79.312H109.678V71.92H108.474V79.312ZM108.404 82H109.762V80.516H108.404V82Z" fill="#48B4C7"/>
<path d="M70 25C75.5228 25 80 20.5228 80 15C80 9.47715 75.5228 5 70 5C64.4772 5 60 9.47715 60 15C60 20.5228 64.4772 25 70 25Z" stroke="#24CAE6" stroke-linecap="round" stroke-linejoin="round"/>
<path d="M66 19C66 19 67.5 17 70 17C72.5 17 74 19 74 19" stroke="#24CAE6" stroke-linecap="round" stroke-linejoin="round"/>
<path d="M67 12H67.01" stroke="#24CAE6" stroke-linecap="round" stroke-linejoin="round"/>
<path d="M73 12H73.01" stroke="#24CAE6" stroke-linecap="round" stroke-linejoin="round"/>
<path d="M31.5384 60.9285C35.0887 61.4595 38.3974 59.0119 38.9285 55.4616C39.4595 51.9112 37.0119 48.6026 33.4616 48.0715C29.9112 47.5404 26.6026 49.9881 26.0715 53.5384C25.5404 57.0888 27.988 60.3974 31.5384 60.9285Z" stroke="#403F63" stroke-linecap="round" stroke-linejoin="round"/>
<path d="M30 56.3844C30 56.3844 31.1714 55.1442 32.7785 55.3846C34.3856 55.625 35.1428 57.1537 35.1428 57.1537" stroke="#403F63" stroke-linecap="round" stroke-linejoin="round"/>
<path d="M30.8599 52.283L30.8668 52.284" stroke="#403F63" stroke-linecap="round" stroke-linejoin="round"/>
<path d="M34.717 52.8599L34.724 52.861" stroke="#403F63" stroke-linecap="round" stroke-linejoin="round"/>
<path d="M123.336 75.7354C126.779 74.7216 128.749 71.1081 127.735 67.6644C126.722 64.2206 123.108 62.2508 119.664 63.2646C116.221 64.2784 114.251 67.8919 115.265 71.3356C116.278 74.7794 119.892 76.7492 123.336 75.7354Z" stroke="#48B4C7" stroke-linecap="round" stroke-linejoin="round"/>
<path d="M119.342 72.6302C119.342 72.6302 119.935 71.1932 121.494 70.7342C123.053 70.2753 124.33 71.1617 124.33 71.1617" stroke="#48B4C7" stroke-linecap="round" stroke-linejoin="round"/>
<path d="M119.079 68.1801L119.085 68.1781" stroke="#48B4C7" stroke-linecap="round" stroke-linejoin="round"/>
<path d="M122.82 67.0787L122.827 67.0767" stroke="#48B4C7" stroke-linecap="round" stroke-linejoin="round"/>
<path d="M119.099 37.9846C122.957 40.1389 127.83 38.7581 129.985 34.9006C132.139 31.0431 130.758 26.1696 126.901 24.0154C123.043 21.8611 118.17 23.2419 116.015 27.0994C113.861 30.9569 115.242 35.8304 119.099 37.9846Z" stroke="#CFE5E9" stroke-linecap="round" stroke-linejoin="round"/>
<path d="M118 32.2809C118 32.2809 119.763 31.5851 121.509 32.5603C123.255 33.5354 123.588 35.4015 123.588 35.4015" stroke="#CFE5E9" stroke-linecap="round" stroke-linejoin="round"/>
<path d="M122.075 27.7344L122.082 27.7384" stroke="#CFE5E9" stroke-linecap="round" stroke-linejoin="round"/>
<path d="M126.266 30.0748L126.273 30.0788" stroke="#CFE5E9" stroke-linecap="round" stroke-linejoin="round"/>
<path d="M11.2062 22.5246C12.0642 20.2648 13.7668 18.4454 15.9393 17.4666C18.1118 16.4878 20.5764 16.4299 22.7908 17.3055" stroke="#CFE5E9" stroke-linecap="round" stroke-linejoin="round"/>
<path d="M4.71216 19.9567C6.23754 15.9393 9.26431 12.7047 13.1266 10.9647C16.9889 9.22465 21.3704 9.12163 25.3071 10.6783" stroke="#CFE5E9" stroke-linecap="round" stroke-linejoin="round"/>
<path d="M19.9151 24.8793C20.1136 24.3565 19.8592 23.7684 19.3468 23.5658C18.8345 23.3632 18.2582 23.6228 18.0597 24.1457C17.8611 24.6685 18.1155 25.2566 18.6279 25.4592C19.1403 25.6618 19.7166 25.4022 19.9151 24.8793Z" stroke="#CFE5E9" stroke-linecap="round" stroke-linejoin="round"/>
<path d="M81 38L63 56" stroke="#EE1616" stroke-width="2" stroke-linecap="round" stroke-linejoin="round"/>
<path d="M63 38L81 56" stroke="#EE1616" stroke-width="2" stroke-linecap="round" stroke-linejoin="round"/>
</svg>
