<svg width="70" height="70" viewBox="0 0 70 70" fill="none" xmlns="http://www.w3.org/2000/svg">
<g clip-path="url(#clip0)">
<path d="M79.4438 39.5273L77.4461 38.0527L76.4842 38.1057L63.4053 -14.4239L60.8785 -16.2889L41.129 10.4675L42.6016 11.5545L61.4524 -13.9842L61.8964 -13.6564L65.4809 0.740354L63.8599 0.829703L64.2657 2.4594L65.8867 2.36997L67.5098 8.88937L65.8888 8.97857L66.2945 10.6082L67.9155 10.5188L69.5387 17.0382L67.9177 17.1276L68.3236 18.7573L69.9446 18.6679L71.5677 25.1873L69.9466 25.2765L70.3523 26.9061L71.9733 26.8168L73.6857 33.6947L73.2276 33.3565L68.7863 33.6013L67.2775 35.6453L67.6074 36.9704L64.3466 37.1502L65.1444 40.3546L66.8213 40.2623L66.4292 38.6874L68.0131 38.6001L68.322 39.8409L70.8072 41.7537L73.159 41.6007L75.9936 53.0943L78.0278 54.5958L81.517 54.4035L82.7586 52.7214L79.4438 39.5273ZM71.1117 40.0785L69.8368 39.0972L69.6902 38.5084L72.2244 38.3687L71.8186 36.739L69.2844 36.8787L69.1225 36.2288L69.8867 35.1935L72.9388 35.0253L74.1909 35.9495L74.9022 38.8065L74.107 39.8837L71.1117 40.0785ZM80.4168 52.8128L78.3169 52.9285L77.5046 52.3289L74.8322 41.4926L75.2129 41.4678L76.4745 39.7585L77.1571 39.7208L77.9368 40.2962L80.9126 52.1411L80.4168 52.8128Z" fill="white"/>
<path d="M40.2302 11.6849L41.7029 12.772L40.8041 13.9897L39.3314 12.9027L40.2302 11.6849Z" fill="white"/>
<path d="M34.475 26.3011L33.7207 25.7443L33.3189 24.1306L35.5586 21.0963L39.4035 20.8843L38.4732 17.1476L39.9048 15.2081L38.4321 14.1211L37.0005 16.0606L33.2676 16.2664L34.1708 19.8942L31.474 23.5478L32.2119 26.5118L34.1861 27.969L38.2012 27.7477L37.7953 26.1181L34.475 26.3011ZM36.9151 17.7174L37.3208 19.347L35.7559 19.4333L35.3502 17.8037L36.9151 17.7174Z" fill="white"/>
<rect x="0.502345" y="0.499994" width="31.0741" height="23.546" rx="0.5" transform="matrix(1 4.3741e-09 0.00468969 0.999989 18.508 43)" stroke="white"/>
<rect x="0.502345" y="0.499994" width="25.2571" height="17.234" rx="0.5" transform="matrix(1 5.61179e-09 0.00468968 0.999989 21.2102 45.171)" stroke="white"/>
<rect x="0.502345" y="0.499994" width="44.4383" height="3.2864" rx="0.5" transform="matrix(1 9.49018e-09 0.00468968 0.999989 12.0934 63.405)" fill="white" stroke="white"/>
<rect x="0.37809" y="-0.379867" width="10.4662" height="0.759743" transform="matrix(1 5.61179e-09 -0.00468968 -0.999989 28.8154 65.6842)" fill="#48B4C7" stroke="#48B4C7" stroke-width="0.759743"/>
<rect x="24.5776" y="34.6743" width="17.6877" height="9.71714" rx="1" transform="rotate(-37.1199 24.5776 34.6743)" fill="white"/>
<path d="M33.8755 38.2461C35.2361 37.2605 35.6914 35.6219 35.0231 34.0686L34.0755 34.7549C34.3972 35.7444 34.0909 36.7195 33.2244 37.3471C32.0906 38.1684 30.6405 37.9223 29.784 36.7399C28.9275 35.5575 29.1398 34.0949 30.2736 33.2736C31.1078 32.6694 32.1062 32.6499 32.9271 33.2036L33.8666 32.5231C32.64 31.4606 30.9587 31.4067 29.6225 32.3747C27.9461 33.589 27.6045 35.7256 28.8365 37.4263C30.0625 39.1189 32.1991 39.4604 33.8755 38.2461ZM38.6482 30.1337C38.8677 29.5673 38.755 28.8833 38.403 28.3974C37.7988 27.5633 36.6506 27.4442 35.7031 28.1306L33.4193 29.7849L37.5257 35.4538L39.85 33.7702C40.8299 33.0604 41.0889 31.7985 40.4436 30.9077C40.0036 30.3003 39.3344 30.0071 38.6482 30.1337ZM37.5656 29.2016C37.8706 29.6228 37.7754 30.1732 37.33 30.4959L36.0181 31.4462L34.9504 29.9723L36.2624 29.022C36.7078 28.6993 37.2605 28.7805 37.5656 29.2016ZM39.1561 32.9146L37.7956 33.9001L36.634 32.2966L37.9946 31.311C38.4886 30.9532 39.0913 31.0352 39.4257 31.4968C39.7601 31.9584 39.6501 32.5567 39.1561 32.9146Z" fill="#48B4C7"/>
</g>
<defs>
<clipPath id="clip0">
<rect width="70" height="70" fill="white"/>
</clipPath>
</defs>
</svg>
