<svg width="70" height="70" viewBox="0 0 70 70" fill="none" xmlns="http://www.w3.org/2000/svg">
<g clip-path="url(#clip0)">
<path d="M11.0551 53.3581V52.3461H10.2631L10.5711 50.3001H9.46008L9.14108 52.3461H7.48008L7.78808 50.3001H6.66608L6.34708 52.3461H5.19208V53.3581H6.18208L5.94008 54.8761H4.93908V55.9321H5.77508L5.44508 57.9891H6.56708L6.89708 55.9321H8.60208L8.30508 57.9891H9.41608L9.72408 55.9321H10.8021V54.8761H9.90008L10.1201 53.3581H11.0551ZM8.77808 54.8761H7.07308L7.31508 53.3581H8.99808L8.77808 54.8761ZM14.9434 58.1211C16.5054 58.1211 17.7484 57.3071 17.7484 55.7671C17.7484 54.1061 16.3404 53.7651 15.1414 53.4681C14.2284 53.2481 13.4364 53.0611 13.4364 52.3461C13.4364 51.7191 14.0634 51.3671 14.8334 51.3671C15.6364 51.3671 16.2744 51.7851 16.2744 52.5551H17.5284C17.5284 51.1031 16.5384 50.1901 14.8664 50.1901C13.2274 50.1901 12.1714 51.0151 12.1714 52.4011C12.1714 53.9851 13.5244 54.3151 14.7014 54.6011C15.6254 54.8211 16.4504 55.0081 16.4504 55.7781C16.4504 56.4821 15.7574 56.9221 14.9324 56.9221C14.0304 56.9221 13.3264 56.4381 13.3264 55.5801H12.0394C12.0394 57.1531 13.2164 58.1211 14.9434 58.1211ZM21.7248 56.9001C21.0098 56.9001 20.6138 56.5041 20.6138 55.7891V53.1161H22.3738V52.0601H20.6028V50.6741H20.3938L18.3258 52.8741V53.1161H19.3928V55.8881C19.3928 57.1971 20.1958 58.0001 21.4938 58.0001H22.4068V56.9001H21.7248ZM26.2711 58.1541C28.0861 58.1541 29.4391 56.8231 29.4391 55.0301C29.4391 53.2481 28.0861 51.9171 26.2711 51.9171C24.4451 51.9171 23.0921 53.2371 23.0921 55.0301C23.0921 56.8231 24.4451 58.1541 26.2711 58.1541ZM26.2711 56.9881C25.1381 56.9881 24.3351 56.1741 24.3351 55.0301C24.3351 53.8971 25.1381 53.0831 26.2711 53.0831C27.3931 53.0831 28.1961 53.8971 28.1961 55.0301C28.1961 56.1741 27.3931 56.9881 26.2711 56.9881ZM33.9408 51.9171C33.0828 51.9171 32.3348 52.2471 31.7958 52.7971L31.5648 52.0601H30.7508V60.1341H31.9718V57.4391C32.4888 57.8901 33.1708 58.1541 33.9408 58.1541C35.7118 58.1541 37.0208 56.8121 37.0208 55.0301C37.0208 53.2481 35.7118 51.9171 33.9408 51.9171ZM33.8418 56.9881C32.7198 56.9881 31.8948 56.1521 31.8948 55.0301C31.8948 53.9191 32.7198 53.0831 33.8418 53.0831C34.9638 53.0831 35.7778 53.9191 35.7778 55.0301C35.7778 56.1521 34.9638 56.9881 33.8418 56.9881ZM42.7919 51.4881V50.3001H38.3589V58.0001H39.6129V54.8321H42.5059V53.6661H39.6129V51.4881H42.7919ZM44.0277 51.1471H45.2817V49.8821H44.0277V51.1471ZM44.0497 58.0001H45.2707V52.0601H44.0497V58.0001ZM48.9728 58.1541C50.4248 58.1541 51.3818 57.4061 51.3818 56.2511C51.3818 54.7881 50.1608 54.5901 49.1598 54.4251C48.4448 54.3041 47.8398 54.2051 47.8398 53.6771C47.8398 53.2481 48.2578 52.9511 48.9288 52.9511C49.6438 52.9511 50.0838 53.2591 50.1058 53.8201H51.2608C51.2388 52.6761 50.3368 51.9171 48.9618 51.9171C47.5758 51.9171 46.6628 52.6541 46.6628 53.7211C46.6628 55.0961 47.8288 55.3161 48.8188 55.4921C49.5448 55.6131 50.1828 55.7341 50.1828 56.3061C50.1828 56.8011 49.6768 57.0761 49.0168 57.0761C48.3018 57.0761 47.7738 56.7461 47.7408 56.1191H46.5528C46.5858 57.3511 47.5318 58.1541 48.9728 58.1541ZM55.8431 51.9281C55.0511 51.9281 54.3691 52.2361 53.9181 52.7421V49.9371H52.6971V58.0001H53.9181V54.8211C53.9181 53.7761 54.5891 53.0281 55.5131 53.0281C56.4151 53.0281 56.8771 53.6001 56.8771 54.6781V58.0001H58.0981V54.4251C58.0981 52.8961 57.2291 51.9281 55.8431 51.9281ZM64.7267 52.0601L64.5837 52.8081C64.0447 52.2471 63.2857 51.9171 62.4057 51.9171C60.6347 51.9171 59.3147 53.2481 59.3147 55.0301C59.3147 56.8121 60.6347 58.1541 62.4057 58.1541C63.2747 58.1541 64.0227 57.8241 64.5617 57.2851L64.6827 58.0001H65.6617V52.0601H64.7267ZM62.5047 56.9771C61.3827 56.9771 60.5577 56.1411 60.5577 55.0301C60.5577 53.9191 61.3827 53.0831 62.5047 53.0831C63.6267 53.0831 64.4407 53.9081 64.4407 55.0301C64.4407 56.1521 63.6267 56.9771 62.5047 56.9771Z" fill="white"/>
<path d="M50.4988 19.0825L50.5069 19.0909L50.5153 19.0989C51.0819 19.6388 51.4185 20.3835 51.4185 21.2423V36.2742C51.4185 37.0956 51.0566 37.8769 50.5069 38.4257L50.5069 38.4256L50.4988 38.434C49.958 38.9996 49.2116 39.336 48.3505 39.336H23.6773C22.8537 39.336 22.0706 38.9744 21.5209 38.4257L21.521 38.4256L21.5126 38.4176C20.946 37.8777 20.6094 37.133 20.6094 36.2742V21.2423C20.6094 20.4209 20.9712 19.6396 21.5209 19.0908L21.521 19.0909L21.529 19.0825C22.0699 18.5169 22.8163 18.1805 23.6773 18.1805H28.6664H29.1664V17.6805V17.6201C29.1664 17.0022 29.4131 16.4342 29.836 16.012C30.2569 15.5919 30.8255 15.3431 31.4784 15.3431H40.5494C41.1692 15.3431 41.7387 15.5898 42.1616 16.012L42.167 16.0173L42.1725 16.0225C42.5788 16.4043 42.8312 16.9934 42.8312 17.6201V17.6805V18.1805H43.3312H48.3505C49.2116 18.1805 49.958 18.5169 50.4988 19.0825ZM50.7661 36.7742H50.8462V36.2742V21.2423C50.8462 20.5629 50.5794 19.9536 50.1249 19.4999C49.6705 19.0463 49.0605 18.7803 48.3808 18.7803H42.5451C42.3669 18.7803 42.2287 18.6411 42.2287 18.4653V17.5899C42.2287 17.1374 42.0632 16.7043 41.7493 16.3909C41.4355 16.0776 41.0021 15.9127 40.5494 15.9127H31.5086C31.056 15.9127 30.6226 16.0776 30.3088 16.3909C29.9949 16.7043 29.8294 17.1374 29.8294 17.5899V18.4653C29.8294 18.6411 29.6912 18.7803 29.513 18.7803H23.6773C22.9976 18.7803 22.3876 19.0463 21.9332 19.4999C21.4787 19.9536 21.2119 20.5629 21.2119 21.2423V36.2742C21.2119 36.9536 21.4787 37.5629 21.9332 38.0166C22.3876 38.4702 22.9976 38.7362 23.6773 38.7362H48.3505C49.0303 38.7362 49.6403 38.4702 50.0947 38.0166C50.4343 37.6775 50.6692 37.2515 50.7661 36.7742Z" fill="white" stroke="white"/>
<path d="M40.1664 32.6309L40.1665 32.6309L40.1716 32.6258C41.2741 31.5233 41.9752 30.003 41.9448 28.3169C41.9435 26.6439 41.2792 25.125 40.1716 24.0174L40.1716 24.0173L40.1664 24.0123C39.0645 22.9419 37.548 22.2442 35.8674 22.2442C34.1926 22.2442 32.6718 22.9087 31.5632 24.0174L31.5631 24.0173L31.5581 24.0225C30.4877 25.1244 29.79 26.641 29.79 28.3216C29.79 29.9964 30.4545 31.5172 31.5632 32.6258L31.5631 32.6258L31.5683 32.6309C32.6702 33.7013 34.1867 34.399 35.8674 34.399C37.548 34.399 39.0645 33.7013 40.1664 32.6309ZM31.1664 23.5916C32.355 22.403 34.0304 21.6465 35.8674 21.6465C37.7043 21.6465 39.3798 22.403 40.5683 23.5916C41.7569 24.7801 42.5134 26.4556 42.5134 28.2925C42.5134 30.131 41.7849 31.777 40.5683 32.9935C39.3798 34.1821 37.7043 34.9386 35.8674 34.9386C34.029 34.9386 32.3829 34.21 31.1664 32.9935C29.9778 31.805 29.2213 30.1295 29.2213 28.2925C29.2213 26.4541 29.9499 24.8081 31.1664 23.5916Z" fill="white" stroke="white"/>
<path d="M48.0104 23.3635C48.0104 24.0285 47.4713 24.5675 46.8064 24.5675C46.1414 24.5675 45.6023 24.0285 45.6023 23.3635C45.6023 22.6985 46.1414 22.1594 46.8064 22.1594C47.4713 22.1594 48.0104 22.6985 48.0104 23.3635Z" fill="white" stroke="white"/>
<line x1="13.2774" y1="13.5841" x2="57.5829" y2="43.1211" stroke="white"/>
</g>
<defs>
<clipPath id="clip0">
<rect width="70" height="70" fill="white"/>
</clipPath>
</defs>
</svg>
