<svg width="65" height="36" viewBox="0 0 65 36" fill="none" xmlns="http://www.w3.org/2000/svg">
<path d="M10.2773 29.78V28.86H9.55734L9.83734 27H8.82734L8.53734 28.86H7.02734L7.30734 27H6.28734L5.99734 28.86H4.94734V29.78H5.84734L5.62734 31.16H4.71734V32.12H5.47734L5.17734 33.99H6.19734L6.49734 32.12H8.04734L7.77734 33.99H8.78734L9.06734 32.12H10.0473V31.16H9.22734L9.42734 29.78H10.2773ZM8.20734 31.16H6.65734L6.87734 29.78H8.40734L8.20734 31.16ZM13.8122 34.11C15.2322 34.11 16.3622 33.37 16.3622 31.97C16.3622 30.46 15.0822 30.15 13.9922 29.88C13.1622 29.68 12.4422 29.51 12.4422 28.86C12.4422 28.29 13.0122 27.97 13.7122 27.97C14.4422 27.97 15.0222 28.35 15.0222 29.05H16.1622C16.1622 27.73 15.2622 26.9 13.7422 26.9C12.2522 26.9 11.2922 27.65 11.2922 28.91C11.2922 30.35 12.5222 30.65 13.5922 30.91C14.4322 31.11 15.1822 31.28 15.1822 31.98C15.1822 32.62 14.5522 33.02 13.8022 33.02C12.9822 33.02 12.3422 32.58 12.3422 31.8H11.1722C11.1722 33.23 12.2422 34.11 13.8122 34.11ZM19.9771 33C19.3271 33 18.9671 32.64 18.9671 31.99V29.56H20.5671V28.6H18.9571V27.34H18.7671L16.8871 29.34V29.56H17.8571V32.08C17.8571 33.27 18.5871 34 19.7671 34H20.5971V33H19.9771ZM24.1101 34.14C25.7601 34.14 26.9901 32.93 26.9901 31.3C26.9901 29.68 25.7601 28.47 24.1101 28.47C22.4501 28.47 21.2201 29.67 21.2201 31.3C21.2201 32.93 22.4501 34.14 24.1101 34.14ZM24.1101 33.08C23.0801 33.08 22.3501 32.34 22.3501 31.3C22.3501 30.27 23.0801 29.53 24.1101 29.53C25.1301 29.53 25.8601 30.27 25.8601 31.3C25.8601 32.34 25.1301 33.08 24.1101 33.08ZM31.0826 28.47C30.3026 28.47 29.6226 28.77 29.1326 29.27L28.9226 28.6H28.1826V35.94H29.2926V33.49C29.7626 33.9 30.3826 34.14 31.0826 34.14C32.6926 34.14 33.8826 32.92 33.8826 31.3C33.8826 29.68 32.6926 28.47 31.0826 28.47ZM30.9926 33.08C29.9726 33.08 29.2226 32.32 29.2226 31.3C29.2226 30.29 29.9726 29.53 30.9926 29.53C32.0126 29.53 32.7526 30.29 32.7526 31.3C32.7526 32.32 32.0126 33.08 30.9926 33.08ZM39.129 28.08V27H35.099V34H36.239V31.12H38.869V30.06H36.239V28.08H39.129ZM40.2524 27.77H41.3924V26.62H40.2524V27.77ZM40.2724 34H41.3824V28.6H40.2724V34ZM44.748 34.14C46.068 34.14 46.938 33.46 46.938 32.41C46.938 31.08 45.828 30.9 44.918 30.75C44.268 30.64 43.718 30.55 43.718 30.07C43.718 29.68 44.098 29.41 44.708 29.41C45.358 29.41 45.758 29.69 45.778 30.2H46.828C46.808 29.16 45.988 28.47 44.738 28.47C43.478 28.47 42.648 29.14 42.648 30.11C42.648 31.36 43.708 31.56 44.608 31.72C45.268 31.83 45.848 31.94 45.848 32.46C45.848 32.91 45.388 33.16 44.788 33.16C44.138 33.16 43.658 32.86 43.628 32.29H42.548C42.578 33.41 43.438 34.14 44.748 34.14ZM50.9938 28.48C50.2738 28.48 49.6538 28.76 49.2438 29.22V26.67H48.1338V34H49.2438V31.11C49.2438 30.16 49.8538 29.48 50.6938 29.48C51.5138 29.48 51.9338 30 51.9338 30.98V34H53.0438V30.75C53.0438 29.36 52.2538 28.48 50.9938 28.48ZM59.0698 28.6L58.9398 29.28C58.4498 28.77 57.7598 28.47 56.9598 28.47C55.3498 28.47 54.1498 29.68 54.1498 31.3C54.1498 32.92 55.3498 34.14 56.9598 34.14C57.7498 34.14 58.4298 33.84 58.9198 33.35L59.0298 34H59.9198V28.6H59.0698ZM57.0498 33.07C56.0298 33.07 55.2798 32.31 55.2798 31.3C55.2798 30.29 56.0298 29.53 57.0498 29.53C58.0698 29.53 58.8098 30.28 58.8098 31.3C58.8098 32.32 58.0698 33.07 57.0498 33.07Z" fill="white"/>
<path d="M42.4903 4.31417C42.046 3.84954 41.4325 3.57498 40.7343 3.57498H37.2224V3.53274C37.2224 3.00475 37.0108 2.49787 36.6512 2.15996C36.2915 1.80092 35.8049 1.58972 35.276 1.58972H28.9291C28.3791 1.58972 27.8925 1.80092 27.5328 2.15996C27.1732 2.51899 26.9616 3.00475 26.9616 3.53274V3.57498H23.4708C22.7726 3.57498 22.1591 3.84954 21.7148 4.31417C21.2706 4.75769 20.9744 5.39128 20.9744 6.06712V16.5848C20.9744 17.2817 21.2494 17.8942 21.7148 18.3377C22.1591 18.7812 22.7938 19.0769 23.4708 19.0769H40.7343C41.4325 19.0769 42.046 18.8023 42.4903 18.3377C42.9346 17.8942 43.2308 17.2606 43.2308 16.5848V6.06712C43.2308 5.37016 42.9557 4.75769 42.4903 4.31417ZM42.1306 16.5848H42.1095C42.1095 16.9649 41.9614 17.3028 41.7075 17.5563C41.4536 17.8097 41.1151 17.9576 40.7343 17.9576H23.4708C23.09 17.9576 22.7515 17.8097 22.4976 17.5563C22.2437 17.3028 22.0956 16.9649 22.0956 16.5848V6.06712C22.0956 5.68696 22.2437 5.34904 22.4976 5.09561C22.7515 4.84217 23.09 4.69433 23.4708 4.69433H27.554C27.8713 4.69433 28.1252 4.44089 28.1252 4.1241V3.51162C28.1252 3.2793 28.2098 3.06811 28.3579 2.92027C28.506 2.77243 28.7176 2.68795 28.9503 2.68795H35.276C35.5087 2.68795 35.7203 2.77243 35.8684 2.92027C36.0165 3.06811 36.1011 3.2793 36.1011 3.51162V4.1241C36.1011 4.44089 36.355 4.69433 36.6723 4.69433H40.7555C41.1363 4.69433 41.4748 4.84217 41.7287 5.09561C41.9826 5.34904 42.1306 5.68696 42.1306 6.06712V16.5848Z" fill="white"/>
<path d="M32 6C30.6179 6 29.3577 6.56911 28.4634 7.46341C27.5488 8.37805 27 9.61789 27 11C27 12.3821 27.5691 13.6423 28.4634 14.5366C29.378 15.4512 30.6179 16 32 16C33.3821 16 34.6423 15.4309 35.5366 14.5366C36.4512 13.622 37 12.3821 37 11C37 9.61789 36.4309 8.35772 35.5366 7.46341C34.6423 6.56911 33.3821 6 32 6ZM34.7642 13.7846C34.0528 14.4756 33.0772 14.9228 32 14.9228C30.9228 14.9228 29.9472 14.4756 29.2358 13.7846C28.5244 13.0732 28.0976 12.0976 28.0976 11.0203C28.0976 9.94309 28.5447 8.96748 29.2358 8.2561C29.9472 7.54472 30.9228 7.11789 32 7.11789C33.0772 7.11789 34.0528 7.56504 34.7642 8.2561C35.4756 8.96748 35.9024 9.94309 35.9024 11.0203C35.9228 12.0976 35.4756 13.0732 34.7642 13.7846Z" fill="white"/>
<path d="M39.6539 8.7435C40.3123 8.7435 40.8462 8.20969 40.8462 7.55119C40.8462 6.8927 40.3123 6.35889 39.6539 6.35889C38.9954 6.35889 38.4615 6.8927 38.4615 7.55119C38.4615 8.20969 38.9954 8.7435 39.6539 8.7435Z" fill="white"/>
<line x1="16.2774" y1="0.583975" x2="47.2774" y2="21.2506" stroke="white"/>
</svg>
