<svg width="51" height="67" viewBox="0 0 51 67" fill="none" xmlns="http://www.w3.org/2000/svg">
<path d="M29.0528 64.0489C29.6099 64.2019 30.1918 64.2423 30.7654 64.1678C31.339 64.0933 31.893 63.9055 32.3957 63.6149C32.8984 63.3243 33.34 62.9367 33.6954 62.4742C34.0507 62.0117 34.3127 61.4835 34.4665 60.9195L35.227 58.1321L27.6052 52.6411L25.982 58.5908C25.6728 59.7295 25.8225 60.9436 26.3982 61.9668C26.9739 62.99 27.9285 63.7388 29.0528 64.0489Z" fill="white"/>
<path d="M29.4855 46.3895L37.598 52.3705L42.5737 42.6849C46.5591 33.6545 46.7033 26.3344 42.9688 22.5992C40.7786 20.4081 37.9714 20.1968 36.1608 20.9598C36.1403 20.9686 36.1195 20.9761 36.0983 20.983C36.0844 20.9874 34.4888 21.526 32.8656 23.1051C30.7015 25.2094 29.5059 28.0807 29.3102 31.6398L29.4855 46.3895Z" fill="white"/>
<path d="M18.6464 36.1049L9.50355 38.0777L9.13234 40.8597C9.05736 41.4224 9.0959 41.995 9.24579 42.5446C9.39567 43.0943 9.65396 43.6103 10.0059 44.0632C10.3578 44.516 10.7965 44.8969 11.297 45.184C11.7974 45.4712 12.3497 45.659 12.9224 45.7366C13.4951 45.8143 14.077 45.7804 14.6348 45.6368C15.1926 45.4933 15.7154 45.2428 16.1734 44.8998C16.6314 44.5568 17.0156 44.128 17.304 43.6378C17.5925 43.1476 17.7796 42.6056 17.8545 42.0429L18.6464 36.1049Z" fill="white"/>
<path d="M42.9731 33.2716C42.9993 33.1734 42.952 33.0704 42.8604 33.0262L39.8487 31.5755C39.7434 31.5248 39.6168 31.569 39.566 31.6744L39.0146 32.8192C38.9638 32.9245 39.0081 33.0511 39.1135 33.1019L40.6517 33.8428C40.4233 34.0203 40.1596 34.1421 39.8837 34.204C39.8626 34.2047 39.8413 34.2085 39.8204 34.2158C39.8183 34.2165 39.8163 34.2175 39.8141 34.2184C39.4245 34.2911 39.0146 34.2452 38.6478 34.0685C37.6906 33.6074 37.2936 32.4555 37.7513 31.5054C38.2091 30.5549 39.3576 30.1479 40.3144 30.6088C40.6777 30.7838 40.9743 31.0786 41.1722 31.4613C41.2206 31.555 41.3307 31.5988 41.4303 31.564L42.6366 31.142C42.7539 31.101 42.8108 30.9681 42.7597 30.8549C42.4066 30.073 41.7993 29.4436 41.0497 29.0825C40.1846 28.6658 39.2044 28.6125 38.2897 28.9325C37.3749 29.2525 36.6416 29.9051 36.2249 30.7701C35.8082 31.6352 35.7549 32.6154 36.0749 33.5302C36.3949 34.4449 37.0475 35.1782 37.9126 35.5949C38.7776 36.0116 39.7578 36.0649 40.6726 35.7449C41.5874 35.4249 42.3206 34.7723 42.7373 33.9072C42.8358 33.7029 42.9151 33.4891 42.9731 33.2716ZM40.8659 29.4641C41.4584 29.7495 41.9505 30.2265 42.2709 30.8212L41.4577 31.1057C41.2206 30.7185 40.8918 30.4168 40.4982 30.2272C39.9385 29.9576 39.3031 29.9235 38.709 30.1313C38.4857 30.2095 38.2791 30.318 38.0939 30.4527L37.8044 29.625C38.7001 29.0735 39.8499 28.9746 40.8659 29.4641ZM37.4456 29.882L37.7518 30.7576C37.5989 30.924 37.47 31.1133 37.3697 31.3216C37.2693 31.5299 37.2017 31.7487 37.1669 31.972L36.2912 32.2782C36.299 31.8324 36.4006 31.3813 36.6065 30.9539C36.8124 30.5266 37.1017 30.166 37.4456 29.882ZM36.314 32.719L37.1417 32.4295C37.1517 32.6583 37.1957 32.8875 37.2738 33.1108C37.4816 33.7048 37.9043 34.1805 38.464 34.4501C38.8667 34.6441 39.3083 34.7152 39.7511 34.659L40.038 35.4791C39.4005 35.593 38.723 35.5152 38.0964 35.2133C37.0804 34.7239 36.4411 33.7632 36.314 32.719ZM40.4509 35.3768L40.1678 34.5673C40.5523 34.4453 40.9052 34.2253 41.18 33.9329C41.2262 33.8837 41.2462 33.8155 41.2338 33.7492C41.2215 33.6828 41.1783 33.6264 41.1175 33.5971L39.4881 32.8122L39.8557 32.049L42.5142 33.3296C42.4703 33.4638 42.4173 33.5957 42.3558 33.7234C41.9603 34.5443 41.2571 35.1192 40.4509 35.3768Z" fill="#CFE5E9"/>
<path d="M32.0119 28.8864C31.3354 28.5287 30.8115 27.9755 30.4968 27.2866C30.438 27.1579 30.3868 27.0242 30.3443 26.8893C30.0486 25.9498 30.1679 24.9698 30.6805 24.1299C31.068 23.4951 31.6667 23.0022 32.3669 22.7423C33.2943 22.3981 34.2873 22.4634 35.1633 22.9266C35.3138 23.0062 35.4598 23.0978 35.5976 23.199L35.8118 23.3563L34.7216 25.4182L34.4263 25.1109C34.3403 25.0213 34.2411 24.9466 34.1315 24.8886C33.8545 24.7422 33.5377 24.7136 33.2395 24.8079C32.9427 24.9018 32.7017 25.1061 32.5603 25.3832C32.3781 25.7405 32.395 26.1605 32.6052 26.5072C32.702 26.6666 32.837 26.8014 32.996 26.897C33.1215 26.9725 33.258 27.0231 33.4021 27.0475C33.8948 27.1308 34.3825 26.8906 34.6154 26.4501L35.7479 24.3127L37.9557 20.137L39.9263 21.1789L39.786 21.4499C39.7225 21.5726 39.6705 21.7014 39.6315 21.8322C39.478 22.3466 39.5197 22.8994 39.7491 23.3886C39.9526 23.823 40.2853 24.1715 40.7108 24.3964C40.7208 24.4017 40.7208 24.4017 40.8084 24.4562L41.0522 24.6078L40.1692 26.2778L40.0252 26.5501L39.9346 26.5019L39.7536 26.4063C39.7522 26.4055 39.7507 26.4047 39.7491 26.4039L39.6621 26.3579C39.6618 26.3577 39.6612 26.3574 39.6607 26.3571C39.1359 26.0797 38.697 25.7196 38.3184 25.2563C38.2056 25.1181 38.1012 24.9733 38.0061 24.8229L36.5937 27.5092C36.1708 28.3011 35.4635 28.8797 34.6014 29.14C33.902 29.3511 33.1688 29.3346 32.4814 29.0919C32.321 29.0354 32.1632 28.9664 32.0119 28.8864ZM34.8752 23.4711C34.1566 23.0911 33.3419 23.0373 32.5813 23.3197C32.0102 23.5317 31.5219 23.9334 31.2062 24.4505C30.7878 25.1363 30.6903 25.9367 30.9319 26.7041C30.9668 26.815 31.0089 26.9248 31.0571 27.0304C31.3148 27.5948 31.7446 28.0483 32.2999 28.3419C32.4244 28.4077 32.5544 28.4646 32.6865 28.5112C33.2496 28.71 33.8503 28.7235 34.4235 28.5505C35.1277 28.338 35.7051 27.8658 36.0495 27.221L38.0218 23.4701L38.2822 24.0419C38.4167 24.3371 38.5895 24.6148 38.7955 24.867C39.0771 25.2117 39.3976 25.4898 39.7708 25.713L40.2358 24.8335C39.7801 24.5471 39.4211 24.1415 39.191 23.6502C38.8973 23.0239 38.8442 22.3157 39.0409 21.6563C39.0621 21.5855 39.086 21.5152 39.1129 21.4459L38.2121 20.9695L36.2921 24.6007L35.1597 26.7381C34.8024 27.4139 34.0548 27.7823 33.2994 27.6546C33.0792 27.6174 32.8704 27.54 32.6786 27.4249C32.4343 27.2781 32.2269 27.0711 32.0784 26.8265C31.7566 26.2961 31.7315 25.6517 32.0113 25.1031C32.2282 24.678 32.5981 24.3645 33.0534 24.2203C33.51 24.0758 33.995 24.1197 34.4191 24.3439C34.4645 24.3679 34.5084 24.3937 34.5514 24.4213L35.0128 23.5487C34.9676 23.5216 34.9217 23.4956 34.8752 23.4711Z" fill="#48B4C7"/>
<path d="M9.87335 31.7138L19.6743 29.37L25.591 15.8535C26.799 12.4992 26.8182 9.38819 25.6479 6.60605C24.7697 4.51836 23.5107 3.39972 23.4981 3.38877C23.4826 3.37515 23.4658 3.35921 23.4514 3.34452C22.0827 1.93576 19.4163 1.03503 16.5452 2.19858C11.6502 4.18214 8.9271 10.9804 9.07232 20.8522L9.87335 31.7138Z" fill="white"/>
<path d="M17.7496 3.94923L14.6573 3.32414C13.6509 3.1207 12.6666 3.77395 12.4632 4.78037L11.8381 7.87271C11.6347 8.87907 12.2879 9.86333 13.2944 10.0668L16.3867 10.6919C17.3931 10.8953 18.3773 10.242 18.5807 9.23567L19.2058 6.14333C19.4093 5.13692 18.756 4.15266 17.7496 3.94923V3.94923ZM18.1855 9.15577C18.0261 9.94417 17.255 10.4559 16.4665 10.2966L13.3743 9.67148C12.5858 9.5121 12.074 8.74101 12.2334 7.95261L12.8585 4.86027C13.0179 4.07182 13.789 3.56004 14.5774 3.71942L17.6698 4.34452C18.4582 4.50389 18.9699 5.27498 18.8105 6.06343L18.1855 9.15577Z" fill="#48B4C7"/>
<path d="M15.8949 5.1643C14.8783 4.9588 13.8841 5.61866 13.6786 6.63526C13.4731 7.65186 14.133 8.64607 15.1496 8.85157C16.1662 9.05707 17.1604 8.39721 17.3659 7.38061C17.5714 6.36401 16.9115 5.3698 15.8949 5.1643ZM15.2295 8.45629C14.4309 8.29486 13.9124 7.5138 14.0739 6.71516C14.2353 5.91658 15.0164 5.39816 15.815 5.55958C16.6136 5.72102 17.132 6.50212 16.9706 7.30071C16.8091 8.09935 16.0281 8.61773 15.2295 8.45629Z" fill="#48B4C7"/>
<path d="M17.9145 4.89137C17.6141 4.83064 17.3203 5.02565 17.2596 5.32602C17.1989 5.62644 17.3938 5.92024 17.6943 5.98097C17.9947 6.04169 18.2885 5.8467 18.3492 5.54628C18.41 5.24585 18.2149 4.9521 17.9145 4.89137ZM17.7742 5.58563C17.6918 5.56898 17.6383 5.48834 17.6549 5.40593C17.6716 5.32346 17.7522 5.26999 17.8346 5.28665C17.9171 5.30332 17.9706 5.38391 17.9539 5.46637C17.9373 5.54878 17.8566 5.6023 17.7742 5.58563Z" fill="#48B4C7"/>
<path d="M22.1225 10.8442C23.375 11.4672 23.8705 13.0884 23.2123 14.4167C23.0581 14.7278 22.9248 15.0187 22.8103 15.2907C22.7397 15.4585 22.8078 15.6428 22.9546 15.7157C22.9762 15.7265 22.9996 15.7348 23.0244 15.7403L23.4652 15.8381C23.4839 15.8423 23.5017 15.8486 23.5182 15.8568C23.6179 15.9064 23.6739 16.024 23.6433 16.1417C23.6 16.3082 23.4445 16.4207 23.2809 16.4033L22.5589 16.3614C22.3766 16.3508 22.2098 16.4837 22.1699 16.6703C21.7195 18.7757 23.1509 19.2449 23.0299 19.4882C22.8781 19.7938 21.8505 19.3369 21.7118 19.3879C21.5731 19.4388 21.4282 19.9485 21.1803 19.9378C21.1335 19.9358 21.0762 19.9147 21.0098 19.8817C20.8569 19.8057 20.6562 19.6666 20.4282 19.5533C20.2304 19.455 20.012 19.376 19.7863 19.3745C19.1875 19.3703 18.5045 19.5789 17.9287 19.2927C17.3528 19.0065 17.1068 18.3361 16.7419 17.8614C16.6043 17.6824 16.4096 17.556 16.2118 17.4577C15.9837 17.3444 15.7517 17.2684 15.5987 17.1923C15.5324 17.1594 15.4809 17.1264 15.4511 17.0904C15.2929 16.8991 15.6117 16.4759 15.5685 16.3346C15.5254 16.1933 14.5407 15.6501 14.6926 15.3445C14.8135 15.1011 16.0519 15.9588 17.4581 14.3285C17.5827 14.184 17.588 13.9708 17.4695 13.8319L17.0001 13.2816C16.8874 13.1617 16.8832 12.9698 16.9898 12.8348C17.0652 12.7393 17.1927 12.7129 17.2924 12.7625C17.3089 12.7707 17.3247 12.781 17.3394 12.7935L17.6835 13.0858C17.7028 13.1023 17.7236 13.1158 17.7452 13.1266C17.892 13.1995 18.08 13.1425 18.1711 12.9849C18.3188 12.7294 18.4702 12.4476 18.6251 12.1368C19.2864 10.8101 20.8696 10.222 22.1225 10.8442ZM22.3845 10.3175L22.3843 10.3174L22.3841 10.3174C22.0101 10.1316 21.6064 10.03 21.1842 10.0154C20.7789 10.0013 20.3749 10.0677 19.9833 10.2126C19.5923 10.3573 19.234 10.5729 18.9185 10.8534C18.5904 11.1451 18.3241 11.4933 18.1271 11.8885C18.0304 12.0826 17.933 12.2691 17.836 12.4459L17.7079 12.3372C17.661 12.2973 17.6092 12.2631 17.5542 12.2358C17.3953 12.1568 17.2104 12.1356 17.0334 12.1763C16.8488 12.2187 16.6807 12.3261 16.5601 12.4789C16.273 12.8426 16.2813 13.358 16.5772 13.6848L16.9217 14.0887C16.1653 14.8842 15.542 14.7989 15.1223 14.7415C15.0109 14.7263 14.9147 14.7131 14.8158 14.7153C14.4218 14.7239 14.2499 14.985 14.1944 15.0968C14.0879 15.311 14.0866 15.5542 14.1909 15.7815C14.2427 15.8946 14.3214 16.0058 14.4314 16.1214C14.5813 16.279 14.7724 16.4267 14.9279 16.5462C14.9027 16.6179 14.8789 16.6965 14.8631 16.7798C14.7977 17.1259 14.9105 17.3516 15.0167 17.4799C15.1174 17.6016 15.2477 17.6747 15.3369 17.719C15.4242 17.7624 15.5201 17.801 15.6216 17.842C15.7305 17.8858 15.8431 17.9312 15.95 17.9844C16.1157 18.0667 16.2286 18.1489 16.2953 18.2357C16.3868 18.3548 16.4755 18.4981 16.5693 18.6498C16.8305 19.0722 17.1266 19.5509 17.6669 19.8194C18.2072 20.0879 18.7676 20.0349 19.262 19.9881C19.4396 19.9713 19.6073 19.9554 19.7576 19.9564C19.867 19.9572 20.0007 19.9976 20.1664 20.08C20.2733 20.1331 20.3775 20.1955 20.4782 20.2557C20.5721 20.3119 20.6608 20.365 20.748 20.4084C20.8373 20.4528 20.9742 20.5125 21.1321 20.5193C21.2985 20.5265 21.5464 20.4802 21.7828 20.219C21.8397 20.1561 21.888 20.0897 21.9299 20.0263C22.1191 20.0781 22.3523 20.1412 22.5683 20.1656C22.7269 20.1834 22.863 20.179 22.9845 20.152C23.2286 20.0979 23.4217 19.9501 23.5282 19.7358C23.5838 19.624 23.6881 19.3294 23.457 19.0101C23.399 18.9299 23.3304 18.8612 23.251 18.7816C22.9518 18.4817 22.5075 18.0364 22.6849 16.9531L23.2148 16.9838C23.654 17.0223 24.0698 16.7178 24.1864 16.2693C24.2354 16.0809 24.2196 15.882 24.1419 15.7093C24.0674 15.5437 23.9389 15.409 23.7801 15.3301C23.725 15.3027 23.6666 15.2821 23.6064 15.2687L23.4424 15.2323C23.5247 15.0483 23.6145 14.858 23.7108 14.6637C23.9071 14.2677 24.0235 13.8445 24.0569 13.4058C24.089 12.9846 24.0434 12.5684 23.9214 12.1687C23.7994 11.7689 23.6074 11.4066 23.3507 11.0918C23.0833 10.764 22.7582 10.5035 22.3845 10.3175Z" fill="#CFE5E9"/>
<path d="M15.6676 26.0815C15.7093 26.0233 15.7037 25.9437 15.6543 25.8918L14.0306 24.1872C13.9738 24.1275 13.8794 24.1253 13.8198 24.1821L13.1718 24.7992C13.1122 24.8561 13.1099 24.9505 13.1667 25.0101L13.996 25.8808C13.8014 25.9409 13.5974 25.9556 13.4001 25.9278C13.3861 25.923 13.3711 25.9202 13.3555 25.9198C13.3539 25.9198 13.3523 25.9199 13.3507 25.92C13.076 25.871 12.8173 25.7389 12.6195 25.5313C12.1034 24.9895 12.1283 24.1317 12.666 23.6195C13.204 23.1071 14.062 23.1244 14.5778 23.666C14.7737 23.8717 14.8958 24.1396 14.9311 24.441C14.9397 24.5148 15.0013 24.571 15.0756 24.5728L15.9754 24.5947C16.0628 24.5968 16.1334 24.5234 16.1278 24.4361C16.0895 23.8331 15.8459 23.2674 15.4418 22.8431C14.9754 22.3535 14.3428 22.0747 13.6605 22.0581C12.9782 22.0415 12.3328 22.2892 11.8431 22.7555C11.3535 23.2219 11.0747 23.8545 11.0581 24.5368C11.0415 25.2191 11.2892 25.8645 11.7556 26.3542C12.2219 26.8438 12.8545 27.1226 13.5368 27.1392C14.2192 27.1558 14.8646 26.9081 15.3542 26.4417C15.4698 26.3316 15.5753 26.2104 15.6676 26.0815ZM15.2258 23.0488C15.5452 23.3842 15.7509 23.8209 15.8141 24.2924L15.2076 24.2776C15.1476 23.9636 15.006 23.6831 14.7938 23.4603C14.492 23.1435 14.0818 22.963 13.6387 22.9523C13.4721 22.9482 13.3091 22.9683 13.1535 23.0111L13.1685 22.3937C13.8958 22.2531 14.678 22.4738 15.2258 23.0488ZM12.8682 22.4738L12.8523 23.1269C12.7102 23.1985 12.5782 23.2912 12.4603 23.4035C12.3424 23.5158 12.2434 23.6432 12.165 23.7816L11.5119 23.7657C11.6279 23.4739 11.8069 23.2019 12.0488 22.9715C12.2908 22.7411 12.5711 22.5755 12.8682 22.4738ZM11.4173 24.0618L12.0346 24.0768C11.9844 24.2301 11.9563 24.392 11.9523 24.5586C11.9415 25.0017 12.1017 25.4202 12.4035 25.737C12.6206 25.9649 12.8939 26.1216 13.1997 26.1946L13.1848 26.8064C12.7364 26.7229 12.3094 26.5032 11.9715 26.1485C11.4238 25.5734 11.2414 24.7814 11.4173 24.0618ZM13.4823 26.8416L13.497 26.2378C13.7807 26.253 14.0679 26.1958 14.3217 26.0715C14.3643 26.0505 14.3945 26.0106 14.4028 25.9638C14.4112 25.917 14.3968 25.8691 14.364 25.8347L13.4855 24.9124L13.9175 24.5009L15.3508 26.0057C15.2885 26.0832 15.2208 26.1569 15.1485 26.2258C14.6838 26.6683 14.0776 26.8723 13.4823 26.8416Z" fill="#48B4C7"/>
<path d="M12 14C10.3432 14 9 15.2435 9 16.7776C9 17.6518 9.43612 18.4314 10.1179 18.9406V20L11.1394 19.4394C11.412 19.5148 11.7008 19.5556 12 19.5556C13.6568 19.5556 15 18.3121 15 16.778C15 15.2439 13.6568 14 12 14ZM12.2981 17.7406L11.5343 16.9258L10.0436 17.7406L11.6835 15.9999L12.4661 16.8147L13.938 15.9999L12.2981 17.7406Z" fill="#48B4C7"/>
<path d="M32.5 33C31.1194 33 30 34.0362 30 35.3147C30 36.0431 30.3634 36.6928 30.9316 37.1172V38L31.7828 37.5328C32.01 37.5956 32.2506 37.6297 32.5 37.6297C33.8806 37.6297 35 36.5934 35 35.315C35 34.0366 33.8806 33 32.5 33ZM32.7484 36.1172L32.1119 35.4381L30.8697 36.1172L32.2362 34.6666L32.8884 35.3456L34.115 34.6666L32.7484 36.1172Z" fill="#CFE5E9"/>
<g clip-path="url(#clip0)">
<path d="M37.3051 39.7233L38.1672 39.6702L38.0633 37.9807C37.9131 37.9669 37.3984 37.9466 36.8026 37.9832C35.5596 38.0597 34.7622 38.9918 34.8617 40.6087L34.9533 42.0968L33.5815 42.1812L33.6978 44.07L35.0695 43.9855L35.3619 48.7379L37.0438 48.6344L36.7513 43.8825L38.0676 43.8015L38.1603 41.8999L36.6347 41.9938L36.5546 40.6925C36.5214 40.1466 36.6291 39.7649 37.3051 39.7233Z" fill="#48B4C7"/>
</g>
<defs>
<clipPath id="clip0">
<rect width="9.4618" height="10.6459" fill="white" transform="translate(30.9017 38.3463) rotate(-3.52151)"/>
</clipPath>
</defs>
</svg>
