<svg width="70" height="70" viewBox="0 0 70 70" fill="none" xmlns="http://www.w3.org/2000/svg">
<g clip-path="url(#clip0)">
<path d="M58.2045 35.8016L59.4408 35.7255L59.2917 33.3029C59.0764 33.283 58.3383 33.2539 57.4841 33.3064C55.7016 33.4161 54.5582 34.7527 54.7009 37.0712L54.8322 39.2049L52.8653 39.326L53.032 42.0342L54.9989 41.9132L55.4183 48.7277L57.8298 48.5793L57.4105 41.7654L59.2979 41.6493L59.4308 38.9226L57.2433 39.0572L57.1284 37.1914C57.0808 36.4086 57.2352 35.8612 58.2045 35.8016V35.8016Z" fill="#48B4C7"/>
<path d="M26.0308 48.9906L12.9208 51.8195L12.3886 55.8086C12.281 56.6155 12.3363 57.4365 12.5512 58.2247C12.7661 59.0128 13.1365 59.7527 13.6411 60.4021C14.1458 61.0515 14.7749 61.5976 15.4924 62.0093C16.21 62.421 17.0019 62.6903 17.8232 62.8017C18.6444 62.9131 19.4787 62.8645 20.2786 62.6586C21.0784 62.4527 21.8281 62.0936 22.4848 61.6018C23.1415 61.1099 23.6924 60.495 24.106 59.7921C24.5196 59.0892 24.7878 58.3121 24.8954 57.5052L26.0308 48.9906Z" fill="white"/>
<path d="M13.774 43.2888L27.8276 39.928L36.3116 20.5465C38.0438 15.7368 38.0713 11.2759 36.3931 7.28658C35.134 4.29303 33.3286 2.689 33.3106 2.6733C33.2884 2.65376 33.2643 2.63091 33.2436 2.60985C31.281 0.589809 27.4577 -0.701754 23.3408 0.966677C16.3218 3.81091 12.4171 13.559 12.6254 27.7142L13.774 43.2888Z" fill="white"/>
<path d="M25.0678 3.47685L20.6337 2.58054C19.1906 2.28883 17.7793 3.22553 17.4876 4.66863L16.5912 9.10276C16.2995 10.5458 17.2362 11.9571 18.6794 12.2488L23.1135 13.1452C24.5565 13.4369 25.9678 12.5002 26.2595 11.0571L27.1559 6.623C27.4476 5.1799 26.5109 3.76857 25.0678 3.47685V3.47685ZM25.6927 10.9426C25.4642 12.0731 24.3585 12.8069 23.228 12.5784L18.7939 11.682C17.6634 11.4535 16.9295 10.3478 17.158 9.21734L18.0544 4.78321C18.2829 3.65264 19.3886 2.91881 20.5191 3.14734L24.9533 4.04367C26.0838 4.27219 26.8176 5.37786 26.5891 6.50843L25.6927 10.9426Z" fill="#48B4C7"/>
<path d="M22.4084 5.2192C20.9507 4.92453 19.5251 5.87071 19.2304 7.32842C18.9357 8.78612 19.8819 10.2117 21.3396 10.5064C22.7973 10.8011 24.2229 9.85489 24.5176 8.39718C24.8123 6.93947 23.8661 5.51386 22.4084 5.2192V5.2192ZM21.4542 9.9396C20.3091 9.70813 19.5657 8.58816 19.7972 7.44299C20.0287 6.29789 21.1487 5.55452 22.2938 5.78599C23.439 6.01748 24.1823 7.13751 23.9508 8.28261C23.7193 9.42778 22.5994 10.1711 21.4542 9.9396V9.9396Z" fill="#48B4C7"/>
<path d="M25.3043 4.82795C24.8736 4.74087 24.4524 5.02049 24.3653 5.4512C24.2782 5.88197 24.5577 6.30325 24.9885 6.39033C25.4193 6.47741 25.8406 6.1978 25.9277 5.76702C26.0147 5.33624 25.7351 4.91503 25.3043 4.82795ZM25.1031 5.82346C24.9849 5.79957 24.9082 5.68394 24.9321 5.56577C24.956 5.44753 25.0716 5.37086 25.1898 5.39474C25.308 5.41865 25.3848 5.5342 25.3609 5.65245C25.337 5.77061 25.2214 5.84736 25.1031 5.82346Z" fill="#48B4C7"/>
<path d="M32.4681 12.5278C34.4552 13.5162 35.2413 16.0882 34.1969 18.1954C33.9523 18.689 33.7409 19.1504 33.5593 19.582C33.4472 19.8482 33.5553 20.1405 33.7882 20.2563C33.8225 20.2733 33.8595 20.2865 33.8989 20.2953L34.5982 20.4504C34.6279 20.457 34.6561 20.4671 34.6824 20.4801C34.8405 20.5587 34.9293 20.7453 34.8807 20.9321C34.8121 21.1961 34.5654 21.3747 34.3059 21.347L33.1604 21.2806C32.8712 21.2638 32.6066 21.4747 32.5433 21.7706C31.8287 25.1108 34.0996 25.8551 33.9077 26.2412C33.6667 26.726 32.0365 26.0011 31.8165 26.0819C31.5965 26.1627 31.3667 26.9713 30.9733 26.9544C30.8991 26.9512 30.8082 26.9177 30.7029 26.8654C30.4602 26.7448 30.1418 26.5241 29.7801 26.3443C29.4663 26.1884 29.1198 26.0631 28.7617 26.0607C27.8118 26.054 26.7284 26.385 25.8148 25.931C24.9012 25.4769 24.5109 24.4134 23.932 23.6602C23.7138 23.3762 23.4048 23.1757 23.091 23.0198C22.7293 22.84 22.3611 22.7194 22.1184 22.5988C22.0132 22.5465 21.9315 22.4942 21.8842 22.437C21.6332 22.1336 22.1389 21.4622 22.0705 21.238C22.0021 21.0139 20.4399 20.1521 20.6809 19.6673C20.8728 19.2812 22.8373 20.6419 25.0683 18.0554C25.266 17.8263 25.2743 17.4881 25.0863 17.2676L24.3417 16.3946C24.1629 16.2045 24.1562 15.9 24.3253 15.6859C24.4449 15.5343 24.6472 15.4925 24.8053 15.5711C24.8316 15.5841 24.8566 15.6005 24.8799 15.6203L25.4258 16.084C25.4565 16.1101 25.4894 16.1316 25.5237 16.1487C25.7566 16.2644 26.0549 16.174 26.1994 15.924C26.4337 15.5186 26.6739 15.0715 26.9196 14.5785C27.9688 12.4736 30.4804 11.5408 32.4681 12.5278ZM32.8837 11.6923L32.8834 11.6921L32.8831 11.692C32.2898 11.3974 31.6493 11.2362 30.9795 11.2129C30.3365 11.1906 29.6956 11.2959 29.0744 11.5258C28.4541 11.7554 27.8857 12.0975 27.3851 12.5424C26.8646 13.0051 26.4422 13.5576 26.1296 14.1846C25.9762 14.4925 25.8216 14.7884 25.6677 15.0689L25.4646 14.8963C25.3901 14.833 25.308 14.7789 25.2207 14.7355C24.9687 14.6101 24.6752 14.5766 24.3945 14.6411C24.1016 14.7083 23.8349 14.8788 23.6435 15.1213C23.1881 15.6983 23.2014 16.5158 23.6708 17.0343L24.2173 17.675C23.0173 18.9371 22.0285 18.8018 21.3626 18.7107C21.1859 18.6865 21.0333 18.6656 20.8764 18.6691C20.2512 18.6828 19.9786 19.097 19.8905 19.2744C19.7216 19.6142 19.7196 20 19.8849 20.3605C19.9672 20.5401 20.0921 20.7165 20.2665 20.8999C20.5043 21.1498 20.8075 21.3841 21.0542 21.5738C21.0142 21.6875 20.9764 21.8122 20.9514 21.9444C20.8476 22.4935 21.0266 22.8514 21.195 23.055C21.3548 23.2481 21.5615 23.364 21.7031 23.4344C21.8416 23.5032 21.9937 23.5645 22.1547 23.6294C22.3275 23.699 22.5061 23.771 22.6757 23.8553C22.9386 23.986 23.1178 24.1164 23.2235 24.254C23.3687 24.443 23.5093 24.6703 23.6582 24.911C24.0727 25.5811 24.5424 26.3405 25.3995 26.7665C26.2567 27.1926 27.1456 27.1084 27.93 27.0341C28.2118 27.0074 28.4779 26.9823 28.7162 26.9839C28.8898 26.9851 29.1019 27.0492 29.3648 27.1799C29.5344 27.2642 29.6997 27.3631 29.8594 27.4587C30.0084 27.5479 30.1491 27.6321 30.2876 27.701C30.4292 27.7713 30.6463 27.8661 30.8968 27.8769C31.1608 27.8882 31.5542 27.8148 31.9292 27.4005C32.0195 27.3007 32.0961 27.1953 32.1625 27.0947C32.4627 27.1769 32.8326 27.2771 33.1753 27.3157C33.4269 27.3441 33.6428 27.337 33.8357 27.2942C34.2229 27.2083 34.5292 26.9738 34.6981 26.634C34.7863 26.4565 34.9518 25.9892 34.5852 25.4825C34.4932 25.3554 34.3844 25.2464 34.2585 25.1201C33.7838 24.6443 33.0789 23.9378 33.3603 22.2193L34.2009 22.268C34.8977 22.3291 35.5574 21.8459 35.7424 21.1345C35.8201 20.8356 35.795 20.5201 35.6717 20.246C35.5536 19.9833 35.3497 19.7697 35.0977 19.6444C35.0104 19.601 34.9177 19.5683 34.8222 19.5471L34.562 19.4894C34.6926 19.1974 34.8351 18.8954 34.9879 18.5872C35.2992 17.959 35.4839 17.2876 35.537 16.5916C35.5879 15.9235 35.5155 15.2632 35.3219 14.629C35.1284 13.9948 34.8237 13.4201 34.4165 12.9207C33.9924 12.4006 33.4766 11.9873 32.8837 11.6923Z" fill="#48B4C7"/>
<path d="M22.1178 40.913C22.208 40.7887 22.1993 40.621 22.0969 40.5135L18.7309 36.9797C18.6131 36.8561 18.4138 36.8547 18.2858 36.9767L16.8943 38.3021C16.7662 38.4241 16.7578 38.6233 16.8756 38.7469L18.5947 40.5518C18.1815 40.6859 17.7501 40.7244 17.3345 40.6731C17.3051 40.6635 17.2736 40.6582 17.2406 40.658C17.2372 40.658 17.2339 40.6584 17.2305 40.6585C16.652 40.5655 16.1105 40.2965 15.7005 39.8661C14.6307 38.7429 14.715 36.9335 15.8699 35.8335C17.0252 34.7331 18.8366 34.7378 19.906 35.8605C20.312 36.2868 20.56 36.8473 20.6233 37.4814C20.6387 37.6366 20.7668 37.7528 20.9236 37.7539L22.8232 37.7666C23.0078 37.7678 23.1596 37.6105 23.1511 37.4266C23.0927 36.1567 22.5991 34.9729 21.7613 34.0933C20.7944 33.0782 19.4687 32.5139 18.0283 32.5043C16.5878 32.4946 15.2154 33.0409 14.1639 34.0425C13.1124 35.044 12.5001 36.3882 12.4396 37.8274C12.3792 39.2666 12.8784 40.6182 13.8452 41.6333C14.8121 42.6484 16.1378 43.2127 17.5782 43.2223C19.0187 43.232 20.3911 42.6857 21.4426 41.6842C21.6909 41.4476 21.9181 41.1882 22.1178 40.913V40.913ZM21.2974 34.5351C21.9597 35.2304 22.3778 36.1435 22.4938 37.1352L21.2134 37.1266C21.0984 36.4667 20.8097 35.8806 20.3698 35.4187C19.7442 34.7619 18.8845 34.3967 17.9491 34.3905C17.5974 34.3881 17.2522 34.4366 16.9221 34.5325L16.9768 33.2303C18.5181 32.9067 20.1619 33.343 21.2974 34.5351V34.5351ZM16.3395 33.4104L16.2817 34.788C15.9788 34.9442 15.6966 35.1445 15.4434 35.3857C15.1901 35.6269 14.9764 35.8991 14.8056 36.1939L13.4268 36.1847C13.6826 35.5651 14.0709 34.985 14.5904 34.4902C15.1099 33.9954 15.7081 33.6357 16.3395 33.4104V33.4104ZM13.216 36.8125L14.5192 36.8212C14.4074 37.1462 14.3422 37.4887 14.3274 37.84C14.2882 38.7747 14.6111 39.6511 15.2367 40.3079C15.6867 40.7804 16.2582 41.1005 16.9012 41.2432L16.847 42.5335C15.9032 42.3743 15.0094 41.9268 14.309 41.1915C13.1735 39.9994 12.8177 38.3363 13.216 36.8125V36.8125ZM17.4741 42.5968L17.5276 41.3232C18.1263 41.3447 18.7351 41.2134 19.2756 40.9418C19.3664 40.8961 19.4316 40.8107 19.451 40.7118C19.4704 40.6128 19.4418 40.5123 19.3738 40.4409L17.5527 38.529L18.4803 37.6454L21.4516 40.7649C21.3172 40.9306 21.1714 41.0885 21.0161 41.2364C20.0183 42.1868 18.7302 42.6395 17.4741 42.5968V42.5968Z" fill="#48B4C7"/>
<g clip-path="url(#clip1)">
<path d="M16.5863 22.1149C14.3968 22.1149 12.6216 23.7582 12.6216 25.7857C12.6216 26.9409 13.198 27.9712 14.0989 28.6442V30.0443L15.4489 29.3034C15.8092 29.403 16.1908 29.457 16.5863 29.457C18.7758 29.457 20.551 27.8136 20.551 25.7862C20.551 23.7587 18.7758 22.1149 16.5863 22.1149ZM16.9803 27.0584L15.9708 25.9814L14.0008 27.0584L16.168 24.7578L17.2023 25.8347L19.1475 24.7578L16.9803 27.0584Z" fill="#48B4C7"/>
</g>
<path d="M40.678 76.5056C41.5106 76.7343 42.3804 76.7947 43.2377 76.6834C44.095 76.5721 44.9229 76.2913 45.6743 75.857C46.4257 75.4227 47.0857 74.8434 47.6168 74.1522C48.1479 73.461 48.5395 72.6714 48.7694 71.8286L49.906 67.6624L38.5144 59.4556L36.0884 68.348C35.6264 70.05 35.8501 71.8646 36.7105 73.3939C37.5709 74.9231 38.9977 76.0422 40.678 76.5056V76.5056Z" fill="white"/>
<path d="M41.5994 50.8255L54.2279 59.8663L61.8276 45.4235C67.9008 31.9506 68.0442 20.9956 62.22 15.364C58.8043 12.0604 54.4546 11.7135 51.659 12.8358C51.6274 12.8487 51.5952 12.8598 51.5626 12.8698C51.541 12.8763 49.0758 13.6649 46.5793 16.0108C43.2511 19.1368 41.4309 23.4215 41.1666 28.7465L41.5994 50.8255Z" fill="white"/>
<path d="M60.8456 39.2656C60.8916 39.0934 60.8086 38.9128 60.648 38.8355L55.3687 36.2923C55.184 36.2034 54.9621 36.281 54.8731 36.4657L53.9064 38.4724C53.8174 38.6572 53.8951 38.879 54.0798 38.968L56.7762 40.2669C56.3759 40.578 55.9136 40.7915 55.4299 40.9001C55.393 40.9012 55.3557 40.9079 55.319 40.9207C55.3152 40.9221 55.3117 40.9238 55.308 40.9252C54.625 41.0527 53.9064 40.9724 53.2635 40.6626C51.5854 39.8543 50.8895 37.8349 51.6918 36.1694C52.4944 34.5033 54.5077 33.7898 56.185 34.5977C56.8219 34.9045 57.3418 35.4213 57.6887 36.0922C57.7736 36.2564 57.9665 36.3332 58.1411 36.2721L60.2558 35.5324C60.4613 35.4605 60.5612 35.2276 60.4716 35.0291C59.8525 33.6585 58.788 32.555 57.4739 31.922C55.9574 31.1915 54.2392 31.0982 52.6356 31.6591C51.032 32.22 49.7466 33.3641 49.0161 34.8805C48.2856 36.3969 48.1922 38.1152 48.7532 39.7188C49.3141 41.3224 50.4581 42.6078 51.9745 43.3383C53.491 44.0688 55.2092 44.1622 56.8128 43.6012C58.4165 43.0403 59.7019 41.8963 60.4324 40.3798C60.6049 40.0217 60.7439 39.6468 60.8456 39.2656V39.2656ZM57.1517 32.591C58.1903 33.0913 59.053 33.9276 59.6146 34.97L58.1891 35.4687C57.7736 34.79 57.1972 34.2612 56.5072 33.9288C55.526 33.4561 54.4121 33.3964 53.3707 33.7607C52.9792 33.8976 52.6171 34.0879 52.2924 34.324L51.7849 32.8732C53.3551 31.9064 55.3707 31.733 57.1517 32.591V32.591ZM51.1559 33.3236L51.6928 34.8586C51.4248 35.1502 51.1988 35.482 51.0228 35.8472C50.8469 36.2124 50.7283 36.5959 50.6674 36.9873L49.1324 37.5242C49.146 36.7426 49.3241 35.9519 49.685 35.2027C50.0459 34.4535 50.5532 33.8214 51.1559 33.3236V33.3236ZM49.1723 38.2969L50.6231 37.7894C50.6408 38.1905 50.7178 38.5922 50.8547 38.9837C51.219 40.0251 51.96 40.8589 52.9412 41.3315C53.6471 41.6716 54.4213 41.7962 55.1975 41.6976L55.7004 43.1354C54.583 43.3351 53.3953 43.1986 52.2968 42.6694C50.5158 41.8115 49.395 40.1273 49.1723 38.2969V38.2969ZM56.4242 42.956L55.9279 41.537C56.602 41.3231 57.2207 40.9374 57.7023 40.4248C57.7833 40.3386 57.8183 40.219 57.7967 40.1028C57.7751 39.9865 57.6994 39.8875 57.5929 39.8361L54.7365 38.4602L55.3809 37.1223L60.0413 39.3673C59.9643 39.6025 59.8713 39.8337 59.7634 40.0576C59.0702 41.4967 57.8376 42.5045 56.4242 42.956V42.956Z" fill="#48B4C7"/>
<path d="M46.484 30.0054C45.1324 29.2908 44.0857 28.1857 43.4571 26.8092C43.3396 26.5522 43.2372 26.2851 43.1523 26.0156C42.5615 24.1386 42.8 22.1807 43.824 20.5027C44.5981 19.2345 45.7943 18.2498 47.1932 17.7306C49.0459 17.0429 51.0297 17.1735 52.7798 18.0988C53.0805 18.2578 53.3721 18.4407 53.6475 18.643L54.0753 18.9573L51.8973 23.0766L51.3073 22.4626C51.1356 22.2837 50.9375 22.1344 50.7185 22.0186C50.1651 21.726 49.5322 21.6688 48.9365 21.8573C48.3435 22.045 47.8619 22.453 47.5794 23.0066C47.2155 23.7204 47.2492 24.5596 47.6691 25.2521C47.8627 25.5707 48.1323 25.84 48.4499 26.031C48.7006 26.1817 48.9734 26.2828 49.2613 26.3315C50.2457 26.4979 51.2199 26.0182 51.6853 25.1381L53.9477 20.868L58.3585 12.5256L62.2954 14.6072L62.0152 15.1486C61.8883 15.3938 61.7843 15.6511 61.7064 15.9124C61.3998 16.9401 61.4831 18.0444 61.9413 19.0217C62.3479 19.8896 63.0127 20.5858 63.8627 21.0353C63.8827 21.0458 63.8827 21.0458 64.0576 21.1546L64.5447 21.4576L62.7807 24.794L62.4931 25.3379L62.312 25.2417L61.9504 25.0505C61.9475 25.049 61.9446 25.0475 61.9413 25.0457L61.7676 24.9539C61.7669 24.9535 61.7658 24.9529 61.7647 24.9524C60.7163 24.398 59.8395 23.6788 59.0831 22.7531C58.8578 22.4771 58.6493 22.1878 58.4592 21.8873L55.6374 27.2541C54.7926 28.8361 53.3796 29.992 51.6573 30.512C50.2599 30.9337 48.7952 30.9008 47.4219 30.416C47.1015 30.3032 46.7861 30.1652 46.484 30.0054V30.0054ZM52.2042 19.1866C50.7685 18.4275 49.1409 18.32 47.6213 18.8841C46.4804 19.3077 45.5049 20.1102 44.8742 21.1433C44.0384 22.5134 43.8435 24.1125 44.3261 25.6456C44.396 25.8672 44.48 26.0865 44.5763 26.2976C45.0911 27.4249 45.9499 28.331 47.0592 28.9175C47.308 29.049 47.5676 29.1627 47.8316 29.2558C48.9566 29.653 50.1566 29.6801 51.3019 29.3343C52.7087 28.9097 53.8621 27.9665 54.5502 26.6783L58.4905 19.1846L59.0109 20.327C59.2795 20.9168 59.6247 21.4715 60.0362 21.9754C60.5988 22.664 61.2391 23.2197 61.9848 23.6655L62.9138 21.9085C62.0034 21.3362 61.2862 20.5259 60.8264 19.5445C60.2397 18.2933 60.1335 16.8784 60.5266 15.561C60.5689 15.4196 60.6167 15.2792 60.6705 15.1406L58.8707 14.189L55.035 21.4434L52.7727 25.7135C52.0588 27.0636 50.5653 27.7996 49.0561 27.5446C48.6161 27.4702 48.199 27.3156 47.8158 27.0855C47.3277 26.7922 46.9134 26.3787 46.6168 25.8901C45.9738 24.8305 45.9236 23.5432 46.4827 22.4471C46.916 21.5978 47.655 20.9714 48.5646 20.6834C49.4769 20.3946 50.4458 20.4823 51.293 20.9302C51.3836 20.9782 51.4715 21.0297 51.5574 21.0849L52.4791 19.3416C52.3889 19.2875 52.2971 19.2356 52.2042 19.1866V19.1866Z" fill="#48B4C7"/>
<g clip-path="url(#clip2)">
<path d="M44.5265 41.9316C41.6439 41.9316 39.3068 43.8548 39.3068 46.2275C39.3068 47.5794 40.0656 48.7851 41.2518 49.5727V51.2111L43.0291 50.3441C43.5034 50.4607 44.0058 50.5239 44.5265 50.5239C47.4091 50.5239 49.7462 48.6007 49.7462 46.2281C49.7462 43.8554 47.4091 41.9316 44.5265 41.9316ZM45.0452 47.7168L43.7161 46.4566L41.1226 47.7168L43.9758 45.0246L45.3375 46.2849L47.8984 45.0246L45.0452 47.7168Z" fill="#48B4C7"/>
</g>
<path d="M55.4508 48.4961L56.6349 48.4232L56.4921 46.1028C56.2858 46.0838 55.5789 46.0558 54.7607 46.1062C53.0535 46.2113 51.9583 47.4915 52.095 49.7121L52.2207 51.7558L50.3368 51.8718L50.4964 54.4658L52.3804 54.3499L52.782 60.8769L55.0918 60.7347L54.6902 54.2083L56.498 54.0971L56.6253 51.4854L54.53 51.6143L54.4201 49.8272C54.3745 49.0774 54.5223 48.5532 55.4508 48.4961V48.4961Z" fill="#48B4C7"/>
</g>
<defs>
<clipPath id="clip0">
<rect width="70" height="70" fill="white"/>
</clipPath>
<clipPath id="clip1">
<rect width="7.9294" height="7.9294" fill="white" transform="translate(12.6216 22.1149)"/>
</clipPath>
<clipPath id="clip2">
<rect width="10.4394" height="9.27951" fill="white" transform="translate(39.3068 41.9316)"/>
</clipPath>
</defs>
</svg>
