<svg width="16" height="16" viewBox="0 0 16 16" fill="none" xmlns="http://www.w3.org/2000/svg">
<g clip-path="url(#clip0)">
<path d="M8 10.2766C6.3 10.2766 5 9.05954 5 7.46805V3.72337C5 2.22549 6.3 0.914856 8 0.914856C9.6 0.914856 11 2.13188 11 3.72337V7.46805C11 8.96592 9.6 10.2766 8 10.2766Z" fill="#48B4C7"/>
<path d="M12 5.5957V7.93613C12 9.71485 10.2 11.2127 8.2 11.2127H7.8C5.8 11.2127 4 9.71485 4 7.93613V5.5957C3.4 5.5957 3 5.97017 3 6.53187V7.93613C3 9.9957 4.8 11.7744 7 12.0553V14.0212C4 14.0212 4.5 15.8936 4.5 15.8936H11.5C11.5 15.8936 12 14.0212 9 14.0212V12.0553C11.2 11.6808 13 9.9957 13 7.93613V6.53187C13 5.97017 12.6 5.5957 12 5.5957Z" fill="#48B4C7"/>
</g>
<defs>
<clipPath id="clip0">
<rect width="16" height="14.9787" fill="white" transform="translate(0 0.914856)"/>
</clipPath>
</defs>
</svg>
