<svg width="28" height="28" viewBox="0 0 28 28" fill="none" xmlns="http://www.w3.org/2000/svg">
<circle cx="14" cy="14" r="14" fill="#3FAABC"/>
<path d="M14 16C12.3 16 11 14.7 11 13V9C11 7.4 12.3 6 14 6C15.6 6 17 7.3 17 9V13C17 14.6 15.6 16 14 16Z" fill="white"/>
<path d="M18 11V13.5C18 15.4 16.2 17 14.2 17H13.8C11.8 17 10 15.4 10 13.5V11C9.4 11 9 11.4 9 12V13.5C9 15.7 10.8 17.6 13 17.9V20C10 20 10.5 22 10.5 22H17.5C17.5 22 18 20 15 20V17.9C17.2 17.5 19 15.7 19 13.5V12C19 11.4 18.6 11 18 11Z" fill="white"/>
</svg>
