<svg width="72" height="71" viewBox="0 0 72 71" fill="none" xmlns="http://www.w3.org/2000/svg">
<path d="M50.4368 43.9781L48.9442 42.8763L48.2254 42.9159L38.453 3.66624L36.5651 2.27271L21.8084 22.2648L22.9087 23.0771L36.9938 3.9948L37.3256 4.23971L40.0039 14.9968L38.7927 15.0636L39.0959 16.2813L40.3071 16.2145L41.5199 21.0857L40.3087 21.1524L40.6118 22.37L41.8231 22.3032L43.0359 27.1745L41.8247 27.2412L42.1279 28.4589L43.3391 28.3922L44.5519 33.2633L43.3406 33.33L43.6438 34.5477L44.855 34.4809L46.1345 39.62L45.7922 39.3673L42.4736 39.5503L41.3463 41.0775L41.5928 42.0676L39.1564 42.2019L39.7524 44.5963L41.0054 44.5273L40.7124 43.3505L41.896 43.2853L42.1268 44.2124L43.9837 45.6417L45.7409 45.5273L47.8589 54.1152L49.3788 55.2372L51.9859 55.0935L52.9136 53.8366L50.4368 43.9781ZM44.2112 44.39L43.2586 43.6567L43.149 43.2168L45.0426 43.1124L44.7393 41.8947L42.8458 41.9991L42.7249 41.5134L43.2959 40.7399L45.5764 40.6142L46.5119 41.3048L47.0434 43.4395L46.4493 44.2444L44.2112 44.39ZM51.1639 53.9049L49.5949 53.9914L48.9879 53.5434L46.9911 45.4465L47.2755 45.428L48.2183 44.1508L48.7283 44.1226L49.3108 44.5526L51.5344 53.403L51.1639 53.9049Z" fill="white"/>
<path d="M21.1368 23.1747L22.2372 23.9869L21.5655 24.8968L20.4652 24.0846L21.1368 23.1747Z" fill="white"/>
<path d="M16.8366 34.0955L16.273 33.6795L15.9727 32.4737L17.6462 30.2065L20.5191 30.0481L19.824 27.2561L20.8937 25.8069L19.7933 24.9947L18.7236 26.4439L15.9344 26.5976L16.6093 29.3083L14.5942 32.0383L15.1456 34.2529L16.6207 35.3417L19.6207 35.1764L19.3175 33.9587L16.8366 34.0955ZM18.6598 27.6818L18.963 28.8994L17.7936 28.9639L17.4905 27.7463L18.6598 27.6818Z" fill="white"/>
<rect x="0.502345" y="0.499994" width="20.8504" height="15.7219" rx="0.5" transform="matrix(1 4.3741e-09 0.00468969 0.999989 4.4329 53.9999)" stroke="white"/>
<rect x="0.502345" y="0.499994" width="16.8877" height="11.4219" rx="0.5" transform="matrix(1 5.61179e-09 0.00468968 0.999989 6.27372 55.4789)" stroke="white"/>
<rect x="0.502345" y="0.499994" width="29.9548" height="1.92011" rx="0.5" transform="matrix(1 9.49018e-09 0.00468968 0.999989 0.0628407 67.9008)" fill="white" stroke="white"/>
<rect x="0.257574" y="-0.258784" width="7.13008" height="0.517575" transform="matrix(1 5.61179e-09 -0.00468968 -0.999989 11.4555 69.4535)" fill="#48B4C7" stroke="#48B4C7" stroke-width="0.517575"/>
<rect x="5.57764" y="43.6742" width="17.6877" height="9.71714" rx="1" transform="rotate(-37.1199 5.57764 43.6742)" fill="white"/>
<path d="M14.8755 47.246C16.2361 46.2604 16.6914 44.6218 16.0231 43.0684L15.0755 43.7548C15.3972 44.7443 15.0909 45.7193 14.2244 46.347C13.0906 47.1683 11.6405 46.9222 10.784 45.7398C9.92751 44.5574 10.1398 43.0948 11.2736 42.2735C12.1078 41.6692 13.1062 41.6498 13.9271 42.2035L14.8666 41.523C13.64 40.4605 11.9587 40.4066 10.6225 41.3745C8.94606 42.5889 8.60453 44.7255 9.83646 46.4262C11.0625 48.1188 13.1991 48.4603 14.8755 47.246ZM19.6482 39.1336C19.8677 38.5672 19.755 37.8832 19.403 37.3973C18.7988 36.5632 17.6506 36.4441 16.7031 37.1304L14.4193 38.7847L18.5257 44.4537L20.85 42.7701C21.8299 42.0602 22.0889 40.7984 21.4436 39.9075C21.0036 39.3001 20.3344 39.007 19.6482 39.1336ZM18.5656 38.2015C18.8706 38.6226 18.7754 39.1731 18.33 39.4958L17.0181 40.4461L15.9504 38.9722L17.2624 38.0218C17.7078 37.6992 18.2605 37.7804 18.5656 38.2015ZM20.1561 41.9144L18.7956 42.9L17.634 41.2965L18.9946 40.3109C19.4886 39.9531 20.0913 40.0351 20.4257 40.4967C20.7601 40.9583 20.6501 41.5566 20.1561 41.9144Z" fill="#48B4C7"/>
</svg>
