<svg width="38" height="24" viewBox="0 0 38 24" fill="none" xmlns="http://www.w3.org/2000/svg">
<rect x="0.5" y="0.5" width="35" height="20" rx="1.5" stroke="white"/>
<path d="M2 0.5H34C34.8284 0.5 35.5 1.17157 35.5 2V4.5H0.5V2C0.5 1.17157 1.17157 0.5 2 0.5Z" stroke="white"/>
<circle cx="3.5" cy="2.5" r="0.5" fill="#F04A61"/>
<circle cx="5.5" cy="2.5" r="0.5" fill="#FECA13"/>
<circle cx="7.5" cy="2.5" r="0.5" fill="#81BD5A"/>
<rect x="3.5" y="7.5" width="8" height="9" rx="0.5" stroke="white"/>
<rect x="15.5" y="8.5" width="18" height="1" rx="0.5" stroke="white"/>
<rect x="15.5" y="11.5" width="18" height="1" rx="0.5" stroke="white"/>
<rect x="15.5" y="14.5" width="18" height="1" rx="0.5" stroke="white"/>
<path d="M30.8002 23.6005C34.5559 23.6005 37.6005 20.5559 37.6005 16.8002C37.6005 13.0446 34.5559 10 30.8002 10C27.0446 10 24 13.0446 24 16.8002C24 20.5559 27.0446 23.6005 30.8002 23.6005Z" fill="url(#paint0_linear)"/>
<path d="M30.7593 12.0797L34.8118 19.0989H26.7068L30.7593 12.0797Z" fill="white"/>
<path d="M30.4173 16.8497H31.0893V13.7597H30.4173V16.8497ZM30.3933 18.0797H31.1253V17.3177H30.3933V18.0797Z" fill="black"/>
<defs>
<linearGradient id="paint0_linear" x1="27.6373" y1="13.6373" x2="34.1918" y2="20.1918" gradientUnits="userSpaceOnUse">
<stop stop-color="#FF637B"/>
<stop offset="1" stop-color="#E63950"/>
</linearGradient>
</defs>
</svg>
